<?xml version="1.0" encoding="UTF-8"?>
<svg xmlns="http://www.w3.org/2000/svg" version="1.1" xmlns:xlink="http://www.w3.org/1999/xlink" viewBox="0 0 1454.6 395.7">
  <!-- Generator: Adobe Illustrator 29.8.1, SVG Export Plug-In . SVG Version: 2.1.1 Build 2)  -->
  <defs>
    <style>
      .st0 {
        fill: #fff9f0;
      }

      .st1 {
        fill: #ff7300;
      }

      .st2 {
        fill: #c0322e;
        mix-blend-mode: multiply;
      }

      .st3, .st4 {
        fill: #d64528;
      }

      .st5 {
        fill: url(#radial-gradient);
      }

      .st6 {
        isolation: isolate;
      }

      .st4 {
        opacity: .7;
      }

      .st7 {
        fill: #ba3620;
      }

      .st8 {
        fill: #f3af42;
      }

      .st9 {
        fill: #ff0;
      }

      .st10 {
        fill: #fff8e9;
      }
    </style>
    <radialGradient id="radial-gradient" cx="212.7" cy="220.4" fx="212.7" fy="220.4" r="156" gradientTransform="translate(15.1 -21.9) rotate(3.7) scale(1 1)" gradientUnits="userSpaceOnUse">
      <stop offset=".8" stop-color="#ffef14"/>
      <stop offset="1" stop-color="#ffcd15"/>
    </radialGradient>
  </defs>
  <g class="st6">
    <g id="Layer_1">
      <g>
        <g>
          <path class="st1" d="M517.7,282.6c-5.7,0-11.9-.2-18.6-.5-6.7-.3-13-.6-18.8-.9-5.8-.3-10.2-.4-13.2-.4s-7,0-11,.1c-4,0-8.1.2-12.4.4-4.2.2-8.3.3-12.1.3s-2.2-.3-3.2-.9c-1-.6-1.5-1.5-1.5-2.7s.5-2.7,1.4-3.6c.9-.8,2.2-1.4,3.9-1.8,6.3-1.4,10.6-3.1,13-5.2,2.3-2.1,3.5-5.9,3.5-11.3v-115.4c0-5.4-1.1-9.3-3.2-11.6-2.2-2.3-6.6-4.2-13.2-5.7-1.7-.3-3-.9-3.9-1.8-.9-.8-1.4-2-1.4-3.6s.5-2.1,1.5-2.8,2.1-1,3.2-1c3.8,0,7.9,0,12.1.3,4.2.2,8.4.4,12.5.6,4.1.3,7.8.4,11.1.4s6.2-.1,10.5-.4c4.3-.3,9-.5,14.1-.8,5.1-.3,10-.5,14.7-.8,4.7-.3,8.6-.4,11.6-.4,12.6,0,24.3,2,35.1,6,10.7,4,20.1,9.7,28.2,17,8.1,7.4,14.4,16.1,18.8,26,4.5,10,6.7,21,6.7,33s-2,22.2-6,32.7c-4,10.4-9.8,19.7-17.5,28-7.7,8.2-17,14.7-28,19.4-11,4.7-23.6,7.1-37.9,7.1ZM513.9,269.6c11.3,0,20.8-2.8,28.5-8.5,7.7-5.7,13.4-13.6,17.1-23.6,3.7-10.1,5.6-21.8,5.6-35.2s-1.2-21.6-3.6-30.9c-2.4-9.2-5.9-17.2-10.5-23.8-4.6-6.6-10.2-11.7-17-15.4-6.7-3.6-14.4-5.5-22.8-5.5s-9.8.2-13.4.5c-3.6.3-6.3,1.2-8.1,2.5-1.8,1.4-2.7,3.6-2.7,6.6v110.8c0,5.6,1,10,3.1,13.2,2.1,3.2,5.2,5.6,9.2,7,4.1,1.4,8.9,2.2,14.6,2.2Z"/>
          <path class="st1" d="M666.2,282.6c-9,0-17-2.4-24.1-7.1-7.1-4.7-12.6-11.2-16.7-19.5-4.1-8.2-6.1-17.6-6.1-28.1s2.4-20,7.2-28.6c4.8-8.6,11.4-15.4,19.7-20.5,8.3-5.1,17.5-7.6,27.5-7.6s13.6,1.5,19.2,4.6c5.7,3.1,10.2,7.2,13.6,12.4,3.4,5.2,5.1,11,5.1,17.5s-2.6,9.5-7.7,9.5h-49.9c-2.3,0-4,.7-5.1,2-1.1,1.3-1.6,3.6-1.6,6.7,0,6.3,1.4,12.1,4.2,17.3,2.8,5.2,6.7,9.4,11.5,12.4,4.8,3,10.4,4.5,16.7,4.5s9.3-.9,13.4-2.7c4.1-1.8,8.1-4.3,12.1-7.5.7-.5,1.3-1,1.9-1.4.6-.4,1.1-.6,1.6-.6,1.7,0,2.5,1.1,2.5,3.2s-.7,4.3-2,7.5c-1.7,4.2-4.5,8.3-8.4,12.4-3.9,4.1-8.8,7.4-14.6,9.9-5.8,2.5-12.5,3.7-20,3.7ZM654,204.7h15c4.7,0,7.9,0,9.7-.2,1.8-.2,3.5-.5,5-1,.8-.3,1.5-1.2,2-2.5.5-1.3.7-2.8.7-4.5,0-4.5-1.5-8.2-4.6-11-3.1-2.8-6.9-4.2-11.4-4.2s-6.8,1-9.9,2.9c-3.1,1.9-5.6,4.4-7.5,7.5-1.9,3.1-2.8,6.3-2.6,9.6,0,2.3,1.2,3.5,3.5,3.5Z"/>
          <path class="st1" d="M774.5,282.6c-1,0-2-1.1-3.1-3.2-1.1-2.2-2.3-4.7-3.6-7.7-1.3-3-2.7-6.4-4.2-10.1-1.5-3.7-2.9-7.1-4.2-10.1-4.2-9.8-8.5-19.4-13-28.7-4.5-9.3-8.9-18.8-13.2-28.5-1.5-3.7-3.2-6.8-5.2-9.4-2-2.6-4.5-4.4-7.5-5.4-1.7-.7-2.8-1.4-3.5-2.1-.7-.7-1-1.8-1-3.1s.7-2.2,2.1-2.5c1.4-.3,2.7-.5,3.9-.5,4,0,7.1.1,9.4.4,2.2.3,4.5.5,6.6.7,2.2.3,5.1.4,8.7.4s6.6-.1,9.4-.4,5.6-.5,8.5-.7c2.9-.3,6.3-.4,10.1-.4s2.5.3,3.9.7c1.4.5,2.1,1.3,2.1,2.5s-.6,2.5-1.7,3c-1.2.5-2.5,1.1-4,1.7-1.7.7-3,1.9-4.1,3.7-1.1,1.8-1.6,4.2-1.6,7v4.1c0,1.2.3,2.5,1,3.9l16.7,41.2h.7l14.7-39.4c.7-1.5,1.1-2.9,1.2-4.2.2-1.3.2-2.6.2-3.7,0-3-.6-5.5-1.9-7.6-1.2-2.1-3.3-3.6-6.1-4.6-1.5-.5-2.8-1-3.9-1.6-1.1-.6-1.6-1.6-1.6-3.1s.7-2,2-2.5c1.3-.5,2.6-.7,3.7-.7,4.5.2,7.9.3,10.1.5,2.2.2,4.6.3,7.1.3s4.9,0,7.2-.3c2.3-.2,5.7-.3,10-.5,1.2,0,2.5.2,3.9.5,1.4.3,2.1,1.2,2.1,2.5,0,2.3-1.6,4.1-4.7,5.2-3,1-5.8,2.9-8.4,5.6-2.6,2.7-4.7,6-6.4,9.9l-19.5,48.9c-.3,1.2-.9,2.6-1.6,4.2-.7,1.7-1.5,3.4-2.2,5.1-.7,1.7-1.5,3.4-2.1,4.9-.7,1.5-1.3,2.8-2,4-.5,1.2-1.3,3.1-2.5,5.7-1.2,2.7-2.3,5.3-3.5,8-1.2,2.7-2.2,4.8-3.2,6.5h-5.7Z"/>
          <path class="st1" d="M861.7,282.6c-4.5,0-8.7-1.1-12.5-3.2-3.8-2.2-6.9-5-9.1-8.5-2.2-3.5-3.4-7.3-3.4-11.5s1.8-10.4,5.4-14.2c3.6-3.8,8.9-7.2,15.9-10.2l22.2-9.7c3.3-1.5,5.4-2.8,6.1-4,.7-1.2,1.1-3.3,1.1-6.5l.3-14.2c.2-4.7-.7-8.4-2.5-11.1-1.8-2.7-4.6-4.1-8.2-4.1s-4.3.5-6.5,1.4c-2.2.9-3.8,2-5,3.1-.5.7-.9,1.5-1.1,2.4-.2.9-.4,1.9-.4,2.9s0,2.2.2,3.6c.2,1.4.2,2.6.2,3.6s-1.3,2.3-4,3.9c-2.7,1.6-5.7,3-9.2,4.2-3.5,1.2-6.5,1.9-9,1.9s-2.2-.5-3.1-1.5c-.9-1-1.4-2.2-1.4-3.7,0-2.7.9-5.3,2.7-7.9,1.8-2.6,4.8-5.5,9-8.9,4.3-3.7,9.1-6.9,14.2-9.7,5.2-2.8,10.3-5.1,15.4-6.7,5.1-1.7,9.4-2.5,12.9-2.5,9,0,16.1,2.9,21.5,8.6,5.3,5.7,7.8,13.4,7.5,22.8l-1.2,50.4c-.2,3.8.5,7.1,2,9.7,1.5,2.7,3.3,4,5.5,4,3.2,0,5.9-1.1,8.2-3.2.5-.5,1-.7,1.5-.7.8,0,1.5.3,2.1.7.6.5.9,1.2.9,2,0,2-1.5,4.6-4.5,7.7-3.2,3-6.5,5.3-10,6.9-3.5,1.6-7.2,2.4-11,2.4-9.3,0-17.1-4.7-23.2-14.2h-.5c-5.5,5-10.4,8.6-14.9,10.9-4.4,2.2-9.1,3.4-14.1,3.4ZM876.6,266.4c1.8,0,3.3-.3,4.5-.9,1.2-.6,2.3-1.5,3.5-2.9.5-.7.9-1.5,1.2-2.6.3-1.1.5-2.4.5-3.9l.7-18c0-1.7-.2-2.7-.7-3.2-.5-.5-1.1-.7-1.7-.7s-.7,0-1.2.2c-.5.2-1.1.4-1.7.7-4.8,2.3-8.4,4.7-10.7,7.1-2.3,2.4-3.5,6.3-3.5,11.6s1,8.1,3,9.9c2,1.7,4.1,2.6,6.2,2.6Z"/>
          <path class="st1" d="M993.4,282.6c-7.2,0-14.1-.8-20.7-2.5-6.7-1.7-12.9-4.3-18.7-8-1-.8-2-1.7-3-2.8-1-1-1.7-2.1-2.2-3.2-1.7-4.5-2.8-10-3.4-16.5-.6-6.5-.8-13.1-.6-19.8,0-1.2.5-2,1.5-2.5,1-.5,2.2-.8,3.5-.8s2.8.2,3.4.6c.6.4,1.2,1.2,1.9,2.4,3.7,12.5,9.1,22.6,16.4,30.3,7.2,7.7,15.7,11.5,25.3,11.5s9.7-1.2,13.1-3.6c3.4-2.4,6-5.5,7.9-9.3,1.8-3.7,2.7-7.5,2.7-11.4s-1-9.8-3.1-13.5c-2.1-3.7-5.2-7-9.4-10-4.2-3-9.5-6.3-16-9.8-7-4-13.7-8.2-20.2-12.6-6.5-4.4-11.8-9.8-16-16.1-4.2-6.3-6.2-14.3-6.2-23.8s2.5-18.3,7.6-25.5c5.1-7.2,12-12.8,20.8-16.8,8.8-4,18.7-6,29.7-6s12.4.7,18.1,2c5.7,1.3,10.4,2.7,13.9,4,2,.8,3.5,1.7,4.4,2.8.9,1,1.7,2.7,2.4,5.3.8,3.5,1.5,7.7,2.1,12.8.6,5,.9,10.5.9,16.5s-1.5,3.2-4.5,3.2-2.9-.4-4.1-1.1-2-1.7-2.4-2.9c-2.8-10-7-17.6-12.5-22.8-5.5-5.2-12.2-7.7-20.2-7.7s-9.2.8-12.7,2.5c-3.5,1.7-6.1,4.2-7.9,7.5-1.7,3.3-2.6,7.5-2.6,12.5s1.4,7.7,4.1,11.1c2.7,3.4,6.7,6.9,11.9,10.4,5.2,3.5,11.1,7.3,17.7,11.3,9,5.3,16.1,10.6,21.5,15.8,5.3,5.2,9.2,10.6,11.6,16.4,2.4,5.8,3.6,12.4,3.6,19.9,0,11.3-2.5,20.8-7.4,28.3-4.9,7.5-11.8,13-20.7,16.6-8.9,3.6-19.3,5.4-31.3,5.4Z"/>
          <path class="st1" d="M1117.8,282.6c-9,0-17-2.4-24.1-7.1-7.1-4.7-12.6-11.2-16.7-19.5-4.1-8.2-6.1-17.6-6.1-28.1s2.4-20,7.2-28.6c4.8-8.6,11.4-15.4,19.7-20.5,8.3-5.1,17.5-7.6,27.5-7.6s13.6,1.5,19.2,4.6c5.7,3.1,10.2,7.2,13.6,12.4,3.4,5.2,5.1,11,5.1,17.5s-2.6,9.5-7.7,9.5h-49.9c-2.3,0-4,.7-5.1,2-1.1,1.3-1.6,3.6-1.6,6.7,0,6.3,1.4,12.1,4.2,17.3,2.8,5.2,6.7,9.4,11.5,12.4,4.8,3,10.4,4.5,16.7,4.5s9.3-.9,13.4-2.7c4.1-1.8,8.1-4.3,12.1-7.5.7-.5,1.3-1,1.9-1.4.6-.4,1.1-.6,1.6-.6,1.7,0,2.5,1.1,2.5,3.2s-.7,4.3-2,7.5c-1.7,4.2-4.5,8.3-8.4,12.4-3.9,4.1-8.8,7.4-14.6,9.9-5.8,2.5-12.5,3.7-20,3.7ZM1105.5,204.7h15c4.7,0,7.9,0,9.7-.2,1.8-.2,3.5-.5,5-1,.8-.3,1.5-1.2,2-2.5.5-1.3.7-2.8.7-4.5,0-4.5-1.5-8.2-4.6-11-3.1-2.8-6.9-4.2-11.4-4.2s-6.8,1-9.9,2.9c-3.1,1.9-5.6,4.4-7.5,7.5-1.9,3.1-2.8,6.3-2.6,9.6,0,2.3,1.2,3.5,3.5,3.5Z"/>
          <path class="st1" d="M1223.8,282.6c-11,0-19.2-2.8-24.7-8.4-5.5-5.6-8.2-13.4-8.2-23.6v-57.4c0-1.5-.5-2.6-1.6-3.2-1.1-.7-3.1-1.1-6.1-1.2h-3.2c-1.2,0-2.1-1-2.9-2.9-.7-1.9-1.1-3.6-1.1-5.1s.1-.8.4-1.4c.2-.6.6-1,1.1-1.1,4-1.5,8.3-3.8,12.9-6.9,4.6-3.1,9-6.4,13.2-9.9,4.2-3.5,7.7-6.4,10.4-8.7,1.2-.8,2.2-1.6,3-2.2.8-.7,1.9-1,3.2-1s2.6.3,3.2.9c.7.6.8,2,.5,4.1l-1.5,14.7c-.2,2,.3,3.4,1.4,4.1,1.1.7,2.6,1.1,4.6,1.1h29.7c.5,0,1,.6,1.5,1.7.5,1.2.7,2.2.7,3.2,0,2.3-.3,4.6-1,6.7-.7,2.2-1.4,3.2-2.2,3.2h-23.2c-3.8,0-6.5.5-7.9,1.4-1.4.9-2.1,2.5-2.1,4.9v47.2c0,7.7,1.5,13.4,4.4,17.1,2.9,3.7,6.8,5.6,11.6,5.6s8.4-.5,10.6-1.5c2.2-1,4.3-1.8,6.1-2.5.7-.3,1.2-.5,1.5-.5.8,0,1.5.5,2,1.5.5,1,.7,2.2.7,3.5s-1.7,2.8-5.2,5.5c-3.5,2.7-8,5.2-13.6,7.5-5.6,2.3-11.6,3.5-18.1,3.5Z"/>
          <path class="st1" d="M1349.2,282.6c-1.3,0-2-.8-2-2.5s.2-4.7.6-8c.4-3.3.6-5.9.6-7.7s0-1.2-.1-1.7c0-.5-.2-.8-.4-1-4.5,5.5-10.2,10.1-17.2,13.9-7,3.7-14.4,5.6-22.2,5.6s-9.8-1.5-14-4.6c-4.2-3.1-7.4-7.3-9.9-12.6-2.4-5.3-3.6-11.3-3.6-18v-46.7c0-3.8-.7-6.9-2.1-9.2-1.4-2.3-4-3.9-7.9-4.7-1-.2-1.9-.6-2.6-1.4-.7-.7-1.1-1.9-1.1-3.4s.3-2.1,1-2.9c.7-.7,1.6-1.2,2.7-1.4,7-.3,13.3-1,19-2.1,5.7-1.1,11.4-2.4,17.2-3.9.8-.2,1.7-.4,2.6-.6.9-.3,1.8-.4,2.6-.4,2.3,0,3.4,1.2,3.2,3.5-.7,3.8-1.2,7-1.5,9.6-.3,2.6-.5,5.8-.5,9.6v47.9c0,4,.7,7.5,2,10.5,1.3,3,3.2,5.3,5.5,7,2.3,1.7,4.9,2.6,7.7,2.7,2.7,0,5.3-.3,7.9-1,2.6-.7,5-2.2,7.4-4.5,1-.8,2.1-2.5,3.2-5.1,1.2-2.6,1.7-6,1.7-10.4v-40.2c0-3-.6-5.4-1.7-7.4-1.2-1.9-2.7-3.5-4.7-4.6-2-1.2-4.3-1.8-7-2-1.8-.2-3.3-.6-4.4-1.4-1.1-.7-1.6-2.1-1.6-4.1s.6-2.9,1.7-3.7c1.2-.8,2.6-1.2,4.2-1.2,8.5-.5,15.2-1,20.2-1.4,5-.4,9.1-.9,12.2-1.4,3.2-.5,6.3-1.1,9.5-1.7.5-.2,1.1-.3,1.7-.5.7-.2,1.2-.3,1.5-.3,2.5,0,3.7,1,3.7,3s0,1.1-.2,1.7c-.2.7-.4,1.3-.7,2-.2.7-.4,2.1-.6,4.4-.2,2.2-.5,4.6-.7,7.1s-.4,4.5-.4,6v57.9c0,3.8.5,6.4,1.4,7.6.9,1.2,2,1.9,3.1,1.9s2.1,0,3.7.1c1.7,0,2.7.1,3.2.1,1.5,0,2.7.4,3.5,1.2.8.8,1.2,1.9,1.2,3.2s-.3,2.7-.9,3.6c-.6.9-1.7,1.5-3.4,1.6-8,.7-15.2,2-21.6,4.1-6.4,2.1-11.9,4-16.6,5.9-1,.3-2.1.7-3.2,1.1-1.2.4-2.2.6-3.2.6Z"/>
        </g>
        <g>
          <g>
            <path class="st1" d="M237,113.1h0s-.2.2-.6.4c-1.6,1-6.5,3.5-12.6-.1-5.5-3.3-8.7.4-9.5,1.5,0,0,0,0,0,0h0c-.1.2-.2.3-.2.3v-11.4s0,0,.2-.1c.9-.7,5.3-3.4,10.3-.1,7.1,4.7,11,2.1,13.2-.6-.1.4-1.9,6-7,7.3,0,0,2.2,4.2,6.3,2.9h0Z"/>
            <g>
              <path class="st3" d="M214.1,102.5c0-.2-.2-.4-.4-.4s-.4.2-.4.4v21.2c0,.2.2.4.4.4s.4-.2.4-.4v-21.2Z"/>
              <path class="st3" d="M236.5,113.5c-1.6,1-6.5,3.5-12.6-.1-5.5-3.3-8.7.4-9.5,1.5.2-.5,3.9-8.8,14.1-3,4.9,2.4,7.1,2.1,8,1.7h0Z"/>
            </g>
          </g>
          <path class="st9" d="M116.7,308.1c2,2,4,4,6.1,5.8-6.8,3.1-13.5,6.5-20,10.3-1.6-1.6-3.1-3.2-4.6-4.8,5.1-3.4,10.4-6.6,15.6-9.7,1-.6,2-1.1,2.9-1.7Z"/>
          <path class="st9" d="M328.1,320.7c-2.5,2.7-5.1,5.3-7.9,7.8-6.6-3.8-13.2-7.5-20-10.7,3.1-2.6,6.1-5.3,9-8.2,2.4,1.3,4.9,2.7,7.3,4.1,3.9,2.3,7.7,4.6,11.5,7Z"/>
          <path class="st5" d="M370.9,213.8c0,41.7-16.3,79.7-42.8,107.8-3.8-2.4-7.7-4.7-11.5-7-2.4-1.4-4.8-2.8-7.3-4.1-3.7-2.1-7.5-4-11.4-5.9-.8-.4-1.6-.8-2.5-1.2-.4-.2-.7-.3-1.1-.5-.3-.1-.5-.2-.8-.4-.8-.3-1.5-.7-2.3-1,25-21.7,40.7-53.7,40.7-89.3,0-65.3-53-118.3-118.3-118.3s-118.3,53-118.3,118.3,15.1,66.2,39,87.8c-.7.3-1.4.6-2.1.9-.7.3-1.3.6-2,.9-4.6,2.2-9.2,4.5-13.7,7-1,.5-2,1.1-2.9,1.7-5.3,3-10.5,6.3-15.6,9.7-25.8-28-41.6-65.4-41.6-106.5,0-86.8,70.4-157.2,157.2-157.2s157.2,70.4,157.2,157.2Z"/>
          <path class="st9" d="M134.5,299.2c.5.4,1,.9,1.5,1.3-1.4.6-2.8,1.2-4.2,1.8-.5-.4-.9-.9-1.4-1.3.7-.3,1.3-.6,2-.9.7-.3,1.4-.6,2.1-.9Z"/>
          <path class="st9" d="M295.4,302.6c-1.2,1.1-2.5,2.2-3.8,3.3-1.4-.7-2.8-1.3-4.2-1.9,1.3-1,2.6-2.1,3.8-3.2.8.3,1.5.7,2.3,1,.3.1.5.2.8.4.4.2.7.3,1.1.5Z"/>
          <g>
            <path class="st1" d="M285.6,304c-14-6.2-28.6-10.6-43.9-11.2-10.6.4-15.9.8-19.8,1-.1,0-.2,0-.3,0-2.6,0-4.5,0-7-.1-1.1,0-2.2-.2-3.6-.4-1.3-.2-2.7-.4-4.4-.6-3.6-.5-8.2-1.3-14.7-2.3-1.9-.3-4-.6-6.2-1-6,.2-11.9.9-17.8,1.9,0,0-.4,0-1.2.2-4.2,1-18.8,4.8-24.7,7.1,0-.8.2-1.7.3-2.6,2.8-27.4,11.5-87.9,36-109.2,0,0,0,0,.1-.1.6-.5,1.1-.9,1.7-1.4.6-.4,1.1-.8,1.7-1.2s1.2-.8,1.8-1.1c.6-.3,1.2-.7,1.8-1,0,0,0,0,0-.1,0-.2-.2-.4-.2-.6h0c-1.8-4.4-.8-9.5,2.4-13,.1-.1.3-.3.4-.4.1-.1.3-.3.4-.4h0c.4-.3.8-.7,1.1-1,1.1-.9,2.1-1.7,2.7-2h0s0,0,0-.1c-.2-2.1-2.6-10.4,8.7-16.2.3-.1.6-.3.9-.4.1,0,.2-.1.3-.2.4-.2.6-.5.8-.9.2-.4.3-.8.3-1.2,0-.5-.1-1-.4-1.5-1.9-2.9-2.8-6,.2-8.8,1.1-1,2.7-1.9,5-2.7h0c0-2-.4-4,.5-5.7.4-.9,1.2-1.6,2-2.1.7-.4,2.3-2.1,2.9-2.8.1-.1.3-.1.5,0,.7.7,2,2.3,2.9,2.8.8.5,1.5,1.2,2,2.1.9,1.7.5,3.8.5,5.6h0c2.3.9,3.9,1.9,5,2.8,3,2.7,2.1,5.9.2,8.8-.3.5-.4,1-.4,1.5,0,0,0,.1,0,.2,0,.1,0,.2,0,.3,0,0,0,0,0,.1,0,0,0,0,0,.1,0,0,0,0,0,.1,0,.1,0,.2.1.3,0,.1.1.2.2.3,0,0,0,0,.1.1.1.2.3.3.5.4,0,0,.2.1.3.2.3.1.6.3.9.4,11.3,5.8,8.9,14.1,8.7,16.2h0s0,0,0,.1c.3.1.7.4,1.2.7.8.6,1.7,1.3,2.7,2.2.3.3.6.6.9.8,2.1,2.3,3.3,5.4,3.3,8.4s-.3,3.1-.9,4.6h0c0,.2-.2.4-.2.6,0,0,0,.1,0,.1.5.3,1,.5,1.5.8,1,.6,2,1.2,3,1.9.6.4,1.1.8,1.7,1.3.3.2.6.5.8.7h.1c0,.1,0,.1,0,.1,25.2,21.9,33.7,85.2,36.2,111.4.2,2.2.4,4.2.5,5.8Z"/>
            <path class="st4" d="M239.7,168.2c-8.1-3.1-16.9-4.9-26.1-4.9s-18,1.7-26.1,4.9c.1-.1.3-.3.4-.4.1-.1.3-.3.4-.4h0c.4-.3.8-.7,1.1-1,1.1-.9,2.1-1.7,2.7-2h0s0,0,0-.1c6.8-2.1,14-3.2,21.4-3.2s14.7,1.1,21.4,3.3c0,0,0,0,0,.1h0c.3.2.7.4,1.2.7.8.6,1.7,1.3,2.7,2.2.3.3.6.6.9.8Z"/>
            <path class="st4" d="M225.2,147.5c-3.8-.4-7.6-.7-11.6-.7s-7.8.2-11.6.7c.4-.2.6-.5.8-.9,3.5-.4,7.1-.6,10.7-.6s7.2.2,10.7.6c0,.1.1.2.2.3,0,0,0,0,.1.1.1.2.3.3.5.4Z"/>
            <path class="st4" d="M248.8,186.6c-10.7-4.8-22.6-7.4-35.1-7.4s-10,.4-14.8,1.3c0,0-.1,0-.2,0-.4,0-.8.1-1.2.2-3.3.6-6.5,1.4-9.7,2.4-3.1,1-6.2,2.2-9.2,3.5.6-.5,1.1-.9,1.7-1.4.6-.4,1.1-.8,1.7-1.2s1.2-.8,1.8-1.1c.6-.3,1.2-.7,1.8-1h0s0,0,0-.1c0-.2-.2-.4-.2-.6,8.9-3.1,18.5-4.8,28.5-4.8s19.5,1.7,28.5,4.8c0,.2-.2.4-.2.6,0,0,0,.1,0,.1h0c.5.3,1,.5,1.5.8,1,.6,2,1.2,3,1.9.6.4,1.1.8,1.7,1.3.3.2.6.5.8.7Z"/>
            <path class="st4" d="M198.8,180.4c-1,1.5-2.3,3.5-2.9,4.4-.7,1.1-2.8,4.6-3.5,5.8-1.3,2.3-3.2,5.6-4.3,7.9v.2c0,0-2.1,3.9-2.1,3.9-.7,1.4-2.2,4.8-2.9,6.1-.5,1.3-2.1,4.9-2.6,6.2-.5,1.4-1.9,4.9-2.4,6.3-.4,1.3-1.7,5-2.2,6.4l-1.3,4.3c-.8,2.4-1.6,6.2-2.3,8.7-1,4.2-1.9,8.9-2.6,13.2-.4,2.5-.7,5.3-1,7.8-.3,3-.7,7-.8,10-.2,2.6-.3,6.3-.3,8.9,0,2.5,0,5.1.1,7.6,0,.8,0,1.6.1,2.4,0,.2,0,.3,0,.5-1.6.3-3.1.6-4.7.9,0-1.9-.1-3.9-.2-5.8,0-.8,0-1.5,0-2.3,0-17.2,2.6-34.4,7.7-50.8.5-1.4,1.7-5.1,2.2-6.5l1.6-4.3c.9-2.4,2.5-6,3.5-8.4,1.1-2.3,2.8-6,4-8.2l2.1-4c.5-.8,1.5-2.6,2.4-4.1.4-.8.8-1.4,1.1-1.8.8-1.3,2.8-4.4,3.7-5.7,1.4-2,3.8-5.4,5.3-7.4l1.8-2.3h0c0,0,.1,0,.2,0Z"/>
            <path class="st2" d="M199.6,179.2c-.2.3-.5.8-.8,1.2,0,0-.1,0-.2,0l1-1.3Z"/>
            <path class="st4" d="M236.5,292.8c-4.8-.3-9.7,0-14.8,1-10.5-3.6-20.7-5-30.7-4.5,0-22.9,5.4-71.9,22.4-90.7,16.3,20.1,23,54.8,23,94.2Z"/>
          </g>
          <g>
            <path class="st3" d="M356.4,339.1h-43.1c0-.2-.2-.4-.3-.7-.1-.3-.3-.7-.5-1l-.2-.3c0-.2-.2-.3-.3-.5,0,0,0,0,0,0-.6-.9-1.1-1.8-1.7-2.7-.3-.5-.7-1-1-1.6h0c-.9-1.3-1.8-2.5-2.7-3.7-.1-.1-.2-.3-.3-.4,0-.1-.2-.2-.3-.3,0-.1-.2-.2-.3-.3-.2-.3-.4-.6-.7-.8-.9-1-1.7-2.1-2.6-3.1,0,0,0-.1-.1-.2,0,0-.2-.2-.3-.3-.2-.2-.3-.3-.5-.5-.1-.1-.2-.2-.3-.4-.3-.3-.6-.7-1-1-.4-.4-.8-.8-1.1-1.1-.5-.5-1-1-1.6-1.5-.3-.3-.6-.5-.9-.8-.4-.3-.7-.7-1.1-1h0c-.3-.3-.7-.6-1.1-.9-.3-.3-.7-.6-1.1-.9-.2-.2-.4-.3-.7-.5-.2-.2-.4-.3-.7-.5-.3-.2-.6-.5-1-.7,0,0-.1-.1-.2-.2h0s0,0,0,0c0,0,0,0,0,0,0,0,0,0,0,0,0,0,0,0,0,0,0,0,0,0,0,0,0,0,0,0,0,0h0s0,0,0,0c-.1,0-.2-.2-.3-.3-.6-.4-1.2-.9-1.8-1.3,0,0,0,0,0,0h0s0,0,0,0c-.7-.5-1.4-1-2.2-1.4h0c-.3-.2-.7-.4-1-.6-.2-.1-.4-.2-.6-.3-.4-.3-.9-.5-1.3-.8-.3-.1-.5-.3-.8-.4-.4-.2-.7-.4-1.1-.6-.4-.2-.7-.4-1.1-.6-.3-.2-.7-.4-1-.5-.6-.3-1.2-.6-1.7-.8-.3-.1-.5-.3-.8-.4-.3-.2-.7-.3-1-.5-.5-.2-.9-.4-1.4-.6-.5-.2-1-.4-1.5-.6h0c-18.4-7-39.1-7.2-57.4-.6-10.2,3.7-19.7,9.4-27.5,17.3h0c-1.4,1.3-2.7,2.6-4.1,4.1-1.1,1.1-2.1,2.3-3.2,3.5-1.4,1.6-2.9,3.3-4.3,5-1.9,2.2-3.9,4.5-5.9,6.8h-99.4c3-2.3,6-4.6,9-6.8,6-4.4,12-8.7,18.1-12.8,0,0,0,0,.1,0,5.1-3.4,10.4-6.6,15.6-9.7,1-.6,2-1.1,2.9-1.7,4.5-2.5,9.1-4.9,13.7-7,.7-.3,1.3-.6,2-.9.7-.3,1.4-.6,2.1-.9.5-.2,1-.4,1.5-.6.3-.1.5-.2.8-.3,1.9-.8,3.7-1.6,5.6-2.3,6.8-2.6,13.8-4.8,20.9-6.5,1.5-.4,3.1-.7,4.6-1,7.6-1.5,15.3-2.4,23.2-2.5,11.9-.2,24.2,1.2,36.9,4.7,2.8-.4,5.7-.8,8.5-.9,17-1.1,33.2,2.4,48.7,8.5,2.1.8,4.1,1.7,6.2,2.6.8.3,1.5.7,2.3,1,.3.1.5.2.8.4.4.2.7.3,1.1.5.8.4,1.6.8,2.5,1.2,3.8,1.8,7.6,3.8,11.4,5.9,2.4,1.3,4.9,2.7,7.3,4.1,3.9,2.3,7.7,4.6,11.5,7,1.5.9,3,1.9,4.4,2.8,4.6,2.9,9.1,5.8,13.5,8.7,2.7,1.7,5.3,3.4,7.9,5.1.7.5,1.9,1.1,2.4,1.8Z"/>
            <path class="st1" d="M313.3,339.1h-48.4c-11.2-20.8-20.7-27.7-40.6-34.2-2.8-.9-5.8-1.7-9-2.5,18.3-6.6,39-6.4,57.4.6h0c4.7,1.8,9.2,4.1,13.4,6.8h0c.7.5,1.5.9,2.2,1.4h0s0,0,0,0c2.5,1.7,4.9,3.5,7.2,5.5h0c6.5,5.7,12.1,12.4,16.5,19.8,0,0,0,0,0,0,.5.8.9,1.6,1.2,2.5Z"/>
            <path class="st8" d="M290.5,312.8c.1,0,.3.2.4.3h0c-.1-.1-.3-.2-.4-.3Z"/>
            <g>
              <path class="st7" d="M217.8,292.7c-11,2.8-21.4,7-31,12.8h0c-14.3,8.3-26.4,18.9-39.1,29.1,0,1.3-.2,3.5-.3,4.4h-60.5c13.4-10.1,28.2-20.1,42.8-29.2,0,0,0,0,0,0,12.8-7.9,26.9-13.5,41.5-16.7,15.1-2.7,31.6-5.2,46.5-.4Z"/>
              <path class="st10" d="M146.2,333.7s-.5.4-.5.4c0,0,0,.3,0,.4,0,1.2,0,3.2-.1,4.5h-54.7c2.2-1.6,4.7-3.6,7-5.3h48.3Z"/>
              <path class="st10" d="M164.5,318.7c-1.8,1.7-10.2,8.5-13.8,11.4-10.5,0-35.2,0-48.1,0,5.2-3.9,11.3-8,16.3-11.3h45.6Z"/>
              <path class="st0" d="M112.2,323.3s0,0,0,0c0,0,0,0,0,0h0Z"/>
              <path class="st10" d="M187.2,303.5c-5.8,3.2-12.3,7.8-17.6,11.6-10.5,0-33.5,0-45.2,0,4-2.4,16.2-10,22.1-12,0,0,40.7.4,40.7.4Z"/>
              <path class="st10" d="M213,292.6c-5.5,1.5-13.3,4.7-18.5,7-11.4,0-30.6,0-40.6,0,10.5-3.5,20.3-6.3,31.8-7.3,0,0,27.1.3,27.2.3Z"/>
            </g>
          </g>
          <path class="st9" d="M225.1,258.3c-1-.7-1.4-.8-2.8-.8-2.9,0-4.1,1-6,4.7-1.4,2.7-2.5,3.3-4.4,2.5l-1.1-.5.8-.5c.9-.6,2.1-2.7,2.4-4.2.4-2.2-1.1-4.8-3.1-5.5-2.2-.7-6.1.1-8.3,1.8l-.9.7,2.1,3.6c4.2-2.2,6.3-2.6,7.5-1.2.8.9.8,1.3,0,2.2-.8,1-2.2,1.4-4.2,1.2l-1.6-.2c.5,3,2.1,4.7,2.1,4.7,2.6-.3,4,.2,4.6,1.6.8,1.9,0,3.9-1.8,4.7-2.3,1.1-6.4.4-8-1.3-1-1-2-3.2-2.6-5.4-.3-1-.6-1.9-.7-1.9-.4,0-.2,3.1.2,4.9,1,4.1,3.4,7.1,6.8,8.3,1.2.4,3.4.5,4.8.1,1.4-.4,3.1-2,3.9-3.5.9-1.8.9-4.7,0-6.5l-.6-1.3h1.7c1.6,0,1.8,0,2.6-.8.5-.5,1.2-1.5,1.7-2.3,1.3-2.3,2.2-3.1,3.4-3.1s1.2.1,1.5.3c1.3.7,1.8,4.7.9,6.8-1.3,2.7-4.5,4.2-6.7,3-.9-.5-1.9-1.9-1.9-2.8,0-.5,0-.5-.3.1-.5,1.2-.1,4,.8,5.5,1,1.6,2.3,2.3,4.2,2.3,3.6,0,6-3.1,6.3-8.1.3-4-1-7.5-3.5-9.2ZM223.7,250.9c0,0-.6.3-1.1.7-2.7,2.1-5.1,2.6-7.5,1.4-1.3-.8-2.6-2-3.2-3.3-.5,0,0,2.5.7,3.8,2.5,3.6,5.3,4.1,9.4,2.9,1.7-.6,3.8-2,3.8-2.5-.4-1.2-1.5-2-2.1-3ZM217.4,247.5l-2.7,3c.4,1.1,1.8,1.9,2.8,2.6,1.2-.7,1.9-2,2.9-2.8l-3-2.8Z"/>
        </g>
      </g>
    </g>
  </g>
</svg>