<?xml version="1.0" encoding="UTF-8"?>
<svg xmlns="http://www.w3.org/2000/svg" version="1.1" xmlns:xlink="http://www.w3.org/1999/xlink" viewBox="0 0 968.3 611.9">
  <!-- Generator: Adobe Illustrator 29.8.1, SVG Export Plug-In . SVG Version: 2.1.1 Build 2)  -->
  <defs>
    <style>
      .st0 {
        fill: #fff9f0;
      }

      .st1 {
        fill: #ff7300;
      }

      .st2 {
        fill: #c0322e;
        mix-blend-mode: multiply;
      }

      .st3, .st4 {
        fill: #d64528;
      }

      .st5 {
        fill: url(#radial-gradient);
      }

      .st6 {
        isolation: isolate;
      }

      .st4 {
        opacity: .7;
      }

      .st7 {
        fill: #ba3620;
      }

      .st8 {
        fill: #f3af42;
      }

      .st9 {
        fill: #ff0;
      }

      .st10 {
        fill: #fff8e9;
      }
    </style>
    <radialGradient id="radial-gradient" cx="483" cy="236.5" fx="483" fy="236.5" r="178.7" gradientTransform="translate(16.7 -39.7) rotate(3.7) scale(1 1)" gradientUnits="userSpaceOnUse">
      <stop offset=".8" stop-color="#ffef14"/>
      <stop offset="1" stop-color="#ffcd15"/>
    </radialGradient>
  </defs>
  <g class="st6">
    <g id="Layer_1">
      <g>
        <g>
          <path class="st1" d="M128.3,563.1c-5.1,0-10.7-.2-16.8-.5-6.1-.3-11.7-.6-17-.8-5.3-.2-9.2-.3-11.9-.3s-6.3,0-9.9.1c-3.6,0-7.3.2-11.1.3-3.8.1-7.5.2-10.9.2s-2-.3-2.9-.8c-.9-.5-1.3-1.3-1.3-2.4s.4-2.4,1.2-3.2c.8-.8,2-1.3,3.5-1.6,5.7-1.2,9.6-2.8,11.7-4.7,2.1-1.9,3.1-5.3,3.1-10.2v-104c0-4.9-1-8.4-2.9-10.4-2-2.1-5.9-3.8-11.9-5.2-1.5-.3-2.7-.8-3.5-1.6-.8-.8-1.2-1.8-1.2-3.2s.4-1.9,1.3-2.5,1.9-.9,2.9-.9c3.4,0,7.1,0,10.9.2,3.8.2,7.6.3,11.3.6,3.7.2,7,.3,10,.3s5.5-.1,9.5-.3c3.9-.2,8.1-.5,12.7-.7,4.6-.2,9-.5,13.3-.7,4.3-.2,7.8-.3,10.5-.3,11.4,0,21.9,1.8,31.6,5.4,9.7,3.6,18.2,8.7,25.4,15.4,7.3,6.6,12.9,14.5,17,23.5,4.1,9,6.1,18.9,6.1,29.8s-1.8,20-5.4,29.4c-3.6,9.4-8.9,17.8-15.8,25.2-6.9,7.4-15.3,13.3-25.2,17.5-9.9,4.3-21.3,6.4-34.2,6.4ZM124.9,551.4c10.2,0,18.8-2.6,25.7-7.7,6.9-5.1,12-12.2,15.4-21.3,3.4-9.1,5.1-19.7,5.1-31.7s-1.1-19.5-3.3-27.8c-2.2-8.3-5.3-15.5-9.5-21.4-4.1-6-9.2-10.6-15.3-13.9-6.1-3.3-12.9-4.9-20.6-4.9s-8.8.2-12,.5c-3.2.3-5.7,1.1-7.3,2.3-1.7,1.2-2.5,3.2-2.5,6v99.9c0,5,.9,9,2.8,11.9,1.9,2.9,4.6,5,8.3,6.3,3.7,1.3,8.1,1.9,13.2,1.9Z"/>
          <path class="st1" d="M262.2,563.1c-8.1,0-15.3-2.1-21.7-6.4-6.4-4.3-11.4-10.1-15.1-17.6-3.7-7.4-5.5-15.9-5.5-25.3s2.2-18,6.5-25.8c4.3-7.7,10.3-13.9,17.8-18.5,7.5-4.6,15.8-6.9,24.8-6.9s12.2,1.4,17.3,4.2c5.1,2.8,9.2,6.5,12.3,11.1,3.1,4.7,4.6,9.9,4.6,15.8s-2.3,8.6-7,8.6h-45c-2.1,0-3.6.6-4.6,1.8-1,1.2-1.5,3.2-1.5,6.1,0,5.7,1.3,10.9,3.8,15.6,2.5,4.7,6,8.4,10.4,11.1,4.3,2.7,9.4,4,15.1,4s8.4-.8,12-2.5c3.7-1.6,7.3-3.9,10.9-6.8.6-.4,1.2-.9,1.7-1.2.5-.4,1-.6,1.5-.6,1.5,0,2.3,1,2.3,2.9s-.6,3.9-1.8,6.8c-1.5,3.8-4,7.5-7.5,11.1-3.5,3.7-7.9,6.6-13.2,8.9-5.3,2.3-11.3,3.4-18,3.4ZM251.1,492.9h13.5c4.2,0,7.1,0,8.8-.2,1.6-.1,3.2-.5,4.5-.9.7-.3,1.4-1,1.8-2.2.5-1.2.7-2.5.7-4.1,0-4-1.4-7.3-4.2-9.9-2.8-2.5-6.2-3.8-10.2-3.8s-6.1.9-8.9,2.6c-2.8,1.7-5,4-6.8,6.8-1.7,2.8-2.5,5.7-2.4,8.7,0,2.1,1,3.2,3.1,3.2Z"/>
          <path class="st1" d="M359.8,563.1c-.9,0-1.8-1-2.8-2.9-1-1.9-2.1-4.3-3.3-7-1.2-2.7-2.5-5.7-3.8-9.1-1.3-3.4-2.6-6.4-3.8-9.1-3.8-8.8-7.7-17.5-11.7-25.9-4.1-8.4-8-17-11.9-25.7-1.3-3.3-2.9-6.1-4.7-8.4-1.8-2.3-4.1-3.9-6.8-4.8-1.5-.6-2.6-1.2-3.2-1.9-.6-.7-.9-1.6-.9-2.8s.6-2,1.9-2.3c1.3-.3,2.4-.4,3.5-.4,3.6,0,6.4.1,8.4.3,2,.2,4,.4,6,.7,1.9.2,4.6.3,7.9.3s6-.1,8.4-.3,5-.4,7.7-.7c2.6-.2,5.7-.3,9.1-.3s2.2.2,3.5.7c1.3.4,1.9,1.2,1.9,2.2s-.5,2.3-1.6,2.7c-1.1.4-2.3,1-3.6,1.6-1.5.6-2.7,1.7-3.7,3.4-1,1.7-1.5,3.8-1.5,6.3v3.7c0,1.1.3,2.3.9,3.5l15.1,37.1h.7l13.3-35.6c.6-1.4,1-2.6,1.1-3.8.1-1.2.2-2.3.2-3.4,0-2.7-.6-5-1.7-6.9-1.1-1.9-3-3.3-5.5-4.2-1.4-.4-2.5-.9-3.5-1.5-1-.5-1.5-1.5-1.5-2.8s.6-1.8,1.8-2.2c1.2-.5,2.3-.7,3.4-.7,4.1.1,7.1.3,9.1.4,2,.2,4.2.2,6.4.2s4.4,0,6.5-.2c2.1-.1,5.1-.3,9-.4,1,0,2.2.1,3.5.4,1.3.3,1.9,1.1,1.9,2.2,0,2.1-1.4,3.7-4.3,4.7-2.7.9-5.2,2.6-7.5,5.1-2.3,2.5-4.2,5.4-5.7,8.9l-17.6,44.1c-.3,1.1-.8,2.3-1.5,3.8-.7,1.5-1.3,3-2,4.6-.7,1.6-1.3,3-1.9,4.4-.6,1.4-1.2,2.6-1.8,3.6-.4,1.1-1.2,2.8-2.2,5.2-1.1,2.4-2.1,4.8-3.2,7.2-1.1,2.4-2,4.3-2.9,5.9h-5.2Z"/>
          <path class="st1" d="M438.4,563.1c-4.1,0-7.8-1-11.3-2.9-3.5-2-6.2-4.5-8.2-7.7-2-3.2-3-6.6-3-10.4s1.6-9.4,4.8-12.8c3.2-3.4,8-6.5,14.3-9.2l20-8.8c3-1.4,4.8-2.5,5.5-3.6.7-1,1-3,1-5.9l.2-12.8c.1-4.2-.6-7.5-2.3-10-1.7-2.5-4.1-3.7-7.4-3.7s-3.9.4-5.9,1.2c-2,.8-3.5,1.8-4.5,2.8-.5.6-.8,1.3-1,2.1-.2.8-.3,1.7-.3,2.6s0,2,.2,3.3c.1,1.3.2,2.4.2,3.3s-1.2,2.1-3.6,3.5c-2.4,1.4-5.2,2.7-8.3,3.8-3.2,1.1-5.9,1.7-8.1,1.7s-2-.4-2.8-1.4c-.8-.9-1.2-2-1.2-3.4,0-2.4.8-4.8,2.5-7.1,1.6-2.3,4.4-5,8.1-8,3.9-3.3,8.2-6.2,12.8-8.8,4.6-2.5,9.3-4.6,13.8-6.1,4.6-1.5,8.4-2.2,11.6-2.2,8.1,0,14.6,2.6,19.4,7.8,4.8,5.2,7,12,6.8,20.6l-1.1,45.5c-.2,3.5.5,6.4,1.8,8.8,1.4,2.4,3,3.6,5,3.6,2.8,0,5.3-1,7.4-2.9.4-.4.9-.7,1.3-.7.7,0,1.4.2,1.9.7.5.4.8,1.1.8,1.8,0,1.8-1.3,4.1-4,7-2.9,2.7-5.9,4.8-9,6.2-3.2,1.4-6.5,2.1-9.9,2.1-8.4,0-15.4-4.3-20.9-12.8h-.4c-5,4.5-9.4,7.8-13.4,9.8-4,2-8.2,3-12.7,3ZM451.9,548.4c1.6,0,3-.3,4.1-.8,1-.5,2.1-1.4,3.2-2.6.4-.6.8-1.4,1.1-2.4.3-1,.4-2.1.4-3.5l.7-16.2c0-1.5-.2-2.5-.7-2.9-.4-.4-1-.7-1.6-.7s-.7,0-1.1.2c-.4.2-1,.4-1.6.7-4.4,2.1-7.6,4.2-9.7,6.4-2.1,2.2-3.1,5.7-3.1,10.5s.9,7.3,2.7,8.9c1.8,1.6,3.7,2.4,5.6,2.4Z"/>
          <path class="st1" d="M557.2,563.1c-6.5,0-12.7-.8-18.7-2.3-6-1.5-11.6-3.9-16.9-7.2-.9-.8-1.8-1.6-2.7-2.5-.9-.9-1.6-1.9-2-2.9-1.5-4.1-2.5-9-3-14.9-.5-5.9-.7-11.8-.6-17.8,0-1.1.5-1.8,1.4-2.3.9-.5,1.9-.7,3.1-.7s2.5.2,3,.6c.5.4,1.1,1.1,1.7,2.1,3.3,11.3,8.2,20.4,14.7,27.3,6.5,6.9,14.1,10.4,22.8,10.4s8.7-1.1,11.8-3.3c3.1-2.2,5.4-5,7.1-8.3,1.6-3.4,2.5-6.8,2.5-10.3s-.9-8.9-2.8-12.2c-1.9-3.3-4.7-6.3-8.4-9-3.8-2.7-8.6-5.6-14.4-8.8-6.3-3.6-12.4-7.4-18.2-11.4-5.9-4-10.7-8.8-14.4-14.5-3.8-5.7-5.6-12.8-5.6-21.4s2.3-16.5,6.9-23c4.6-6.5,10.8-11.5,18.8-15.1,7.9-3.6,16.9-5.4,26.8-5.4s11.1.6,16.3,1.8c5.2,1.2,9.3,2.4,12.5,3.6,1.8.8,3.1,1.6,3.9,2.5.8.9,1.5,2.5,2.1,4.7.7,3.2,1.4,7,1.9,11.5.5,4.5.8,9.5.8,14.9s-1.3,2.9-4,2.9-2.6-.3-3.7-1-1.8-1.5-2.1-2.6c-2.6-9-6.3-15.9-11.3-20.5-5-4.7-11-7-18.2-7s-8.3.8-11.5,2.3c-3.2,1.5-5.5,3.8-7.1,6.8-1.6,3-2.4,6.8-2.4,11.3s1.2,7,3.7,10c2.5,3.1,6,6.2,10.7,9.4,4.6,3.2,10,6.5,16,10.1,8.1,4.8,14.6,9.5,19.4,14.2,4.8,4.7,8.3,9.6,10.5,14.8,2.2,5.2,3.3,11.2,3.3,17.9,0,10.2-2.2,18.7-6.6,25.5-4.4,6.8-10.7,11.8-18.7,15-8,3.2-17.4,4.8-28.2,4.8Z"/>
          <path class="st1" d="M669.3,563.1c-8.1,0-15.3-2.1-21.7-6.4-6.4-4.3-11.4-10.1-15.1-17.6-3.7-7.4-5.5-15.9-5.5-25.3s2.2-18,6.5-25.8c4.3-7.7,10.3-13.9,17.8-18.5,7.5-4.6,15.8-6.9,24.8-6.9s12.2,1.4,17.3,4.2c5.1,2.8,9.2,6.5,12.3,11.1,3.1,4.7,4.6,9.9,4.6,15.8s-2.3,8.6-7,8.6h-45c-2.1,0-3.6.6-4.6,1.8-1,1.2-1.5,3.2-1.5,6.1,0,5.7,1.3,10.9,3.8,15.6,2.5,4.7,6,8.4,10.4,11.1,4.3,2.7,9.4,4,15.1,4s8.4-.8,12-2.5c3.7-1.6,7.3-3.9,10.9-6.8.6-.4,1.2-.9,1.7-1.2.5-.4,1-.6,1.5-.6,1.5,0,2.3,1,2.3,2.9s-.6,3.9-1.8,6.8c-1.5,3.8-4,7.5-7.5,11.1-3.5,3.7-7.9,6.6-13.2,8.9-5.3,2.3-11.3,3.4-18,3.4ZM658.2,492.9h13.5c4.2,0,7.1,0,8.8-.2,1.6-.1,3.2-.5,4.5-.9.7-.3,1.4-1,1.8-2.2.5-1.2.7-2.5.7-4.1,0-4-1.4-7.3-4.2-9.9-2.8-2.5-6.2-3.8-10.2-3.8s-6.1.9-8.9,2.6c-2.8,1.7-5,4-6.8,6.8-1.7,2.8-2.5,5.7-2.4,8.7,0,2.1,1,3.2,3.1,3.2Z"/>
          <path class="st1" d="M764.9,563.1c-9.9,0-17.3-2.5-22.3-7.5-4.9-5-7.4-12.1-7.4-21.3v-51.8c0-1.4-.5-2.3-1.5-2.9-1-.6-2.8-1-5.5-1.1h-2.9c-1.1,0-1.9-.9-2.6-2.6-.7-1.7-1-3.3-1-4.6s.1-.7.3-1.2c.2-.5.6-.9,1-1,3.6-1.3,7.5-3.4,11.6-6.2,4.1-2.8,8.1-5.7,11.9-8.9,3.8-3.2,6.9-5.8,9.3-7.9,1-.7,1.9-1.4,2.7-2,.7-.6,1.7-.9,2.9-.9s2.3.3,2.9.8c.6.5.7,1.8.4,3.7l-1.3,13.3c-.2,1.8.3,3,1.2,3.7,1,.7,2.4,1,4.2,1h26.8c.4,0,.9.5,1.3,1.6.5,1.1.7,2,.7,2.9,0,2.1-.3,4.1-.9,6.1-.6,2-1.3,2.9-2,2.9h-20.9c-3.5,0-5.8.4-7.1,1.2-1.3.8-1.9,2.3-1.9,4.4v42.5c0,6.9,1.3,12,3.9,15.4,2.6,3.4,6.1,5.1,10.5,5.1s7.5-.4,9.6-1.4c2-.9,3.9-1.6,5.5-2.2.6-.3,1-.4,1.4-.4.7,0,1.3.4,1.8,1.3.4.9.7,2,.7,3.2s-1.6,2.6-4.7,5c-3.1,2.4-7.2,4.7-12.3,6.8-5,2.1-10.5,3.2-16.3,3.2Z"/>
          <path class="st1" d="M877.9,563.1c-1.2,0-1.8-.8-1.8-2.2s.2-4.2.6-7.2c.4-3,.6-5.3.6-7s0-1.1-.1-1.6c0-.4-.2-.7-.3-.9-4.1,5-9.2,9.1-15.5,12.5-6.3,3.4-13,5.1-20,5.1s-8.9-1.4-12.6-4.2c-3.8-2.8-6.7-6.6-8.9-11.4-2.2-4.8-3.3-10.2-3.3-16.2v-42.1c0-3.5-.6-6.2-1.9-8.3-1.3-2.1-3.6-3.5-7.1-4.3-.9-.1-1.7-.6-2.4-1.2-.7-.7-1-1.7-1-3s.3-1.9.9-2.6c.6-.7,1.4-1.1,2.5-1.2,6.3-.3,12-.9,17.1-1.9,5.1-1,10.3-2.1,15.5-3.5.7-.1,1.5-.3,2.4-.6.8-.2,1.6-.3,2.4-.3,2.1,0,3.1,1.1,2.9,3.2-.6,3.5-1.1,6.3-1.3,8.7-.3,2.3-.5,5.2-.5,8.7v43.2c0,3.6.6,6.8,1.8,9.5,1.2,2.7,2.8,4.8,5,6.3,2.1,1.5,4.4,2.3,7,2.5,2.4,0,4.8-.3,7.1-.9,2.3-.6,4.5-1.9,6.6-4,.9-.7,1.9-2.3,2.9-4.6,1-2.3,1.6-5.4,1.6-9.3v-36.2c0-2.7-.5-4.9-1.6-6.6-1.1-1.7-2.5-3.1-4.3-4.2-1.8-1-3.9-1.7-6.3-1.8-1.7-.1-3-.6-3.9-1.2-1-.7-1.5-1.9-1.5-3.7s.5-2.6,1.6-3.4c1-.7,2.3-1.1,3.8-1.1,7.7-.4,13.7-.9,18.2-1.2,4.5-.4,8.2-.8,11-1.2,2.8-.4,5.7-1,8.6-1.6.4-.1,1-.3,1.6-.4.6-.1,1-.2,1.3-.2,2.3,0,3.4.9,3.4,2.7s0,1-.2,1.6c-.2.6-.4,1.2-.7,1.8-.2.6-.3,1.9-.6,3.9-.2,2-.5,4.2-.7,6.4-.2,2.2-.3,4-.3,5.4v52.2c0,3.5.4,5.7,1.2,6.9.8,1.1,1.8,1.7,2.8,1.7s1.9,0,3.4.1c1.5,0,2.5.1,2.9.1,1.4,0,2.4.4,3.2,1.1.7.8,1.1,1.7,1.1,2.9s-.3,2.4-.8,3.3c-.5.8-1.5,1.3-3,1.5-7.2.6-13.7,1.8-19.5,3.7-5.8,1.9-10.8,3.6-15,5.3-.9.3-1.9.6-2.9,1-1.1.4-2,.6-2.9.6Z"/>
        </g>
        <g>
          <g>
            <path class="st1" d="M510.9,113.5h0s-.3.2-.7.5c-1.9,1.2-7.5,4-14.5-.2-6.3-3.7-10,.4-10.9,1.7,0,0,0,0,0,0h0c-.1.2-.2.3-.2.3v-13s0,0,.2-.2c1.1-.8,6-3.9,11.8-.2,8.1,5.4,12.6,2.4,15.1-.7-.1.4-2.2,6.9-8,8.4,0,0,2.6,4.8,7.2,3.3h0Z"/>
            <g>
              <path class="st3" d="M484.6,101.4c0-.2-.2-.4-.4-.4s-.4.2-.4.4v24.3c0,.2.2.4.4.4s.4-.2.4-.4v-24.3Z"/>
              <path class="st3" d="M510.2,114c-1.9,1.2-7.5,4-14.5-.2-6.3-3.7-10,.4-10.9,1.7.3-.6,4.5-10,16.2-3.4,5.6,2.7,8.2,2.4,9.2,1.9h0Z"/>
            </g>
          </g>
          <path class="st9" d="M373,336.9c2.3,2.3,4.6,4.5,7,6.7-7.8,3.5-15.4,7.5-22.9,11.8-1.8-1.8-3.6-3.7-5.3-5.5,5.9-3.9,11.9-7.6,17.9-11.1,1.1-.6,2.2-1.3,3.4-1.9Z"/>
          <path class="st9" d="M615.1,351.5c-2.9,3.1-5.9,6-9,8.9-7.5-4.4-15.1-8.6-22.9-12.3,3.6-3,7-6.1,10.3-9.4,2.8,1.5,5.6,3.1,8.3,4.7,4.5,2.6,8.9,5.3,13.2,8Z"/>
          <path class="st5" d="M664.2,228.9c0,47.8-18.7,91.3-49.1,123.5-4.4-2.7-8.8-5.4-13.2-8-2.8-1.6-5.5-3.2-8.3-4.7-4.3-2.4-8.6-4.6-13-6.8-.9-.4-1.9-.9-2.8-1.3-.4-.2-.8-.4-1.2-.6-.3-.1-.6-.3-.9-.4-.9-.4-1.7-.8-2.6-1.2,28.6-24.8,46.7-61.5,46.7-102.3,0-74.8-60.7-135.5-135.5-135.5s-135.5,60.7-135.5,135.5,17.3,75.8,44.7,100.6c-.8.3-1.6.7-2.4,1.1-.8.4-1.5.7-2.3,1.1-5.3,2.5-10.5,5.2-15.7,8-1.1.6-2.3,1.3-3.4,1.9-6,3.5-12,7.2-17.9,11.1-29.6-32.1-47.6-74.9-47.6-122,0-99.4,80.6-180.1,180.1-180.1s180.1,80.6,180.1,180.1Z"/>
          <path class="st9" d="M393.4,326.8c.6.5,1.1,1,1.7,1.5-1.6.7-3.2,1.4-4.8,2.1-.5-.5-1.1-1-1.6-1.5.8-.4,1.5-.7,2.3-1.1.8-.4,1.6-.7,2.4-1.1Z"/>
          <path class="st9" d="M577.7,330.6c-1.4,1.3-2.9,2.5-4.3,3.7-1.6-.8-3.2-1.5-4.8-2.2,1.5-1.2,2.9-2.4,4.4-3.6.9.4,1.7.8,2.6,1.2.3.1.6.3.9.4.4.2.8.4,1.2.6Z"/>
          <g>
            <path class="st1" d="M566.5,332.3c-16.1-7.2-32.8-12.1-50.3-12.8-12.1.5-18.2.9-22.7,1.1-.1,0-.2,0-.3,0-3,.1-5.2,0-8.1-.2-1.2-.1-2.5-.3-4.1-.5-1.5-.2-3.1-.4-5-.7-4.1-.6-9.4-1.5-16.8-2.6-2.2-.3-4.5-.7-7.1-1.1-6.9.3-13.7,1-20.3,2.2,0,0-.5,0-1.3.3-4.8,1.1-21.6,5.5-28.3,8.1,0-.9.2-1.9.3-3,3.2-31.3,13.2-100.7,41.2-125.1,0,0,.1,0,.2-.1.6-.5,1.3-1.1,1.9-1.6.7-.5,1.3-1,2-1.4s1.3-.9,2-1.3c.7-.4,1.4-.8,2.1-1.1,0,0,0,0,0-.1-.1-.2-.2-.4-.3-.7h0c-2-5.1-.9-10.9,2.7-14.9.2-.2.3-.3.5-.5.2-.2.3-.3.5-.5h0c.4-.4.9-.8,1.3-1.1,1.2-1.1,2.4-1.9,3.1-2.3h0s0,0,0-.1c-.2-2.4-3-11.9,9.9-18.6.3-.2.7-.3,1-.5.1,0,.2-.1.3-.2.4-.3.7-.6,1-1,.2-.4.4-.9.4-1.4,0-.6-.1-1.2-.5-1.7-2.1-3.3-3.2-6.9.2-10,1.3-1.1,3.1-2.2,5.7-3.1h0c0-2.2-.4-4.6.6-6.6.5-1,1.3-1.8,2.3-2.4.9-.5,2.6-2.4,3.3-3.2.1-.2.4-.2.5,0,.8.8,2.3,2.6,3.3,3.2.9.6,1.7,1.4,2.3,2.4,1,2,.6,4.3.6,6.5h0c2.6,1.1,4.5,2.1,5.7,3.3,3.5,3.1,2.4,6.7.2,10-.3.5-.5,1.1-.5,1.7,0,0,0,.1,0,.2,0,.1,0,.2,0,.4,0,0,0,0,0,.2,0,0,0,.1,0,.2,0,0,0,0,0,.2,0,.1.1.2.2.4,0,.1.2.3.3.4,0,0,0,0,.1.1.2.2.4.3.6.5,0,0,.2.1.3.2.4.2.7.3,1,.5,12.9,6.7,10.2,16.2,9.9,18.6h0s0,0,0,.1c.4.2.8.5,1.3.9.9.6,1.9,1.5,3,2.5.3.3.7.6,1,1,2.4,2.7,3.7,6.1,3.7,9.6s-.3,3.5-1,5.2h0c0,.2-.2.4-.3.7,0,0,0,.1,0,.1.6.3,1.2.6,1.7.9,1.2.7,2.3,1.4,3.4,2.2.7.5,1.3,1,1.9,1.5.3.3.6.5.9.8h.2c0,.1,0,.1,0,.1,28.8,25.1,38.6,97.7,41.5,127.6.3,2.6.4,4.8.6,6.7Z"/>
            <path class="st4" d="M513.9,176.7c-9.3-3.6-19.3-5.6-29.9-5.6s-20.6,2-29.9,5.6c.2-.2.3-.3.5-.5.2-.2.3-.3.5-.5h0c.4-.4.9-.8,1.3-1.1,1.3-1.1,2.4-1.9,3.1-2.2h0c0,0,0,0,0-.1,7.7-2.4,16-3.7,24.6-3.7s16.8,1.3,24.5,3.7c0,0,0,0,0,.1h0c.4.2.8.5,1.3.9.9.6,1.9,1.5,3,2.5.3.3.7.6,1,1Z"/>
            <path class="st4" d="M497.3,153c-4.3-.5-8.8-.8-13.3-.8s-8.9.3-13.3.8c.4-.3.7-.6,1-1,4-.5,8.1-.7,12.3-.7s8.3.2,12.3.7c0,.1.2.3.3.4,0,0,0,0,.1.1.2.2.4.3.6.5Z"/>
            <path class="st4" d="M524.3,197.8c-12.3-5.5-25.9-8.5-40.2-8.5s-11.5.5-17,1.5c0,0-.1,0-.2,0-.5,0-.9.2-1.4.3-3.8.7-7.5,1.7-11.1,2.8-3.6,1.1-7.1,2.5-10.6,4,.6-.5,1.3-1.1,1.9-1.6.7-.5,1.3-1,2-1.4s1.3-.9,2-1.3c.7-.4,1.4-.8,2.1-1.1h0s0,0,0-.2c-.1-.2-.2-.4-.3-.7,10.2-3.6,21.2-5.5,32.6-5.5s22.4,1.9,32.6,5.5c0,.2-.2.4-.3.7,0,0,0,.1,0,.1h0c.6.3,1.1.6,1.7.9,1.2.7,2.3,1.4,3.4,2.2.7.5,1.3,1,1.9,1.5.3.3.6.5.9.8Z"/>
            <path class="st4" d="M467.1,190.7c-1.1,1.7-2.6,4-3.3,5.1-.8,1.3-3.2,5.3-4,6.7-1.4,2.6-3.7,6.4-5,9.1v.2c0,0-2.4,4.4-2.4,4.4-.8,1.6-2.6,5.5-3.3,7-.6,1.5-2.4,5.6-3,7.1-.6,1.6-2.1,5.7-2.7,7.2-.5,1.5-1.9,5.7-2.5,7.3l-1.5,4.9c-.9,2.8-1.9,7.1-2.6,9.9-1.1,4.9-2.1,10.2-2.9,15.1-.4,2.8-.8,6.1-1.2,8.9-.3,3.5-.8,8-.9,11.5-.2,3-.3,7.2-.3,10.3,0,2.9,0,5.8.1,8.8,0,.9,0,1.8.1,2.7,0,.2,0,.4,0,.6-1.8.3-3.6.7-5.3,1.1-.1-2.2-.2-4.4-.2-6.6,0-.9,0-1.8,0-2.6,0-19.7,3-39.4,8.8-58.2.5-1.6,1.9-5.8,2.5-7.5l1.9-4.9c1-2.8,2.9-6.9,4-9.7,1.3-2.6,3.2-6.9,4.6-9.4l2.5-4.6c.5-.9,1.7-3,2.7-4.7.5-.9,1-1.6,1.2-2.1,1-1.5,3.3-5,4.2-6.6,1.7-2.3,4.3-6.2,6.1-8.5l2-2.6h0c0,0,.1,0,.2,0Z"/>
            <path class="st2" d="M468,189.3c-.2.4-.6.9-.9,1.4,0,0-.1,0-.2,0l1.1-1.5Z"/>
            <path class="st4" d="M510.2,319.4c-5.5-.3-11.2,0-16.9,1.2-12.1-4.1-23.8-5.7-35.1-5.1,0-26.3,6.2-82.4,25.7-103.9,18.7,23.1,26.3,62.8,26.3,107.9Z"/>
          </g>
          <g>
            <path class="st3" d="M647.6,372.5h-49.4c0-.3-.2-.5-.3-.8-.2-.4-.3-.8-.6-1.2l-.2-.4c-.1-.2-.2-.4-.4-.6,0,0,0,0,0,0-.6-1.1-1.3-2.1-2-3.1-.4-.6-.8-1.2-1.2-1.8h0c-1-1.4-2-2.9-3.1-4.3-.1-.2-.2-.3-.4-.5-.1-.1-.2-.3-.3-.4,0-.1-.2-.2-.3-.4-.3-.3-.5-.6-.8-.9-1-1.2-2-2.4-3-3.5,0,0-.1-.1-.2-.2,0-.1-.2-.2-.3-.3-.2-.2-.4-.4-.6-.6-.1-.1-.2-.3-.4-.4-.4-.4-.7-.8-1.1-1.2-.4-.4-.9-.9-1.3-1.3-.6-.6-1.2-1.1-1.8-1.7-.3-.3-.7-.6-1-.9-.4-.4-.9-.8-1.3-1.1h0c-.4-.4-.8-.7-1.2-1-.4-.3-.8-.7-1.2-1-.3-.2-.5-.4-.8-.6-.3-.2-.5-.4-.8-.6-.4-.3-.7-.6-1.1-.8,0,0-.2-.1-.2-.2h0s0,0,0,0c0,0,0,0,0,0,0,0,0,0,0,0,0,0,0,0,0,0,0,0,0,0,0,0,0,0,0,0,0,0h0s0,0,0,0c-.1,0-.3-.2-.4-.3-.7-.5-1.4-1-2.1-1.5,0,0,0,0,0,0h0s0,0,0,0c-.8-.6-1.7-1.1-2.5-1.6h0c-.4-.2-.8-.5-1.2-.7-.2-.1-.4-.3-.7-.4-.5-.3-1-.6-1.5-.9-.3-.2-.6-.3-.9-.5-.4-.2-.9-.5-1.3-.7-.4-.2-.8-.4-1.3-.7-.4-.2-.8-.4-1.2-.6-.7-.3-1.3-.7-2-.9-.3-.2-.6-.3-.9-.4-.4-.2-.8-.4-1.2-.5-.5-.2-1.1-.5-1.6-.7-.6-.2-1.1-.5-1.7-.7h0c-21-8.1-44.8-8.2-65.7-.7-11.7,4.2-22.5,10.8-31.5,19.8h0c-1.6,1.5-3.1,3-4.7,4.7-1.2,1.3-2.5,2.6-3.7,4-1.6,1.8-3.3,3.7-4.9,5.7-2.2,2.5-4.4,5.2-6.7,7.8h-113.9c3.4-2.6,6.8-5.3,10.3-7.8,6.8-5.1,13.7-10,20.8-14.7,0,0,0,0,.1,0,5.9-3.9,11.9-7.6,17.9-11.1,1.1-.6,2.2-1.3,3.4-1.9,5.2-2.9,10.4-5.6,15.7-8,.8-.4,1.5-.7,2.3-1.1.8-.4,1.6-.7,2.4-1.1.6-.2,1.1-.5,1.7-.7.3-.1.6-.3.9-.4,2.1-.9,4.3-1.8,6.5-2.6,7.8-3,15.8-5.5,23.9-7.4,1.8-.4,3.5-.8,5.3-1.2,8.7-1.7,17.6-2.7,26.6-2.9,13.7-.3,27.7,1.4,42.2,5.4,3.3-.5,6.5-.9,9.7-1.1,19.5-1.3,38,2.8,55.8,9.7,2.4.9,4.7,1.9,7.1,2.9.9.4,1.7.8,2.6,1.2.3.1.6.3.9.4.4.2.8.4,1.2.6.9.4,1.9.9,2.8,1.3,4.4,2.1,8.7,4.4,13,6.8,2.8,1.5,5.6,3.1,8.3,4.7,4.5,2.6,8.9,5.3,13.2,8,1.7,1.1,3.4,2.1,5.1,3.2,5.2,3.3,10.4,6.7,15.5,10,3,2,6.1,3.9,9.1,5.8.8.6,2.1,1.3,2.8,2Z"/>
            <path class="st1" d="M598.2,372.5h-55.4c-12.9-23.9-23.7-31.8-46.5-39.1-3.2-1-6.7-2-10.3-2.8,21-7.5,44.7-7.3,65.7.7h0c5.4,2.1,10.5,4.7,15.4,7.7h0c.8.5,1.7,1.1,2.5,1.6h0s0,0,0,0c2.8,2,5.6,4,8.2,6.3h0c7.4,6.5,13.9,14.2,18.9,22.6,0,0,0,0,0,0,.6.9,1,1.8,1.4,2.9Z"/>
            <path class="st8" d="M572.1,342.3c.1.1.3.2.5.3h0c-.1-.1-.3-.2-.5-.3Z"/>
            <g>
              <path class="st7" d="M488.9,319.4c-12.6,3.2-24.5,8-35.5,14.7h0c-16.3,9.5-30.2,21.6-44.8,33.3,0,1.5-.2,4-.3,5.1h-69.3c15.4-11.6,32.4-23,49-33.5,0,0,0,0,0,0,14.6-9,30.8-15.5,47.6-19.1,17.3-3.1,36.3-6,53.3-.5Z"/>
              <path class="st10" d="M406.8,366.4s-.5.4-.6.5c0,0,0,.4,0,.5,0,1.3-.1,3.7-.1,5.2h-62.7c2.5-1.9,5.4-4.1,8-6.1h55.4Z"/>
              <path class="st10" d="M427.8,349.2c-2,1.9-11.7,9.8-15.8,13-12,0-40.4,0-55.1,0,6-4.4,13-9.1,18.6-13h52.3Z"/>
              <path class="st0" d="M367.8,354.4s0,0,0,0c0,0,0,0,0,0h0Z"/>
              <path class="st10" d="M453.8,331.7c-6.6,3.7-14.1,9-20.1,13.3-12,0-38.4,0-51.8,0,4.6-2.8,18.5-11.5,25.3-13.7,0,0,46.6.5,46.6.5Z"/>
              <path class="st10" d="M483.3,319.3c-6.3,1.7-15.3,5.4-21.2,8.1-13.1,0-35.1,0-46.5,0,12.1-4,23.3-7.2,36.5-8.4,0,0,31.1.4,31.2.4Z"/>
            </g>
          </g>
          <path class="st9" d="M497.2,279.9c-1.1-.8-1.7-.9-3.2-.9-3.3,0-4.7,1.1-6.9,5.4-1.6,3.1-2.9,3.8-5,2.8l-1.3-.6.9-.6c1.1-.7,2.4-3.1,2.7-4.8.5-2.5-1.2-5.6-3.5-6.3-2.5-.8-7,.1-9.5,2.1l-1,.8,2.4,4.1c4.8-2.6,7.2-2.9,8.5-1.4.9,1.1.9,1.5.1,2.5-.9,1.1-2.6,1.6-4.8,1.4l-1.9-.2c.6,3.5,2.4,5.4,2.4,5.4,3-.4,4.6.2,5.3,1.9.9,2.2,0,4.4-2,5.4-2.7,1.2-7.3.4-9.2-1.5-1.1-1.2-2.3-3.6-3-6.2-.3-1.2-.7-2.2-.8-2.2-.4,0-.3,3.5.2,5.7,1.1,4.7,3.9,8.1,7.8,9.5,1.4.5,3.9.6,5.5.1,1.6-.4,3.6-2.3,4.5-4.1,1-2,1-5.4,0-7.4l-.7-1.4h2c1.8,0,2.1,0,3-.9.6-.5,1.4-1.7,1.9-2.6,1.5-2.6,2.6-3.6,3.9-3.6s1.4.1,1.7.3c1.5.8,2.1,5.4,1,7.8-1.5,3.1-5.1,4.8-7.7,3.5-1-.5-2.2-2.2-2.2-3.2,0-.5,0-.5-.3.2-.6,1.4-.1,4.6.9,6.3,1.2,1.9,2.6,2.6,4.9,2.6,4.1,0,6.9-3.5,7.3-9.3.3-4.6-1.2-8.6-4-10.6ZM495.6,271.4c0,0-.6.3-1.3.8-3,2.4-5.8,3-8.6,1.6-1.5-.9-2.9-2.3-3.6-3.8-.6,0,0,2.8.8,4.3,2.8,4.1,6,4.7,10.8,3.3,1.9-.7,4.3-2.3,4.3-2.9-.4-1.3-1.7-2.3-2.5-3.4ZM488.4,267.6l-3.1,3.4c.5,1.3,2.1,2.2,3.2,3,1.3-.8,2.2-2.3,3.4-3.2l-3.4-3.2Z"/>
        </g>
      </g>
    </g>
  </g>
</svg>