<?xml version="1.0" encoding="UTF-8"?>
<svg xmlns="http://www.w3.org/2000/svg" version="1.1" xmlns:xlink="http://www.w3.org/1999/xlink" viewBox="0 0 821.7 759.7">
  <!-- Generator: Adobe Illustrator 29.8.1, SVG Export Plug-In . SVG Version: 2.1.1 Build 2)  -->
  <defs>
    <style>
      .st0 {
        fill: #fff9f0;
      }

      .st1 {
        fill: #ff7300;
      }

      .st2 {
        fill: #c0322e;
        mix-blend-mode: multiply;
      }

      .st3, .st4 {
        fill: #d64528;
      }

      .st5 {
        fill: url(#radial-gradient);
      }

      .st6 {
        isolation: isolate;
      }

      .st4 {
        opacity: .7;
      }

      .st7 {
        fill: #ba3620;
      }

      .st8 {
        fill: #f3af42;
      }

      .st9 {
        fill: #ff0;
      }

      .st10 {
        fill: #fff8e9;
      }
    </style>
    <radialGradient id="radial-gradient" cx="407.9" cy="425.5" fx="407.9" fy="425.5" r="314.2" gradientTransform="translate(29.1 -42) rotate(3.7) scale(1 1)" gradientUnits="userSpaceOnUse">
      <stop offset=".8" stop-color="#ffef14"/>
      <stop offset="1" stop-color="#ffcd15"/>
    </radialGradient>
  </defs>
  <g class="st6">
    <g id="Layer_1">
      <g>
        <g>
          <path class="st1" d="M456.9,209.2h0c0,0-.5.4-1.1.8-3.3,2.1-13.2,7-25.5-.3-11-6.6-17.6.8-19.2,3,0,0,0,0,0,0h0c-.3.3-.4.6-.4.6v-22.9s.1-.1.4-.3c1.9-1.4,10.6-6.9,20.7-.3,14.3,9.4,22.2,4.2,26.6-1.1-.2.7-3.8,12.1-14.1,14.7,0,0,4.5,8.4,12.7,5.8h0Z"/>
          <g>
            <path class="st3" d="M410.8,188c0-.4-.3-.8-.8-.8s-.8.3-.8.8v42.8c0,.4.3.8.8.8s.8-.3.8-.8v-42.8Z"/>
            <path class="st3" d="M455.7,210.1c-3.3,2.1-13.2,7-25.5-.3-11-6.6-17.6.8-19.2,3,.5-1.1,7.9-17.6,28.4-6.1,9.8,4.7,14.3,4.2,16.2,3.4h0Z"/>
          </g>
        </g>
        <path class="st9" d="M214.5,602c4,4,8,8,12.3,11.8-13.7,6.2-27.1,13.2-40.3,20.8-3.2-3.2-6.3-6.4-9.3-9.7,10.3-6.8,20.9-13.4,31.5-19.5,2-1.1,3.9-2.2,5.9-3.3Z"/>
        <path class="st9" d="M640.2,627.5c-5.1,5.4-10.4,10.6-15.8,15.6-13.2-7.7-26.6-15-40.3-21.6,6.3-5.2,12.4-10.7,18.2-16.4,4.9,2.7,9.8,5.5,14.7,8.3,7.8,4.6,15.6,9.3,23.3,14.1Z"/>
        <path class="st5" d="M726.5,412.1c0,84.1-32.8,160.5-86.3,217.2-7.7-4.8-15.4-9.5-23.3-14.1-4.8-2.8-9.7-5.6-14.7-8.3-7.6-4.2-15.2-8.2-22.9-11.9-1.7-.8-3.3-1.6-4.9-2.3-.7-.4-1.4-.7-2.2-1-.5-.2-1-.5-1.6-.7-1.5-.7-3.1-1.4-4.6-2,50.3-43.7,82-108.1,82-179.9,0-131.6-106.7-238.2-238.2-238.2s-238.2,106.7-238.2,238.2,30.3,133.3,78.6,176.8c-1.4.6-2.8,1.2-4.1,1.9-1.4.6-2.7,1.2-4.1,1.9-9.3,4.4-18.5,9.1-27.6,14.1-2,1.1-4,2.2-5.9,3.3-10.6,6.1-21.1,12.6-31.5,19.5-51.9-56.4-83.7-131.7-83.7-214.4,0-174.8,141.7-316.5,316.5-316.5s316.5,141.7,316.5,316.5Z"/>
        <path class="st9" d="M250.3,584.1c1,.9,2,1.8,3,2.7-2.8,1.2-5.6,2.4-8.4,3.7-1-.9-1.9-1.7-2.8-2.6,1.4-.6,2.7-1.3,4.1-1.9,1.4-.6,2.8-1.3,4.1-1.9Z"/>
        <path class="st9" d="M574.4,590.9c-2.5,2.2-5,4.4-7.6,6.5-2.8-1.3-5.6-2.6-8.4-3.9,2.6-2.1,5.2-4.2,7.7-6.4,1.5.7,3.1,1.4,4.6,2,.5.2,1,.5,1.6.7.7.3,1.4.7,2.2,1Z"/>
        <g>
          <path class="st1" d="M554.8,593.7c-28.2-12.6-57.6-21.3-88.4-22.6-21.3.8-32.1,1.7-39.9,2-.2,0-.4,0-.6,0-5.2.2-9.1.2-14.2-.3-2.1-.2-4.5-.5-7.2-.8-2.6-.3-5.5-.8-8.8-1.3-7.2-1.1-16.5-2.6-29.6-4.7-3.8-.6-8-1.2-12.5-1.9-12.1.5-24,1.8-35.8,3.9,0,0-.9.1-2.4.5-8.5,2-37.9,9.7-49.8,14.2.2-1.7.3-3.4.5-5.2,5.6-55.1,23.2-177,72.5-219.9,0,0,.2-.2.3-.3,1.1-1,2.2-1.9,3.4-2.7,1.1-.9,2.3-1.7,3.5-2.5,1.2-.8,2.4-1.5,3.6-2.2,1.2-.7,2.4-1.4,3.7-2,0,0,0-.1-.1-.3-.2-.4-.3-.8-.5-1.2h0c-3.6-8.9-1.7-19.1,4.8-26.2.3-.3.6-.6.8-.9.3-.3.6-.6.9-.9h0c.8-.7,1.5-1.4,2.3-2,2.2-1.9,4.1-3.4,5.4-4h0c0,0,0-.1,0-.2-.4-4.2-5.3-20.9,17.5-32.6.6-.3,1.2-.6,1.8-.9.2,0,.4-.2.6-.3.7-.4,1.3-1.1,1.7-1.8.4-.7.6-1.6.7-2.4,0-1-.2-2-.8-2.9-3.8-5.8-5.7-12.1.4-17.6,2.2-2,5.5-3.8,10-5.5v-.2c0-3.7-.7-7.9,1-11.4.9-1.8,2.3-3.2,4-4.2,1.5-.9,4.6-4.3,5.8-5.6.3-.3.7-.3.9,0,1.4,1.5,4.1,4.6,5.8,5.6,1.7,1,3.1,2.4,4,4.2,1.8,3.5,1,7.6,1,11.4v.2c4.6,1.7,7.8,3.5,10,5.5,6.1,5.5,4.1,11.8.4,17.6-.6.9-.8,1.9-.8,2.9,0,.1,0,.2,0,.3,0,.2,0,.4.1.6,0,0,0,.2,0,.3,0,0,0,.2,0,.3,0,0,0,.2.1.3,0,.2.2.4.3.6.1.2.3.5.5.7,0,0,.1.2.2.3.3.3.6.6,1,.8.2.1.4.2.6.3.6.3,1.2.6,1.8.9,22.7,11.7,17.9,28.5,17.5,32.6h0c0,0,0,.1,0,.2.6.3,1.4.8,2.3,1.5,1.5,1.1,3.4,2.7,5.3,4.5.6.5,1.2,1.1,1.7,1.7,4.3,4.7,6.6,10.8,6.6,16.9s-.6,6.2-1.8,9.2h0c-.2.4-.3.8-.5,1.2,0,.1-.1.2-.1.3,1,.5,2,1,3,1.6,2,1.1,4,2.4,5.9,3.8,1.2.8,2.3,1.7,3.4,2.6.6.5,1.1.9,1.7,1.4l.3.2s0,0,0,0c50.7,44.1,67.9,171.7,72.9,224.3.4,4.5.8,8.5,1,11.8Z"/>
          <path class="st4" d="M462.3,320.3c-16.3-6.3-34-9.8-52.5-9.8s-36.3,3.5-52.6,9.8c.3-.3.6-.6.8-.9.3-.3.6-.6.9-.9h0c.8-.7,1.5-1.4,2.3-2,2.2-1.9,4.1-3.4,5.4-3.9h0c0,0,0-.2,0-.2,13.6-4.2,28.1-6.5,43.2-6.5s29.5,2.3,43.1,6.5c0,0,0,.1,0,.2h0c.6.3,1.4.8,2.3,1.5,1.5,1.1,3.4,2.7,5.3,4.5.6.5,1.2,1.1,1.7,1.7Z"/>
          <path class="st4" d="M433.1,278.6c-7.6-.9-15.4-1.4-23.3-1.4s-15.7.5-23.3,1.4c.7-.4,1.3-1.1,1.7-1.8,7.1-.8,14.3-1.2,21.6-1.2s14.5.4,21.6,1.2c.1.2.3.5.5.7,0,0,.1.2.2.3.3.3.6.6,1,.8Z"/>
          <path class="st4" d="M480.5,357.4c-21.6-9.6-45.5-15-70.7-15s-20.2.9-29.9,2.6c-.1,0-.2,0-.4,0-.8.1-1.7.3-2.5.4-6.6,1.3-13.1,2.9-19.5,4.9-6.3,2-12.5,4.3-18.6,7,1.1-1,2.2-1.9,3.4-2.8,1.1-.9,2.3-1.7,3.5-2.5,1.2-.8,2.4-1.5,3.6-2.2,1.2-.7,2.4-1.4,3.7-2h0s0-.1-.1-.3c-.2-.4-.3-.8-.5-1.2,17.9-6.3,37.2-9.7,57.3-9.7s39.4,3.4,57.3,9.7c-.2.4-.3.8-.5,1.2,0,.1,0,.2-.1.3h0c1,.5,2,1,3,1.6,2,1.1,4,2.4,5.9,3.8,1.2.8,2.3,1.7,3.4,2.6.6.5,1.1.9,1.7,1.4Z"/>
          <path class="st4" d="M379.9,344.9c-2,3-4.6,7-5.9,9-1.4,2.3-5.6,9.3-7.1,11.7-2.5,4.6-6.4,11.3-8.7,16l-.2.3-4,7.8c-1.3,2.8-4.5,9.6-5.8,12.4-1.1,2.6-4.1,9.9-5.3,12.5-1.1,2.9-3.8,9.9-4.8,12.7-.9,2.7-3.4,10.1-4.3,12.9l-2.6,8.7c-1.5,4.9-3.3,12.4-4.6,17.5-2,8.5-3.8,17.9-5.1,26.6-.8,5-1.4,10.7-2.1,15.7-.5,6.1-1.4,14.1-1.6,20.2-.4,5.3-.5,12.7-.5,18,0,5.1,0,10.3.2,15.4,0,1.6.1,3.2.2,4.8,0,.4,0,.7,0,1.1-3.1.6-6.3,1.2-9.4,1.9-.2-3.9-.3-7.8-.3-11.7,0-1.5,0-3.1,0-4.6,0-34.6,5.3-69.3,15.5-102.4.9-2.8,3.4-10.2,4.4-13.1l3.3-8.6c1.8-4.9,5.1-12.2,7.1-17,2.2-4.6,5.6-12,8.1-16.5l4.3-8.1c.9-1.6,3.1-5.2,4.8-8.2.9-1.5,1.7-2.9,2.2-3.7,1.7-2.7,5.7-8.9,7.4-11.6,2.9-4.1,7.6-11,10.7-14.9l3.6-4.6h0c.1,0,.2,0,.4,0Z"/>
          <path class="st2" d="M381.5,342.4c-.4.7-1,1.5-1.6,2.5-.1,0-.3,0-.4,0l2-2.6Z"/>
          <path class="st4" d="M455.7,571.2c-9.7-.5-19.6.1-29.7,2.1-21.2-7.3-41.8-10-61.7-9,0-46.2,10.8-144.9,45.2-182.6,32.9,40.6,46.3,110.3,46.3,189.6Z"/>
        </g>
        <g>
          <path class="st3" d="M697.2,664.4h-86.8c-.2-.4-.3-.9-.5-1.3-.3-.7-.6-1.4-1-2.1l-.3-.6c-.2-.3-.4-.7-.6-1,0,0,0,0,0,0-1.1-1.9-2.3-3.7-3.4-5.5-.7-1.1-1.4-2.1-2.1-3.1h0c-1.7-2.5-3.5-5-5.4-7.5-.2-.3-.4-.5-.6-.8-.2-.2-.4-.5-.6-.7-.2-.2-.3-.4-.5-.6-.4-.6-.9-1.1-1.4-1.7-1.7-2.1-3.5-4.2-5.3-6.2,0-.1-.2-.2-.3-.4-.2-.2-.4-.4-.6-.6-.3-.3-.6-.7-1-1-.2-.2-.4-.5-.7-.7-.6-.7-1.3-1.4-2-2-.8-.8-1.5-1.5-2.3-2.3-1-1-2.1-2-3.1-3-.6-.6-1.2-1.1-1.7-1.6-.7-.7-1.5-1.3-2.3-2h0c-.7-.6-1.4-1.2-2.1-1.8-.7-.6-1.4-1.2-2.2-1.8-.4-.4-.9-.7-1.3-1-.4-.3-.9-.7-1.3-1-.6-.5-1.3-1-2-1.5-.1,0-.3-.2-.4-.3h0s0,0,0,0c0,0,0,0,0,0,0,0,0,0,0,0,0,0-.1,0-.2-.1,0,0,0,0,0,0,0,0-.1,0-.2-.1h0s0,0,0,0c-.2-.2-.5-.4-.7-.5-1.2-.9-2.5-1.8-3.7-2.6,0,0,0,0,0,0h0s0,0,0,0c-1.4-1-2.9-2-4.4-2.9h0c-.7-.4-1.4-.9-2.1-1.3-.4-.2-.8-.5-1.2-.7-.9-.5-1.8-1.1-2.7-1.6-.5-.3-1-.6-1.6-.9-.7-.4-1.5-.8-2.3-1.2-.7-.4-1.5-.8-2.2-1.2-.7-.4-1.4-.7-2.1-1.1-1.2-.6-2.3-1.1-3.5-1.7-.5-.3-1.1-.5-1.6-.7-.7-.3-1.4-.6-2.1-.9-.9-.4-1.9-.8-2.8-1.2-1-.4-2-.8-3-1.2h0c-37-14.2-78.7-14.5-115.6-1.3-20.6,7.4-39.6,19-55.4,34.7h0c-2.8,2.6-5.5,5.3-8.2,8.2-2.2,2.3-4.3,4.6-6.5,7.1-2.9,3.2-5.8,6.6-8.7,10-3.8,4.5-7.8,9.1-11.9,13.8H122.3c6-4.7,12-9.3,18.1-13.8,12-9,24.2-17.6,36.5-25.8,0,0,.1,0,.2-.1,10.3-6.8,20.9-13.4,31.5-19.5,2-1.1,3.9-2.2,5.9-3.3,9.1-5,18.3-9.8,27.6-14.1,1.4-.6,2.7-1.3,4.1-1.9,1.4-.6,2.8-1.3,4.1-1.9,1-.4,2-.9,3-1.3.5-.2,1-.4,1.5-.7,3.8-1.6,7.6-3.1,11.4-4.6,13.8-5.3,27.8-9.7,42.1-13.1,3.1-.7,6.2-1.4,9.3-2.1,15.3-3,30.9-4.8,46.8-5.1,24-.5,48.8,2.4,74.3,9.5,5.7-.9,11.4-1.5,17.1-1.9,34.3-2.3,66.8,4.8,98,17.1,4.1,1.6,8.3,3.4,12.4,5.2,1.5.7,3.1,1.4,4.6,2,.5.2,1,.5,1.6.7.7.3,1.4.7,2.2,1,1.7.8,3.3,1.5,4.9,2.3,7.7,3.7,15.4,7.7,22.9,11.9,4.9,2.7,9.8,5.5,14.7,8.3,7.8,4.6,15.6,9.3,23.3,14.1,3,1.9,6,3.7,8.9,5.6,9.2,5.8,18.2,11.7,27.2,17.5,5.4,3.4,10.7,6.9,15.9,10.2,1.4,1,3.8,2.2,4.9,3.5Z"/>
          <path class="st1" d="M610.4,664.4h-97.4c-22.6-42-41.6-55.9-81.8-68.8-5.7-1.8-11.7-3.5-18.1-5,36.8-13.2,78.6-12.9,115.6,1.2h0c9.4,3.6,18.5,8.2,27.1,13.6h0c1.5.9,3,1.9,4.4,2.9h0s0,0,0,0c5,3.5,9.9,7.1,14.4,11.1h0c13.1,11.4,24.4,24.9,33.3,39.8,0,0,0,0,0,0,1,1.6,1.8,3.2,2.4,5Z"/>
          <path class="st8" d="M564.6,611.5c.3.2.5.4.8.6h0c-.3-.2-.5-.4-.8-.6Z"/>
          <g>
            <path class="st7" d="M418.2,571.1c-22.1,5.6-43,14-62.4,25.8h0c-28.7,16.8-53.1,38-78.8,58.6-.2,2.7-.4,7.1-.6,9h-121.8c27-20.4,56.9-40.5,86.1-58.9,0,0,0,0,0,0,25.7-15.9,54.1-27.3,83.7-33.6,30.4-5.5,63.7-10.6,93.7-.8Z"/>
            <path class="st10" d="M274,653.7s-.9.8-1,.8c0,0,0,.6,0,.8,0,2.3-.2,6.5-.3,9.1h-110.2c4.3-3.3,9.5-7.3,14.1-10.7h97.4Z"/>
            <path class="st10" d="M310.8,623.5c-3.5,3.4-20.6,17.2-27.8,22.9-21.1,0-71,0-96.9-.1,10.6-7.8,22.8-16,32.8-22.8h91.9Z"/>
            <path class="st0" d="M205.4,632.7s0,0,0,0c0,0,0,0,0,0h0Z"/>
            <path class="st10" d="M356.6,592.7c-11.7,6.4-24.9,15.8-35.3,23.4-21.2,0-67.4,0-91.1-.1,8.1-4.8,32.5-20.2,44.5-24.1,0,0,82,.9,82,.9Z"/>
            <path class="st10" d="M408.4,570.9c-11.1,3-26.9,9.5-37.2,14.2-23,0-61.7,0-81.7,0,21.2-7,40.9-12.7,64.1-14.8.2,0,54.6.7,54.8.7Z"/>
          </g>
        </g>
        <path class="st9" d="M432.8,501.7c-2-1.4-2.9-1.7-5.6-1.7-5.8,0-8.3,2-12.1,9.4-2.8,5.4-5.1,6.7-8.9,5l-2.2-1,1.6-1c1.9-1.2,4.3-5.4,4.8-8.4.8-4.5-2.2-9.8-6.2-11.1-4.4-1.5-12.2.2-16.7,3.7l-1.8,1.4,4.3,7.2c8.5-4.5,12.7-5.2,15-2.5,1.6,1.9,1.6,2.6.2,4.5-1.5,2-4.5,2.8-8.5,2.5l-3.3-.3c1,6.1,4.2,9.5,4.2,9.5,5.2-.7,8,.3,9.3,3.3,1.6,3.9.1,7.8-3.6,9.5-4.7,2.1-12.9.8-16.2-2.7-2-2.1-4.1-6.4-5.3-10.9-.5-2.1-1.2-3.8-1.4-3.8-.7,0-.5,6.2.4,10,1.9,8.3,6.9,14.3,13.6,16.7,2.4.9,6.9,1,9.6.2,2.8-.8,6.3-4,7.8-7.1,1.7-3.6,1.8-9.4.2-13l-1.1-2.5h3.5c3.1,0,3.7-.2,5.3-1.7,1-.9,2.5-3,3.4-4.6,2.6-4.6,4.5-6.3,6.9-6.3s2.5.2,3.1.5c2.7,1.4,3.7,9.5,1.8,13.7-2.6,5.5-9,8.5-13.5,6.1-1.8-1-3.8-3.8-3.9-5.6,0-1-.1-.9-.6.3-1,2.5-.2,8.2,1.6,11,2,3.3,4.6,4.6,8.5,4.6,7.2,0,12-6.2,12.8-16.4.6-8-2.1-15.1-7-18.6ZM430,486.8c0-.1-1.1.5-2.3,1.5-5.3,4.3-10.2,5.2-15.1,2.9-2.7-1.7-5.2-4-6.4-6.7-1,0,0,4.9,1.5,7.6,4.9,7.3,10.6,8.2,19,5.8,3.4-1.3,7.6-4.1,7.6-5.1-.7-2.3-3-4-4.3-6ZM417.4,480l-5.4,6c.9,2.3,3.7,3.9,5.6,5.2,2.4-1.3,3.8-4,5.9-5.7l-6-5.6Z"/>
      </g>
    </g>
  </g>
</svg>