<svg width="113" height="47" viewBox="0 0 113 47" fill="none" xmlns="http://www.w3.org/2000/svg">
<path fill-rule="evenodd" clip-rule="evenodd" d="M43.8674 34.7829V28.7997H45.7634C46.2616 28.7754 46.7505 28.9409 47.1314 29.2629C47.3012 29.4209 47.4347 29.6139 47.5225 29.8286C47.6104 30.0432 47.6505 30.2744 47.6402 30.5061C47.6453 30.8338 47.5543 31.1558 47.3786 31.4325C47.2049 31.6974 46.9534 31.902 46.6586 32.0181C46.2396 32.1568 45.7988 32.2178 45.3578 32.1981H44.717V34.7901L43.8674 34.7829ZM45.6146 29.5581H44.7242V31.4397H45.665C45.9534 31.4606 46.2393 31.3752 46.469 31.1997C46.5684 31.1094 46.6457 30.9976 46.6952 30.8728C46.7447 30.748 46.765 30.6135 46.7546 30.4797C46.7546 29.8677 46.373 29.5605 45.6146 29.5605V29.5581ZM49.9346 30.8301C50.2109 30.8209 50.4862 30.8676 50.7439 30.9674C51.0017 31.0672 51.2366 31.2181 51.4346 31.4109C51.6293 31.6003 51.7827 31.8279 51.8852 32.0794C51.9876 32.331 52.0368 32.601 52.0298 32.8725C52.0372 33.1398 51.9868 33.4056 51.882 33.6516C51.7772 33.8977 51.6205 34.1182 51.4226 34.2981C51.0108 34.6799 50.4647 34.8835 49.9034 34.8645C49.6302 34.8718 49.3582 34.8248 49.1032 34.7264C48.8482 34.6279 48.6153 34.4799 48.4178 34.2909C48.0382 33.9107 47.8251 33.3954 47.8251 32.8581C47.8251 32.3208 48.0382 31.8055 48.4178 31.4253C48.619 31.2318 48.8568 31.0803 49.1173 30.9798C49.3777 30.8792 49.6556 30.8316 49.9346 30.8397V30.8301ZM49.8962 31.5501C49.7264 31.5426 49.5569 31.5703 49.3983 31.6314C49.2397 31.6926 49.0955 31.7858 48.9746 31.9053C48.8554 32.0304 48.7624 32.1781 48.701 32.3396C48.6396 32.5012 48.611 32.6734 48.617 32.8461C48.6087 33.0162 48.6362 33.1862 48.6978 33.3449C48.7594 33.5037 48.8537 33.6478 48.9746 33.7677C49.1003 33.8874 49.2488 33.9806 49.4113 34.0416C49.5737 34.1026 49.7468 34.1303 49.9202 34.1229C50.093 34.131 50.2656 34.1037 50.4274 34.0426C50.5892 33.9815 50.7368 33.888 50.861 33.7677C51.0514 33.5861 51.1816 33.3504 51.2339 33.0925C51.2862 32.8346 51.2581 32.5668 51.1534 32.3254C51.0488 32.0839 50.8726 31.8803 50.6487 31.7421C50.4247 31.604 50.1638 31.5378 49.901 31.5525L49.8962 31.5501ZM57.7298 30.8589H58.5746L56.8394 34.8717H56.5826L55.421 32.1213L54.2666 34.8717H54.0146L52.2698 30.8589H53.1074L54.137 33.2589L55.1402 30.8589H55.7234L56.717 33.2589L57.7466 30.8589H57.7298ZM62.3186 32.8797H59.5346C59.5388 33.2193 59.6738 33.5442 59.9114 33.7869C60.0305 33.9043 60.1719 33.9964 60.3274 34.0579C60.4829 34.1193 60.6491 34.1488 60.8162 34.1445C61.331 34.1436 61.8314 33.9751 62.2418 33.6645V34.4277C62.0196 34.575 61.777 34.689 61.5218 34.7661C61.2514 34.8399 60.9717 34.8747 60.6914 34.8693C60.3162 34.8887 59.9439 34.7942 59.6234 34.5981C59.3529 34.4155 59.1326 34.168 58.9826 33.8781C58.8138 33.5481 58.7312 33.1807 58.7426 32.8101C58.7196 32.274 58.9025 31.7494 59.2538 31.3437C59.4196 31.1579 59.6242 31.0108 59.8531 30.9129C60.0821 30.815 60.3298 30.7687 60.5786 30.7773C60.8158 30.7677 61.0521 30.8122 61.2696 30.9074C61.4871 31.0026 61.68 31.1461 61.8338 31.3269C62.1619 31.7439 62.3274 32.2659 62.2994 32.7957V32.8917L62.3186 32.8797ZM59.5634 32.4165H61.5674C61.5626 32.1512 61.464 31.8961 61.289 31.6965C61.2007 31.6108 61.0956 31.5443 60.9804 31.5009C60.8652 31.4576 60.7424 31.4384 60.6194 31.4445C60.3663 31.4347 60.1196 31.5253 59.933 31.6965C59.74 31.8919 59.6154 32.1445 59.5778 32.4165H59.5634ZM63.9962 30.8541V31.7469L64.0394 31.6749C64.417 31.0685 64.7938 30.7653 65.1698 30.7653C65.5227 30.792 65.8525 30.9505 66.0938 31.2093L65.6834 31.8957C65.4878 31.6771 65.2171 31.54 64.925 31.5117C64.7954 31.5139 64.6682 31.5476 64.5545 31.6099C64.4407 31.6722 64.3439 31.7612 64.2722 31.8693C64.0864 32.1148 63.9891 32.4159 63.9962 32.7237V34.7997H63.2162V30.8397L63.9962 30.8541ZM67.577 28.7997H72.581V29.5653H70.4906V34.7997H69.6314V29.5581H67.577V28.7997ZM73.8506 30.8349C74.1268 30.8262 74.4019 30.8732 74.6596 30.973C74.9173 31.0728 75.1523 31.2233 75.3506 31.4157C75.5454 31.6055 75.6988 31.8336 75.8012 32.0855C75.9037 32.3374 75.9529 32.6078 75.9458 32.8797C75.9532 33.1465 75.9029 33.4116 75.7986 33.6572C75.6942 33.9028 75.5381 34.123 75.341 34.3029C74.9282 34.6846 74.3814 34.8881 73.8194 34.8693C73.5462 34.8763 73.2743 34.8292 73.0194 34.7308C72.7644 34.6324 72.5314 34.4845 72.3338 34.2957C72.1457 34.1078 71.9964 33.8846 71.8945 33.639C71.7927 33.3933 71.7403 33.13 71.7403 32.8641C71.7403 32.5982 71.7927 32.3349 71.8945 32.0892C71.9964 31.8436 72.1457 31.6204 72.3338 31.4325C72.5353 31.2414 72.7727 31.0921 73.0322 30.9932C73.2917 30.8944 73.5683 30.8479 73.8458 30.8565L73.8506 30.8349ZM73.8122 31.5549C73.6425 31.548 73.4732 31.576 73.3146 31.6371C73.1561 31.6981 73.0118 31.7911 72.8906 31.9101C72.7716 32.0353 72.6789 32.183 72.6179 32.3446C72.5569 32.5062 72.5288 32.6783 72.5354 32.8509C72.5272 33.0208 72.5546 33.1905 72.6157 33.3492C72.6769 33.5079 72.7705 33.6521 72.8906 33.7725C73.0186 33.8933 73.1695 33.9872 73.3344 34.0486C73.4993 34.11 73.6748 34.1378 73.8506 34.1301C74.0234 34.1369 74.1959 34.1088 74.3575 34.0473C74.5192 33.9859 74.6668 33.8924 74.7914 33.7725C74.9809 33.5907 75.1103 33.3552 75.162 33.0978C75.2138 32.8403 75.1855 32.5732 75.081 32.3322C74.9765 32.0913 74.8007 31.8882 74.5773 31.7501C74.354 31.612 74.0937 31.5455 73.8314 31.5597L73.8122 31.5549ZM79.3706 28.7997H82.7714V29.5653H80.2322V31.3917H82.6826V32.1597H80.2322V34.0293H82.8506V34.7949H79.3706V28.7997ZM86.8946 31.9197V34.7685H86.1146V32.5677C86.142 32.2523 86.0805 31.9355 85.937 31.6533C85.8662 31.5606 85.7727 31.4876 85.6655 31.4414C85.5583 31.3952 85.4411 31.3772 85.325 31.3893C85.1675 31.387 85.0124 31.4276 84.8762 31.5069C84.6999 31.6138 84.5426 31.7493 84.4106 31.9077V34.7565H83.6306V30.8397H84.4106V31.3557C84.5544 31.1817 84.7318 31.0385 84.9323 30.9346C85.1327 30.8306 85.352 30.7682 85.577 30.7509C85.8189 30.7491 86.0563 30.8157 86.2618 30.9432C86.4674 31.0706 86.6327 31.2535 86.7386 31.4709C86.8898 31.2621 87.0852 31.0893 87.3109 30.9649C87.5366 30.8404 87.787 30.7673 88.0442 30.7509C88.2235 30.7464 88.4015 30.7818 88.5654 30.8544C88.7293 30.927 88.8751 31.0351 88.9922 31.1709C89.2613 31.5413 89.3874 31.9965 89.3474 32.4525V34.7829H88.5674V32.4357C88.5866 32.1683 88.5156 31.9021 88.3658 31.6797C88.297 31.5929 88.2083 31.5238 88.1072 31.4783C88.0062 31.4328 87.8957 31.4121 87.785 31.4181C87.6061 31.4279 87.4317 31.4781 87.275 31.565C87.1183 31.6519 86.9833 31.7732 86.8802 31.9197H86.8946ZM90.3818 36.8013V30.8397H91.7474C92.3373 30.8043 92.9191 30.99 93.3794 31.3605C93.5773 31.5474 93.7321 31.7752 93.8328 32.0281C93.9336 32.2809 93.9779 32.5527 93.9626 32.8245C93.9732 33.0916 93.9302 33.358 93.8362 33.6082C93.7422 33.8584 93.5992 34.0872 93.4154 34.2813C93.2351 34.469 93.0174 34.6168 92.7764 34.7152C92.5354 34.8136 92.2764 34.8604 92.0162 34.8525C91.7296 34.846 91.4462 34.7899 91.1786 34.6869V36.8013H90.3818ZM91.7306 31.5669H91.1786V33.9909C91.4109 34.1108 91.6685 34.1734 91.9298 34.1733C92.0975 34.1785 92.2642 34.1471 92.4184 34.0812C92.5726 34.0152 92.7106 33.9165 92.8226 33.7917C93.0147 33.5642 93.1356 33.2851 93.1701 32.9894C93.2047 32.6936 93.1515 32.3942 93.017 32.1285C92.9143 31.9433 92.7578 31.7935 92.5682 31.6989C92.3039 31.5962 92.0211 31.5496 91.7378 31.5621L91.7306 31.5669ZM96.7154 30.8301C96.991 30.821 97.2655 30.8678 97.5224 30.9676C97.7794 31.0674 98.0135 31.2182 98.2106 31.4109C98.4067 31.5994 98.5612 31.8267 98.6641 32.0785C98.767 32.3302 98.8161 32.6007 98.8082 32.8725C98.8167 33.1398 98.767 33.4057 98.6626 33.6518C98.5582 33.898 98.4015 34.1185 98.2034 34.2981C97.7916 34.6799 97.2455 34.8835 96.6842 34.8645C96.411 34.8718 96.139 34.8248 95.884 34.7264C95.629 34.6279 95.3961 34.4799 95.1986 34.2909C95.0104 34.1028 94.8611 33.8794 94.7592 33.6336C94.6573 33.3877 94.6049 33.1242 94.6049 32.8581C94.6049 32.592 94.6573 32.3285 94.7592 32.0826C94.8611 31.8368 95.0104 31.6134 95.1986 31.4253C95.3993 31.2335 95.6361 31.0836 95.8953 30.9843C96.1544 30.885 96.4308 30.8383 96.7082 30.8469L96.7154 30.8301ZM96.677 31.5501C96.5072 31.5419 96.3374 31.5693 96.1787 31.6304C96.02 31.6916 95.8759 31.7852 95.7554 31.9053C95.6353 32.0298 95.5417 32.1774 95.4802 32.3391C95.4188 32.5008 95.3907 32.6733 95.3978 32.8461C95.3896 33.0162 95.4172 33.1861 95.4788 33.3449C95.5404 33.5036 95.6347 33.6477 95.7554 33.7677C95.8814 33.887 96.03 33.9798 96.1923 34.0408C96.3547 34.1018 96.5277 34.1297 96.701 34.1229C96.8741 34.1304 97.0468 34.1028 97.2089 34.0417C97.371 33.9807 97.5191 33.8875 97.6442 33.7677C97.7637 33.6452 97.8569 33.4997 97.9184 33.34C97.9799 33.1804 98.0083 33.0099 98.0018 32.8389C98.0066 32.6652 97.9747 32.4925 97.9081 32.332C97.8415 32.1716 97.7418 32.027 97.6154 31.9077C97.4873 31.7873 97.3363 31.6939 97.1714 31.6329C97.0065 31.5719 96.8311 31.5445 96.6554 31.5525L96.677 31.5501ZM104.511 30.8589H105.346L103.591 34.8597H103.335L102.168 32.1117L101.016 34.8597H100.757L99.0122 30.8469H99.8546L100.882 33.2469L101.887 30.8469H102.468L103.464 33.2469L104.494 30.8469L104.511 30.8589ZM109.083 32.8797H106.306C106.31 33.2198 106.446 33.545 106.685 33.7869C106.803 33.9044 106.944 33.9967 107.1 34.0582C107.255 34.1197 107.421 34.149 107.587 34.1445C108.101 34.1436 108.601 33.9751 109.011 33.6645V34.4277C108.789 34.5759 108.546 34.69 108.291 34.7661C108.021 34.8399 107.742 34.8747 107.463 34.8693C107.087 34.8893 106.715 34.7947 106.395 34.5981C106.123 34.4158 105.901 34.1682 105.749 33.8781C105.581 33.5477 105.499 33.1806 105.509 32.8101C105.488 32.2746 105.669 31.7508 106.018 31.3437C106.185 31.1578 106.39 31.0107 106.62 30.9128C106.849 30.8149 107.098 30.7687 107.347 30.7773C107.584 30.7677 107.82 30.8122 108.037 30.9075C108.254 31.0027 108.447 31.1461 108.6 31.3269C108.929 31.7434 109.095 32.2657 109.066 32.7957V32.8917L109.083 32.8797ZM106.335 32.4141H108.322C108.316 32.149 108.217 31.8942 108.043 31.6941C107.955 31.609 107.85 31.5428 107.734 31.4995C107.619 31.4562 107.497 31.4367 107.374 31.4421C107.119 31.4331 106.872 31.5235 106.683 31.6941C106.491 31.8907 106.367 32.1427 106.327 32.4141H106.335ZM110.767 30.8517V31.7445L110.813 31.6725C111.192 31.0661 111.57 30.7629 111.946 30.7629C112.298 30.7911 112.626 30.9494 112.867 31.2069L112.455 31.8933C112.261 31.6748 111.992 31.5376 111.701 31.5093C111.571 31.5113 111.443 31.5449 111.329 31.6072C111.215 31.6695 111.118 31.7586 111.046 31.8669C110.86 32.1127 110.762 32.4134 110.767 32.7213V34.7997H109.987V30.8397L110.767 30.8517Z" fill="white"/>
<path fill-rule="evenodd" clip-rule="evenodd" d="M25.3802 34.2819L24.325 36.1051C22.3635 39.343 19.141 42.8912 15.665 44.5362C15.3025 44.7082 15.0368 44.8357 14.6743 44.9817C14.3213 45.1065 13.9752 45.25 13.6375 45.4117C20.763 43.9556 26.0407 40.7715 30.4459 35.4477C34.0924 31.0317 37.8602 23.8632 37.3303 15.7546C36.8203 7.99938 32.4151 2.13494 25.8779 0.492952C18.8829 -1.2673 13.6037 1.87535 9.80363 6.91958C9.53022 7.28054 8.68542 8.51394 8.56561 8.89948C13.7112 6.32361 19.8644 5.18236 25.0515 8.95017C29.5658 12.2311 30.9267 18.8313 29.7501 24.5897C29.0666 27.9321 27.7272 30.4803 26.0422 33.2697C25.8066 33.5957 25.5877 33.9336 25.3863 34.2819H25.3802Z" fill="#E15A11"/>
<path fill-rule="evenodd" clip-rule="evenodd" d="M7.33694 45.1183C6.85463 45.4624 4.97764 44.871 4.49226 44.7865C5.41386 45.4485 7.3569 45.9785 8.75313 46.0568C10.8866 46.1781 11.8251 45.8064 13.6376 45.427C13.977 45.2678 14.3246 45.1268 14.679 45.0046C15.0415 44.8587 15.3072 44.7312 15.6697 44.5607C19.1503 42.9111 22.3728 39.3614 24.3297 36.1281L25.3849 34.3049C25.5032 33.9408 25.7766 33.4432 25.9456 33.0515C27.3449 29.8259 28.3725 26.1748 28.0576 22.5852C27.8687 20.4348 27.3387 18.5194 26.4079 16.9511C23.3666 11.8055 16.9584 9.90089 11.4427 12.3431C8.43057 13.6687 6.52746 15.8345 4.95306 18.5409C4.72574 18.9034 4.57214 19.3381 4.36938 19.6606C4.61054 19.6192 5.3217 19.1737 5.65041 19.0186C7.07767 18.3106 8.60048 17.8144 10.1709 17.5456C14.487 16.8375 19.0336 18.2291 21.2439 21.9462C22.2807 23.6942 22.5756 26.1994 22.3191 28.5848C21.8583 32.8349 19.7325 37.2678 17.6496 39.7792C17.058 40.5083 16.4142 41.1936 15.7235 41.8297C15.0284 42.4511 14.2829 43.0136 13.4948 43.5116C12.0094 44.424 9.01579 45.5622 7.35076 45.1075L7.33694 45.1183Z" fill="#069139"/>
<path fill-rule="evenodd" clip-rule="evenodd" d="M4.48719 44.7866C4.97256 44.8711 6.85109 45.4717 7.33186 45.1184C6.97417 45.0271 6.64412 44.8501 6.37031 44.6025C6.0965 44.3549 5.8872 44.0443 5.76053 43.6976C4.88808 41.6654 5.6269 37.9483 6.12149 35.9377C6.51778 34.3295 6.95093 32.835 7.45167 31.2852L8.97231 26.8477L2.98191 26.8615C2.6148 27.4329 1.81301 30.574 1.59951 31.4787C0.578068 35.6351 -0.507885 42.8205 4.48719 44.7866Z" fill="#05559C"/>
<path fill-rule="evenodd" clip-rule="evenodd" d="M2.79529 22.894L3.23919 23.3778C3.56337 23.0476 3.93573 22.7685 4.34358 22.5499C4.95269 22.2394 5.63683 22.1062 6.31796 22.1657C6.99909 22.2252 7.6498 22.4749 8.19586 22.8863C8.44009 23.0629 8.51689 23.2089 8.7519 23.3471L9.2127 22.8863C8.98383 22.5422 8.39401 22.1183 7.91478 21.8833C7.32448 21.596 6.6766 21.4468 6.02012 21.4468C5.36364 21.4468 4.71576 21.596 4.12546 21.8833C3.70153 22.0768 3.01647 22.5668 2.81372 22.8925L2.79529 22.894Z" fill="#05559C"/>
<path fill-rule="evenodd" clip-rule="evenodd" d="M3.57739 23.7338L4.03819 24.2453C4.49899 23.9995 5.45592 22.8936 7.08254 23.6463C7.39717 23.7763 7.67587 23.9802 7.89509 24.2407L8.42194 23.6539C7.77374 23.1931 7.22693 22.6325 5.97662 22.6417C5.5217 22.6424 5.07225 22.7409 4.6588 22.9307C4.24535 23.1205 3.87757 23.397 3.58046 23.7415L3.57739 23.7338Z" fill="#05559C"/>
<path fill-rule="evenodd" clip-rule="evenodd" d="M4.43747 24.6037L4.92745 24.9923C4.97968 24.957 5.0104 24.9293 5.05341 24.9002C5.31688 24.7018 5.6347 24.5887 5.96425 24.5761C6.64777 24.5607 6.78755 24.8556 7.2207 25.0722L7.55094 24.6114C6.84899 23.7405 5.11177 23.6652 4.43286 24.6114L4.43747 24.6037Z" fill="#05559C"/>
<path fill-rule="evenodd" clip-rule="evenodd" d="M5.19863 25.3913L6.07108 26.2653L6.79146 25.4312C6.22621 24.8982 5.80688 24.9443 5.19556 25.3928L5.19863 25.3913Z" fill="#05559C"/>
<path fill-rule="evenodd" clip-rule="evenodd" d="M47.9539 16.5597C52.8859 16.0797 51.2755 21.4173 49.1035 22.6149C48.0931 23.1645 47.0491 23.0085 45.7819 23.0157L47.9539 16.5717V16.5597ZM43.4059 24.6189C44.9515 24.6669 48.2731 24.8301 49.4803 24.3165C52.9987 22.8333 54.0139 17.7357 52.2523 15.8397C51.0979 14.5941 48.2995 14.9349 46.6051 14.9133L43.3987 24.6309L43.4059 24.6189Z" fill="white"/>
<path fill-rule="evenodd" clip-rule="evenodd" d="M57.6869 25.3463C58.9229 24.9719 60.4133 26.2871 58.6805 26.6279C57.0629 26.9447 55.7957 25.9199 57.6869 25.3463ZM59.6525 19.5383C61.1117 19.0583 60.5621 21.3575 59.7725 21.6983C58.9829 22.0391 58.5941 21.6239 58.7501 20.8007C58.8797 20.1263 59.1077 19.7159 59.6525 19.5383ZM57.7685 22.5047C57.1517 22.6655 56.7365 22.8599 56.5253 23.3591C56.3886 23.6171 56.3552 23.9174 56.4319 24.1991C56.5086 24.4808 56.6895 24.7228 56.9381 24.8759C55.3157 25.4855 54.8021 26.6063 55.5437 27.3503C56.7173 28.5359 61.9517 28.0175 61.0637 24.9503C60.6533 23.5103 58.4957 24.0887 58.1213 23.3591C58.4789 22.5335 59.2973 23.5367 61.0205 22.3991C61.8005 21.8855 62.1605 20.9351 62.1605 19.5983H63.0845L63.4781 18.2111C61.2845 17.9303 58.0925 17.8943 57.3053 20.2583C57.1588 20.68 57.1257 21.1327 57.2093 21.5711C57.2356 21.745 57.304 21.9097 57.4085 22.0511L57.7661 22.5311L57.7685 22.5047Z" fill="white"/>
<path fill-rule="evenodd" clip-rule="evenodd" d="M99.1682 23.121C96.5066 23.7018 96.9818 19.617 100.315 19.761C100.159 20.3994 99.4562 22.7178 99.1682 23.121ZM100.899 18.081C98.4602 18.2394 96.509 18.5874 95.789 21.429C94.9418 24.789 97.8914 24.9906 100.479 24.549L103.656 14.9106H101.943L100.899 18.0858V18.081Z" fill="white"/>
<path fill-rule="evenodd" clip-rule="evenodd" d="M75.6726 19.6801C75.4614 20.5177 75.1302 21.3601 74.8638 22.2121C74.6646 22.8433 74.6454 22.8769 74.0982 23.1169C72.1182 23.9857 72.5766 21.7177 73.3566 20.7049C73.8798 20.0257 74.3982 19.5793 75.6726 19.6801ZM74.1198 24.1417C74.1459 24.1937 74.1583 24.2515 74.1558 24.3096C74.1558 24.3768 74.1342 24.5089 74.1294 24.6481H75.7422L77.8806 18.2593C76.3758 18.0385 75.2406 17.9041 73.8558 18.4345C69.8214 19.9681 69.903 26.8777 74.1078 24.1488L74.1198 24.1417Z" fill="white"/>
<path fill-rule="evenodd" clip-rule="evenodd" d="M110.631 19.6794C110.46 20.4762 110.076 21.4122 109.827 22.2162C109.443 23.4642 108.147 23.4378 107.861 23.1282C107.278 22.4754 108 19.4994 110.631 19.6794ZM109.078 24.1434L109.097 24.6498H110.695L112.831 18.297C110.021 17.5002 107.537 18.6522 106.534 20.3874C105.108 22.857 106.037 26.205 109.068 24.1506L109.078 24.1434Z" fill="white"/>
<path fill-rule="evenodd" clip-rule="evenodd" d="M88.048 24.6237H89.7424L90.844 21.3597C90.8896 21.2205 90.9256 21.1053 90.9568 21.0021C91.1176 20.4621 91.0672 20.4381 91.6288 20.0277C93.1432 18.9309 93.3664 19.6077 93.028 20.7477L91.84 24.6645H93.4384L94.8448 20.5269C94.8853 20.4028 94.9173 20.2761 94.9408 20.1477C95.1376 19.2381 95.0416 18.2853 94.1656 18.1125C93.1648 17.9157 92.3536 18.4677 91.7056 18.8325L91.8712 18.2109L90.1912 18.1773L88.0552 24.6453L88.048 24.6237Z" fill="white"/>
<path fill-rule="evenodd" clip-rule="evenodd" d="M68.2032 18.1507H67.0368L66.516 19.5739H67.6488C67.4568 20.6107 64.3584 26.1619 69.5544 24.3499L69.8736 22.6867C69.5567 22.8328 69.223 22.9392 68.88 23.0035C67.7424 22.9075 69.156 20.2195 69.372 19.6027L70.6872 19.5763L71.148 18.1531H69.9312L70.3968 16.8187L68.6664 16.7827L68.2032 18.1387V18.1507Z" fill="white"/>
<path fill-rule="evenodd" clip-rule="evenodd" d="M84.3958 24.6042L86.1958 24.6378L89.455 14.913L87.6142 14.9082L84.3958 24.6042Z" fill="white"/>
<path fill-rule="evenodd" clip-rule="evenodd" d="M77.3831 24.609L79.0679 24.6402L82.3079 14.9082H80.5919L77.3831 24.609Z" fill="white"/>
<path fill-rule="evenodd" clip-rule="evenodd" d="M52.8352 24.6911H54.556L56.6176 18.1391H54.8968L52.8352 24.6911ZM56.6032 15.4751C57.0832 15.4751 57.3568 15.9239 57.232 16.4759C57.1824 16.7341 57.0523 16.9699 56.8605 17.1497C56.6687 17.3295 56.4249 17.4439 56.164 17.4767C55.684 17.4767 55.4056 17.0279 55.5304 16.4759C55.5818 16.2152 55.7149 15.9777 55.9104 15.7977C56.1058 15.6178 56.3536 15.5048 56.6176 15.4751H56.6032Z" fill="white"/>
<path fill-rule="evenodd" clip-rule="evenodd" d="M62.3069 24.6911H64.0277L66.0893 18.1391H64.3709L62.3069 24.6911ZM66.0749 15.4751C66.5549 15.4751 66.8333 15.9239 66.7061 16.4759C66.6565 16.7341 66.5264 16.9699 66.3346 17.1497C66.1427 17.3295 65.8989 17.4439 65.6381 17.4767C65.1581 17.4767 64.8797 17.0279 65.0045 16.4759C65.0551 16.2182 65.1855 15.9829 65.3771 15.8033C65.5688 15.6237 65.812 15.5089 66.0725 15.4751H66.0749Z" fill="white"/>
<path fill-rule="evenodd" clip-rule="evenodd" d="M101.925 24.6911H103.643L105.705 18.1391H103.987L101.925 24.6911ZM105.691 15.4751C106.171 15.4751 106.447 15.9239 106.322 16.4759C106.271 16.7367 106.138 16.9745 105.942 17.1545C105.747 17.3345 105.499 17.4474 105.235 17.4767C104.755 17.4767 104.481 17.0279 104.606 16.4759C104.657 16.2156 104.79 15.9783 104.985 15.7984C105.18 15.6185 105.427 15.5052 105.691 15.4751Z" fill="white"/>
<path fill-rule="evenodd" clip-rule="evenodd" d="M112.115 25.6484H62.2454V26.3012H112.115V25.6484Z" fill="white"/>
<path fill-rule="evenodd" clip-rule="evenodd" d="M53.2464 25.6484H43.0656V26.3012H53.2464V25.6484Z" fill="white"/>
</svg>
