<svg width="47" height="48" viewBox="0 0 47 48" fill="none" xmlns="http://www.w3.org/2000/svg">
<path d="M41.6701 20.2095C41.3237 19.2969 40.6044 18.4777 39.7318 17.8849C37.214 16.2863 33.3774 16.173 30.7864 17.6184C29.3743 18.3378 28.4418 19.7699 28.1554 21.2352C27.6292 23.6464 27.7691 26.5239 29.6274 28.3289C31.7988 30.2273 34.956 30.6535 37.7602 29.8676C37.8934 29.8409 38.313 29.7344 38.6061 29.5812L38.6861 29.5479C39.5586 29.1882 40.3912 28.5954 41.0107 27.7961C42.4427 25.7046 42.5426 22.5674 41.6701 20.2095ZM37.1008 25.6313C37.0009 26.0909 36.6945 26.5638 36.2082 26.737C35.4356 27.0767 34.3899 26.9835 33.6705 26.5838C33.071 26.1642 32.9911 25.4582 32.9178 24.7921C32.8579 23.4799 32.7646 22.0945 33.131 20.8889C33.4174 20.1429 34.21 19.9564 34.9294 19.8964C35.682 19.8964 36.4214 20.0096 36.8876 20.6224C37.1807 21.062 37.1607 21.6282 37.214 22.1477C37.194 23.2335 37.294 24.5256 37.1008 25.6313Z" fill="white"/>
<path d="M14.1545 26.8103C13.515 26.7704 12.8023 26.8303 12.1829 26.7504L12.2029 20.0696L12.2428 20.0164L14.1611 19.9964C14.1811 18.9107 14.2011 17.7517 14.1411 16.7592L6.84094 16.7393L5.642 16.7592C5.62201 17.765 5.62201 18.944 5.642 19.9764C6.30141 19.9964 6.92086 19.9764 7.5603 20.0363V26.5039L7.54032 26.7704L5.62201 26.8103C5.58205 27.8761 5.58205 28.9018 5.62201 29.9476H14.1545V26.8103Z" fill="white"/>
<path d="M35.6421 31.3796C34.8295 32.5386 33.8037 33.6643 32.6847 34.5368C32.6447 34.5968 32.5248 34.5768 32.4915 34.5168C32.0053 34.2104 31.4858 33.964 31.0195 33.6643C31.639 32.9249 32.2384 32.1789 32.7047 31.3596H32.1052C31.6256 32.0657 31.1194 32.805 30.48 33.4378C29.6274 33.0981 28.8548 32.7917 27.9822 32.5586L27.8889 32.4853C28.0222 32.099 28.2753 31.7393 28.3552 31.3596H27.8357L27.3161 32.3854C26.1771 32.1389 24.9182 32.0057 23.7526 31.9258C23.6927 31.7526 23.7726 31.5062 23.6927 31.353H23.1931C23.1531 31.5794 23.2531 31.7526 23.1332 31.9458C21.9342 31.9991 20.7686 32.1323 19.6496 32.3654L19.1234 31.353C18.9302 31.353 18.7171 31.313 18.5839 31.373L19.0701 32.4986L19.0101 32.5519C18.1376 32.7984 17.285 33.1048 16.4524 33.4445L16.3725 33.4045C15.8263 32.8117 15.3068 32.1722 14.8805 31.5262C14.7872 31.1998 14.3942 31.3929 14.1811 31.353C14.6473 32.1922 15.2668 32.9316 15.8862 33.6976C15.3667 34.004 14.8405 34.3437 14.301 34.5901C13.142 33.7109 12.0563 32.5719 11.2437 31.373C11.0106 31.333 10.8574 31.353 10.6242 31.373C12.0163 33.5444 14.1877 35.4427 16.4524 36.5684C16.4524 36.5684 16.4524 36.5484 16.4724 36.5484C16.4924 36.5484 16.5257 36.5817 16.4924 36.6017C18.0244 37.341 19.6496 37.8739 21.3747 38.107C27.3161 38.8863 32.9911 36.3552 36.2815 31.373C36.095 31.353 35.8419 31.353 35.6421 31.3796ZM27.5692 33.0914L27.6292 33.0515C28.4618 33.2446 29.2544 33.5111 29.9938 33.8707C29.3743 34.5701 28.5817 35.1829 27.8423 35.6958C27.3961 35.9622 26.9498 36.2486 26.4835 36.4751L25.6509 36.1154L25.7109 35.9822C26.4103 35.0497 27.0297 34.0972 27.5692 33.0914ZM23.7593 32.5186C24.865 32.5386 25.9706 32.6518 26.9897 32.8983L27.0097 32.9582C26.4702 33.984 25.7908 34.9764 25.0515 35.9089C24.7184 35.9489 24.412 35.8157 24.0857 35.7957L23.7526 35.7557C23.7193 34.6301 23.6993 33.6376 23.7593 32.5186ZM20.0226 32.8583C21.0284 32.6651 22.0741 32.5186 23.1598 32.5186L23.1798 35.7358C22.7735 35.829 22.3272 35.829 21.9409 35.9289C21.1483 34.9964 20.4888 33.984 19.9293 32.9382L20.0226 32.8583ZM16.9053 33.8907C17.6647 33.531 18.4573 33.258 19.2699 33.0515L19.3498 33.0715C19.9093 34.1172 20.6087 35.1096 21.3014 36.0954C21.0284 36.2486 20.702 36.3419 20.4289 36.4951C19.15 35.869 17.9311 34.9898 16.9053 33.944V33.8907ZM19.4031 37.1412C17.7779 36.7216 16.2659 35.9955 14.8738 35.0097V34.9498C15.3401 34.6634 15.8063 34.3636 16.3059 34.1505C17.4116 35.2362 18.5506 36.0555 19.7895 36.8348C19.6895 36.948 19.5363 37.0679 19.4031 37.1412ZM26.5834 37.3876C24.5319 37.8272 22.2473 37.8472 20.1958 37.3477C20.1558 37.2544 20.289 37.2344 20.349 37.1745C22.1474 36.0155 24.9582 36.0155 26.7167 37.2677C26.7766 37.3876 26.6234 37.3477 26.5834 37.3876ZM28.4418 36.8548L27.5293 37.1412C27.3761 37.0679 27.2362 36.948 27.103 36.8348L27.1429 36.7748C28.3818 36.0555 29.5075 35.1763 30.5732 34.1305C31.0928 34.337 31.599 34.6234 32.0653 34.9498C30.9795 35.809 29.7207 36.3819 28.4418 36.8548Z" fill="white"/>
<path d="M11.1904 15.3006C11.6567 14.6545 12.1762 14.0284 12.7557 13.4156C13.2553 12.9427 13.7215 12.4831 14.2677 12.1367C14.7739 12.4631 15.3334 12.7295 15.8197 13.0359C15.2202 13.7753 14.6007 14.5213 14.1545 15.3139C14.2877 15.3739 14.5408 15.3539 14.734 15.3139C15.2202 14.6079 15.7397 13.9085 16.3592 13.2757C17.1918 13.5821 18.0044 13.9018 18.857 14.135L18.9302 14.2082L18.444 15.3139C18.6571 15.3539 18.7904 15.3339 19.0035 15.3139C19.1767 14.9942 19.3099 14.6279 19.5031 14.3082C20.6287 14.5546 21.8077 14.6878 23.0066 14.7278C23.1598 14.861 23.0466 15.1474 23.0999 15.3206H23.6194C23.6794 15.1341 23.5994 14.9209 23.6794 14.7544C24.805 14.6945 25.984 14.5812 27.0697 14.3148L27.1629 14.3348L27.6825 15.3206C27.8557 15.3206 28.0888 15.3606 28.222 15.2806L27.7358 14.1816L27.7757 14.1416C28.6616 13.9152 29.5009 13.5688 30.3468 13.2291C30.9463 13.8552 31.5058 14.6012 32.012 15.3206C32.2251 15.3206 32.4383 15.3406 32.5915 15.2806C32.3583 14.861 32.0653 14.448 31.7589 14.0817C31.5058 13.722 31.2393 13.4023 30.9063 13.0559V12.956L32.2651 12.1767L32.4583 12.1034C33.6372 12.996 34.683 14.0817 35.5155 15.2806C35.7487 15.2806 35.9418 15.3606 36.135 15.2606C33.5373 11.3774 29.2611 8.88629 24.6319 8.52661L24.6119 8.56657L24.5719 8.52661C24.0524 8.47332 23.4063 8.44668 22.8468 8.50662C22.6336 8.48664 22.3805 8.50662 22.1274 8.52661C17.4782 8.88629 13.202 11.2642 10.531 15.3139C10.7641 15.3006 10.9973 15.3739 11.1904 15.3006ZM19.23 13.6221L19.15 13.6421C18.3574 13.4356 17.5781 13.1825 16.8454 12.8628L16.8854 12.7495C17.9511 11.7438 19.0701 10.9045 20.3157 10.2584C20.6087 10.3716 20.8952 10.4649 21.1882 10.6048L21.1283 10.7513C20.3889 11.6638 19.8095 12.6496 19.23 13.6221ZM23.0799 14.135C22.5404 14.2082 22.0541 14.115 21.508 14.075C20.9884 14.0018 20.329 13.9418 19.8028 13.7686C20.3623 12.7295 21.0217 11.7171 21.8143 10.7846L23.0533 10.9511C23.1199 11.9502 23.0799 13.0892 23.0799 14.135ZM23.6794 14.155C23.6394 13.1425 23.6594 12.0235 23.6794 10.9778C24.0657 10.9245 24.492 10.8645 24.8783 10.8046C25.631 11.7504 26.3703 12.7295 26.8765 13.7686C25.8308 14.0217 24.7651 14.155 23.6794 14.155ZM29.8606 12.8228C29.1012 13.1425 28.3286 13.4489 27.496 13.6221C26.8965 12.6163 26.2371 11.6039 25.4978 10.6314C25.7708 10.4849 26.0972 10.3716 26.3903 10.2184C27.6492 10.8446 28.8681 11.7371 29.8939 12.7629L29.8606 12.8228ZM27.3761 9.57235C29.0013 9.99197 30.5333 10.7113 31.9254 11.7038L31.8854 11.7771L30.5533 12.5164H30.4534C29.4276 11.4906 28.2287 10.5981 27.0097 9.89206C27.0497 9.75885 27.2429 9.6656 27.3761 9.57235ZM26.6034 9.37918V9.41915C24.9183 10.6314 22.1873 10.7513 20.4089 9.62563C20.309 9.55236 20.1159 9.5124 20.0959 9.37918C22.1474 8.90627 24.5719 8.8663 26.6034 9.37918ZM14.7939 11.7438C16.0128 10.8512 17.3716 10.1851 18.8037 9.72554C18.8636 9.6656 18.8969 9.61231 18.9769 9.61231V9.65228C19.1301 9.69224 19.25 9.51906 19.3832 9.63229C19.4964 9.7322 19.6363 9.80547 19.7295 9.89872C18.5306 10.6381 17.345 11.5173 16.2659 12.5764C15.7464 12.3899 15.2602 12.1034 14.7939 11.7771V11.7438Z" fill="white"/>
<path d="M23.0999 26.9569C21.2815 27.4498 19.3032 27.0768 17.9844 25.7047C17.8312 25.5116 17.7313 25.2851 17.5781 25.0986L14.9671 25.1186C14.9271 26.6572 14.9071 28.429 14.9671 29.9543L17.8712 29.9343L17.9111 29.0218C18.2442 29.175 18.5705 29.3615 18.8969 29.5347C20.9085 30.3739 23.5062 30.5604 25.4977 29.5347C26.9498 28.7354 27.7291 27.1967 27.5093 25.5382C27.2961 23.9263 25.7508 22.4543 24.1789 22.0613L19.4897 20.7091L19.1434 20.536C18.9902 20.4027 18.8903 20.2362 18.9302 20.0231C19.2966 19.397 20.1491 19.5835 20.7886 19.6035C22.1407 19.7966 23.5395 20.2495 24.3321 21.4885C25.1847 21.4885 26.1705 21.5084 27.103 21.4685C27.1429 19.9098 27.083 18.5377 27.063 16.9591C26.1905 16.9391 25.1247 16.9391 24.2588 16.9791C24.2189 17.2056 24.2988 17.5253 24.1989 17.7584L23.3063 17.2855C21.1749 16.393 18.1909 16.2997 16.2593 17.6852C15.0004 18.5977 14.614 20.2362 14.9404 21.6816C15.1935 23.0537 16.5057 24.0595 17.7646 24.5324C19.4897 25.1386 21.2881 25.5782 23.0333 26.171C23.2064 26.2509 23.4396 26.4174 23.3996 26.6306C23.4063 26.7904 23.2331 26.8903 23.0999 26.9569Z" fill="white"/>
<path d="M4.79607 31.3396L4.88933 31.5594C4.90931 31.5994 4.88266 31.646 4.8427 31.666L2.05184 32.8716C2.01187 32.8916 1.96525 32.8783 1.94527 32.8316L1.85202 32.6118C1.83203 32.5719 1.85201 32.5253 1.89864 32.5053L4.6895 31.2997C4.72281 31.2864 4.77609 31.2997 4.79607 31.3396Z" fill="white"/>
<path d="M3.97013 29.0883L4.03673 29.2815C4.05006 29.3281 4.03007 29.3747 3.98345 29.3881L2.63797 29.841C2.22501 29.9809 2.14508 30.1607 2.25165 30.4738C2.31159 30.647 2.43815 30.8135 2.59801 30.9733L4.32981 30.3872C4.36977 30.3739 4.42306 30.3938 4.43638 30.4405L4.50299 30.6403C4.51631 30.6803 4.48967 30.7269 4.4497 30.7469L2.35822 31.4529C2.31159 31.4662 2.26497 31.4462 2.25165 31.3996L2.18504 31.1931C2.17172 31.1465 2.19836 31.0999 2.23833 31.0866L2.31826 31.0599C2.11177 30.8801 1.99188 30.7136 1.91195 30.4738C1.74543 29.9809 1.97856 29.6612 2.52474 29.4747L3.87021 29.0217C3.90352 29.0217 3.9568 29.0417 3.97013 29.0883Z" fill="white"/>
<path d="M3.58381 27.4766C3.61711 27.5565 3.65042 27.6631 3.6704 27.743C3.76365 28.1293 3.7037 28.3358 3.24411 28.4491L1.77874 28.7954L1.83203 29.215C1.83869 29.2617 1.81871 29.3016 1.77208 29.315L1.65885 29.3416C1.61222 29.3549 1.57892 29.3283 1.5656 29.2817L1.46569 28.8753L1.05272 28.9753C1.01275 28.9886 0.972789 28.9619 0.952807 28.922L0.866217 28.7088C0.866217 28.7022 0.866217 28.7022 0.859556 28.6955C0.852895 28.6622 0.872878 28.6222 0.919503 28.6156L1.3791 28.509L1.27252 28.0561C1.2592 28.0095 1.29251 27.9628 1.33913 27.9562L1.48567 27.9229C1.53229 27.9095 1.57892 27.9428 1.59224 27.9895L1.69881 28.4424L3.16418 28.0894C3.39731 28.0361 3.41729 27.9695 3.37733 27.7963L3.32404 27.5632C3.31072 27.5032 3.31738 27.4699 3.36401 27.4633L3.51054 27.43C3.53718 27.41 3.56383 27.4233 3.58381 27.4766Z" fill="white"/>
<path d="M2.20504 25.5315L2.40486 26.9635L2.4648 26.9569C2.97102 26.8836 3.13088 26.6572 3.0776 26.2642C3.04429 26.0177 2.98434 25.698 2.9244 25.5115C2.9244 25.5048 2.91774 25.4982 2.91774 25.4915C2.91108 25.4582 2.9244 25.4182 2.97102 25.4182L3.11756 25.3983C3.17085 25.3916 3.20415 25.4049 3.22413 25.4715C3.30406 25.7113 3.36401 25.9444 3.40397 26.2309C3.47058 26.7238 3.30406 27.2366 2.51143 27.3432L2.1251 27.3965C1.51231 27.4831 1.07936 27.1967 0.992774 26.5839C0.906184 25.9578 1.25254 25.5848 1.86534 25.5048L2.09846 25.4715C2.15175 25.4582 2.19837 25.4782 2.20504 25.5315ZM1.91862 25.8778C1.43239 25.9444 1.27253 26.1576 1.32581 26.5306C1.3791 26.8969 1.61223 27.0768 2.07848 27.0102L2.11844 27.0035L1.95859 25.8712L1.91862 25.8778Z" fill="white"/>
<path d="M1.11266 24.0461C1.12598 24.2459 1.18593 24.4257 1.32581 24.6322L3.13088 24.539C3.17084 24.539 3.21747 24.5723 3.21747 24.6189L3.23079 24.832C3.23079 24.8787 3.19748 24.9186 3.15086 24.9186L0.952805 25.0319C0.906179 25.0319 0.866214 24.9986 0.866214 24.9519L0.852893 24.7521C0.846232 24.7055 0.886197 24.6655 0.932822 24.6655L1.02607 24.6589C0.866214 24.4524 0.799607 24.2526 0.786285 24.0594C0.786285 23.9995 0.806267 23.9661 0.859553 23.9661L1.03273 23.9595C1.07936 23.9528 1.106 23.9795 1.11266 24.0461Z" fill="white"/>
<path d="M3.23079 21.7949L3.22413 22.0014C3.22413 22.048 3.18417 22.088 3.13754 22.0813L1.7188 22.0214C1.28585 22.0014 1.14597 22.1479 1.13265 22.4743C1.12599 22.6542 1.18593 22.8607 1.27918 23.0605L3.09758 23.1337C3.13754 23.1337 3.18416 23.1737 3.1775 23.2203L3.17084 23.4335C3.17084 23.4801 3.13088 23.5134 3.08425 23.5134L0.8862 23.4268C0.839575 23.4268 0.79961 23.3869 0.806271 23.3402L0.812931 23.1271C0.812931 23.0805 0.852896 23.0472 0.899521 23.0472L0.97945 23.0538C0.859556 22.814 0.79961 22.6142 0.806271 22.3611C0.826253 21.8416 1.15929 21.6217 1.73212 21.6484L3.15086 21.7017C3.19749 21.7083 3.23745 21.7483 3.23079 21.7949Z" fill="white"/>
<path d="M3.51721 19.6834L3.4839 19.8832C3.47724 19.9298 3.43062 19.9631 3.38399 19.9565L3.29074 19.9431C3.37733 20.163 3.43728 20.3894 3.40397 20.6292C3.35069 20.9889 3.1442 21.3019 2.61134 21.222L2.55806 21.2154C2.09846 21.1487 1.9053 20.8424 2.01853 20.083L2.06516 19.77L1.89864 19.7367C1.53896 19.6834 1.39908 19.7899 1.3458 20.123C1.30583 20.4027 1.29251 20.6092 1.28585 20.7824C1.28585 20.7891 1.28585 20.7957 1.27919 20.8024C1.27253 20.8424 1.25255 20.8757 1.19926 20.869L1.04606 20.849C0.999436 20.8424 0.979454 20.809 0.979454 20.7491C0.972793 20.5693 0.979454 20.3694 1.01942 20.0764C1.10601 19.4836 1.43905 19.2904 1.94527 19.3637L3.43728 19.5835C3.4839 19.5901 3.52387 19.6368 3.51721 19.6834ZM2.33825 19.8033L2.29162 20.1163C2.21836 20.6292 2.31161 20.7824 2.61134 20.829L2.66463 20.8357C2.97102 20.8823 3.0776 20.7491 3.1109 20.5027C3.13754 20.3028 3.10424 20.123 3.02431 19.9032L2.33825 19.8033Z" fill="white"/>
<path d="M3.89021 18.0914C3.88355 18.178 3.86356 18.2913 3.84358 18.3712C3.75033 18.7575 3.60379 18.9174 3.1442 18.8108L1.67883 18.4645L1.53229 18.8574C1.51897 18.9041 1.48567 18.9307 1.43904 18.9174L1.32581 18.8907C1.27918 18.8774 1.2592 18.8375 1.26586 18.7908L1.36578 18.3845L0.952808 18.2846C0.912843 18.2713 0.8862 18.238 0.8862 18.1914L0.906182 17.9649C0.906182 17.9582 0.912843 17.9582 0.912843 17.9516C0.919503 17.9183 0.959468 17.8983 0.999433 17.9049L1.45903 18.0115L1.5656 17.5586C1.57892 17.512 1.62555 17.4853 1.67217 17.492L1.81871 17.5253C1.86533 17.5386 1.89198 17.5852 1.88532 17.6252L1.77874 18.0781L3.24411 18.4311C3.47724 18.4844 3.52386 18.4378 3.56383 18.2646L3.62378 18.0315C3.6371 17.9716 3.66374 17.9449 3.70371 17.9582L3.85024 17.9915C3.87689 18.0049 3.89687 18.0315 3.89021 18.0914Z" fill="white"/>
<path d="M1.47234 16.5727L1.40573 16.7859C1.39241 16.8325 1.34578 16.8591 1.29915 16.8458L0.966116 16.7459C0.919491 16.7326 0.892848 16.6859 0.90617 16.6393L0.972777 16.4262C0.986099 16.3795 1.03272 16.3529 1.07935 16.3662L1.41239 16.4661C1.46567 16.4795 1.48566 16.5261 1.47234 16.5727ZM4.10334 17.3853L4.04339 17.5851C4.03007 17.6318 3.98344 17.6584 3.93682 17.6451L1.83202 16.999C1.78539 16.9857 1.75875 16.939 1.77207 16.8924L1.83202 16.6926C1.84534 16.646 1.89196 16.6193 1.93859 16.6327L4.04339 17.2787C4.09002 17.2921 4.11666 17.3387 4.10334 17.3853Z" fill="white"/>
<path d="M4.62955 15.9799C4.39642 16.566 3.8902 16.7126 3.29739 16.4795L2.991 16.3596C2.39819 16.1264 2.13176 15.6735 2.36488 15.0807C2.59801 14.4945 3.11089 14.3414 3.69704 14.5745L4.00343 14.6944C4.59624 14.9342 4.86267 15.3938 4.62955 15.9799ZM3.56382 14.9342C3.15752 14.7676 2.83114 14.8342 2.67794 15.2073C2.5314 15.5803 2.71791 15.8467 3.13087 16.0132L3.43727 16.1331C3.84358 16.2996 4.16995 16.2397 4.32315 15.86C4.46969 15.487 4.28319 15.2206 3.87022 15.0541L3.56382 14.9342Z" fill="white"/>
<path d="M5.94839 13.1892L5.84848 13.369C5.8285 13.409 5.77521 13.4289 5.73525 13.4023L4.48303 12.7296C4.0967 12.5231 3.9102 12.5897 3.757 12.8761C3.67041 13.036 3.63711 13.2491 3.63045 13.4689L5.23569 14.3281C5.27566 14.3481 5.29564 14.4014 5.269 14.448L5.16908 14.6345C5.1491 14.6745 5.09582 14.6878 5.05585 14.6678L3.11757 13.6288C3.0776 13.6088 3.05762 13.5555 3.0776 13.5155L3.17751 13.3224C3.20416 13.2824 3.25078 13.2691 3.29075 13.2891L3.36402 13.329C3.35735 13.0559 3.39732 12.8561 3.51721 12.6296C3.76366 12.1701 4.15665 12.1234 4.66287 12.3899L5.91509 13.0626C5.95505 13.0892 5.97504 13.1425 5.94839 13.1892Z" fill="white"/>
<path d="M7.11401 11.4306L7.00078 11.5972C6.97414 11.6371 6.92085 11.6438 6.88089 11.6171L6.80096 11.5638C6.78097 11.8036 6.73435 12.0301 6.60113 12.2299C6.39465 12.5363 6.07493 12.7228 5.62866 12.4164L5.5887 12.3898C5.20237 12.13 5.16241 11.7703 5.60202 11.1376L5.78186 10.8778L5.63532 10.7779C5.33559 10.5714 5.16241 10.6047 4.97591 10.8845C4.81605 11.1176 4.71614 11.2974 4.62955 11.4506C4.62289 11.4573 4.62289 11.4639 4.61622 11.4706C4.59624 11.5039 4.56294 11.5305 4.51631 11.4972L4.38976 11.4107C4.34979 11.384 4.34313 11.344 4.36978 11.2908C4.44304 11.1242 4.5363 10.9511 4.70281 10.7046C5.04251 10.2117 5.42884 10.1851 5.84847 10.4715L7.09403 11.3241C7.13399 11.3374 7.14066 11.3907 7.11401 11.4306ZM6.00166 11.0243L5.82182 11.2908C5.52875 11.7237 5.54207 11.9035 5.79518 12.0767L5.83515 12.1034C6.08825 12.2766 6.24145 12.2033 6.38133 11.9968C6.49456 11.8303 6.54785 11.6571 6.56783 11.4173L6.00166 11.0243Z" fill="white"/>
<path d="M7.69352 10.7112L7.55364 10.8844C7.527 10.9177 7.47371 10.9243 7.44041 10.891L5.02921 8.96608C4.99591 8.93943 4.98259 8.89281 5.00923 8.85284L5.14911 8.67966C5.17575 8.64636 5.22237 8.6397 5.26234 8.66634L7.66688 10.5913C7.70684 10.6179 7.72016 10.6712 7.69352 10.7112Z" fill="white"/>
<path d="M9.57184 8.73309C9.07894 9.19268 8.44617 9.23931 7.79341 8.54659L7.41375 8.14028C6.76099 7.4409 6.84758 6.81479 7.34048 6.34853C7.83338 5.88228 8.46615 5.84232 9.1189 6.5417L9.49857 6.948C10.1513 7.64738 10.0714 8.26683 9.57184 8.73309ZM8.82583 6.81479C8.33293 6.28859 7.92663 6.28859 7.58027 6.6083C7.23391 6.92802 7.20726 7.34099 7.70016 7.86719L8.07982 8.2735C8.57272 8.7997 8.97903 8.7997 9.33205 8.47332C9.67175 8.1536 9.70505 7.7473 9.2055 7.2211L8.82583 6.81479Z" fill="white"/>
<path d="M10.2845 5.40942C10.1247 5.52932 10.0114 5.68251 9.92485 5.91564L11.0239 7.34771C11.0505 7.38101 11.0439 7.44096 11.0106 7.4676L10.844 7.59416C10.8107 7.6208 10.7574 7.61414 10.7241 7.57417L9.39199 5.82905C9.35869 5.78909 9.36535 5.74246 9.40531 5.70916L9.56517 5.58926C9.60513 5.56262 9.65176 5.56928 9.68506 5.60925L9.73835 5.68251C9.81828 5.43607 9.93817 5.26955 10.098 5.14965C10.1447 5.10969 10.1846 5.11635 10.2179 5.15631L10.3245 5.29619C10.3378 5.33615 10.3312 5.36946 10.2845 5.40942Z" fill="white"/>
<path d="M12.2362 4.11042L12.1229 4.21699C12.2295 4.24364 12.356 4.3169 12.4826 4.51673L12.5026 4.54337C12.7557 4.94302 12.6491 5.32268 12.0896 5.68236C11.8965 5.80226 11.7566 5.85554 11.6234 5.87552C11.5834 5.94213 11.5767 6.00208 11.61 6.05537C11.65 6.11531 11.6966 6.12863 11.7965 6.10199L12.4293 5.89551C12.8423 5.76229 13.2486 5.6424 13.4684 5.9821L13.4884 6.00874C13.7082 6.3551 13.6149 6.72144 13.0155 7.1011C12.4426 7.46745 12.0363 7.41416 11.8099 7.05448L11.7899 7.02118C11.6633 6.82135 11.6633 6.58157 11.7233 6.41505L11.69 6.42171C11.5434 6.44835 11.4169 6.3551 11.3436 6.24187V6.23521C11.277 6.13529 11.2637 6.00208 11.3236 5.87552C11.1438 5.84222 11.0039 5.74897 10.884 5.56247L10.864 5.52916C10.6576 5.20279 10.6376 4.76984 11.2637 4.37019L12.0563 3.86397C12.1029 3.83733 12.1629 3.84399 12.1895 3.89062L12.2495 3.98387C12.2894 4.04381 12.2761 4.07712 12.2362 4.11042ZM12.1695 4.71655C12.0297 4.49674 11.8232 4.39017 11.4302 4.64328C11.0239 4.90305 11.0572 5.14284 11.1904 5.34932L11.2104 5.37597C11.3103 5.53582 11.5168 5.70234 11.9364 5.43591C12.3294 5.18947 12.3294 4.96966 12.1895 4.75652L12.1695 4.71655ZM13.1487 6.18858C13.0554 6.04204 12.9022 6.06203 12.5226 6.18858L12.043 6.34844C11.9964 6.5083 11.983 6.64151 12.1029 6.83467L12.1229 6.86798C12.2495 7.0678 12.456 7.12109 12.8556 6.86132C13.2686 6.59489 13.2886 6.42171 13.162 6.22188L13.1487 6.18858Z" fill="white"/>
<path d="M15.1202 4.98293L14.9404 5.06952C14.9004 5.08951 14.8472 5.07618 14.8272 5.02956L14.7872 4.94297C14.654 5.14279 14.5008 5.31597 14.281 5.4292C13.9546 5.58906 13.5816 5.59572 13.3418 5.10949L13.3152 5.06286C13.1087 4.64323 13.2486 4.31686 13.9413 3.97716L14.2277 3.83728L14.1544 3.68408C13.9946 3.35771 13.8281 3.30442 13.5217 3.45096C13.2686 3.57085 13.0887 3.68408 12.9422 3.77067C12.9355 3.77733 12.9289 3.77733 12.9222 3.784C12.8889 3.80398 12.8489 3.81064 12.8223 3.75735L12.7557 3.61748C12.7357 3.57751 12.749 3.53755 12.8023 3.50424C12.9488 3.39767 13.1154 3.28444 13.3751 3.15788C13.9146 2.89145 14.261 3.05797 14.4875 3.5109L15.1536 4.86304C15.1802 4.90966 15.1602 4.96295 15.1202 4.98293ZM14.3476 4.08373L14.0612 4.22361C13.5949 4.45673 13.5217 4.62325 13.6549 4.89634L13.6815 4.94297C13.8147 5.22272 13.9879 5.22938 14.2077 5.12281C14.3876 5.03622 14.5208 4.903 14.654 4.70984L14.3476 4.08373Z" fill="white"/>
<path d="M17.2584 4.16375L17.0652 4.23702C17.0186 4.25034 16.9719 4.23036 16.9586 4.18373L16.4724 2.85158C16.3258 2.43861 16.1393 2.36534 15.833 2.47858C15.6598 2.53852 15.4933 2.6784 15.3401 2.83826L15.9595 4.55008C15.9728 4.59004 15.9528 4.64333 15.9062 4.65665L15.7064 4.72992C15.6664 4.74324 15.6131 4.72326 15.5998 4.67663L14.8472 2.60513C14.8338 2.55851 14.8538 2.51188 14.8938 2.49856L15.1003 2.42529C15.1469 2.40531 15.1869 2.43195 15.2068 2.47858L15.2335 2.55851C15.4133 2.35202 15.5732 2.22547 15.813 2.13888C16.2992 1.95904 16.6256 2.1855 16.8254 2.72503L17.3116 4.05718C17.325 4.09714 17.305 4.14377 17.2584 4.16375Z" fill="white"/>
<path d="M17.4382 1.26641L17.2251 1.32636C17.1784 1.33968 17.1318 1.31304 17.1185 1.26641L17.0252 0.933376C17.0119 0.886751 17.0386 0.840126 17.0852 0.826804L17.2983 0.766857C17.345 0.753535 17.3916 0.780179 17.4049 0.826804L17.4982 1.15984C17.5115 1.19981 17.4848 1.25309 17.4382 1.26641ZM18.1509 3.9174L17.9511 3.97069C17.9045 3.98401 17.8578 3.95737 17.8445 3.91074L17.265 1.78595C17.2517 1.73933 17.2784 1.6927 17.325 1.67938L17.5248 1.6261C17.5714 1.61278 17.6181 1.63942 17.6314 1.68604L18.2109 3.81083C18.2242 3.85745 18.1975 3.91074 18.1509 3.9174Z" fill="white"/>
<path d="M20.2158 3.47104L18.9369 3.72415C18.757 3.75745 18.6571 3.65754 18.6305 3.53764L18.6172 3.45772C18.5905 3.33782 18.6038 3.27121 18.6638 3.16464L19.4897 1.58604C19.4964 1.57272 19.5031 1.5594 19.5031 1.54607C19.4964 1.52609 19.4897 1.51943 19.4564 1.52609L18.424 1.72592C18.3774 1.73924 18.3308 1.70593 18.3241 1.65931L18.2975 1.51277C18.2841 1.46614 18.3174 1.41952 18.3641 1.41286L19.6096 1.17307C19.7828 1.13977 19.8627 1.20638 19.8894 1.33293L19.9094 1.43284C19.9293 1.51943 19.9094 1.5927 19.8561 1.68595L19.0102 3.29786C18.9968 3.31784 18.9968 3.33782 18.9968 3.35114C19.0035 3.37112 19.0102 3.38445 19.0368 3.37779L20.1558 3.15798C20.2024 3.14466 20.2491 3.17796 20.2557 3.22459L20.2824 3.37113C20.289 3.41775 20.2557 3.46438 20.2158 3.47104Z" fill="white"/>
<path d="M22.234 3.25782L22.0341 3.2778C21.9875 3.28446 21.9475 3.24449 21.9409 3.19787L21.9342 3.10462C21.7411 3.2445 21.5346 3.35107 21.2948 3.37771C20.9284 3.41101 20.5821 3.28446 20.5288 2.74494L20.5221 2.69165C20.4822 2.2254 20.7286 1.97229 21.4946 1.89902L21.8143 1.87238L21.801 1.6992C21.7677 1.33951 21.6345 1.22628 21.2948 1.25292C21.015 1.27957 20.8086 1.31287 20.642 1.34618C20.6354 1.34618 20.6287 1.34618 20.6221 1.35284C20.5821 1.3595 20.5421 1.34618 20.5421 1.29289L20.5288 1.13969C20.5221 1.09307 20.5488 1.06642 20.6087 1.0531C20.7819 1.00648 20.9751 0.959851 21.2681 0.933208C21.8676 0.879922 22.134 1.15967 22.1807 1.66589L22.3205 3.16457C22.3139 3.21119 22.2806 3.25116 22.234 3.25782ZM21.8343 2.13881L21.5146 2.17211C20.9951 2.21874 20.8685 2.34529 20.8951 2.65169L20.9018 2.70497C20.9284 3.01137 21.0816 3.07798 21.3348 3.05799C21.5346 3.03801 21.7011 2.96474 21.9009 2.83153L21.8343 2.13881Z" fill="white"/>
<path d="M23.8858 3.23804C23.7992 3.25136 23.686 3.26469 23.6061 3.26469C23.2064 3.27135 23.0199 3.17144 23.0066 2.69186L22.9866 1.18653L22.567 1.14656C22.5204 1.1399 22.4871 1.11326 22.4804 1.06663V0.953399C22.4804 0.906774 22.5137 0.87347 22.5603 0.87347L22.98 0.866809L22.9733 0.44052C22.9733 0.400555 22.9999 0.360591 23.0466 0.35393L23.273 0.313965C23.2797 0.313965 23.2864 0.313965 23.2864 0.313965C23.3197 0.313965 23.353 0.340608 23.353 0.387234L23.3596 0.860149L23.8259 0.853488C23.8725 0.853488 23.9125 0.893452 23.9125 0.940078L23.9191 1.08661C23.9191 1.13324 23.8792 1.1732 23.8325 1.1732L23.3663 1.17986L23.3929 2.6852C23.3996 2.92499 23.4595 2.95829 23.6327 2.95163L23.8725 2.94497C23.9325 2.94497 23.9658 2.95829 23.9658 3.00492V3.15811C23.9591 3.20474 23.9391 3.23138 23.8858 3.23804Z" fill="white"/>
<path d="M24.6385 3.27783L24.432 3.26451C24.3854 3.26451 24.3521 3.21788 24.3521 3.17126L24.4786 0.973202C24.4853 0.926576 24.5253 0.893273 24.5719 0.893273L24.7784 0.906594C24.825 0.913255 24.8583 0.953219 24.8583 0.999844L24.7317 3.1979C24.7251 3.24452 24.6851 3.28449 24.6385 3.27783ZM24.805 0.53359L24.5852 0.520269C24.5386 0.520269 24.5053 0.473644 24.5053 0.427019L24.5253 0.080658C24.5319 0.0340326 24.5719 -0.00593183 24.6185 0.000728934L24.8383 0.0140503C24.8849 0.020711 24.9182 0.0606763 24.9182 0.107302L24.8983 0.453661C24.8916 0.500287 24.8516 0.53359 24.805 0.53359Z" fill="white"/>
<path d="M26.1239 3.45779C25.4911 3.3712 25.2313 2.91161 25.3179 2.2855L25.3645 1.95912C25.4511 1.33301 25.8241 0.960004 26.4569 1.04659C27.0897 1.13318 27.3561 1.59278 27.2695 2.21889L27.2229 2.54527C27.1363 3.17138 26.7566 3.54438 26.1239 3.45779ZM26.8899 2.1656C26.9498 1.72599 26.8099 1.42626 26.4103 1.37297C26.0106 1.31969 25.7975 1.57279 25.7375 2.0124L25.6909 2.33878C25.631 2.77839 25.7642 3.07813 26.1705 3.13141C26.5701 3.1847 26.7833 2.93159 26.8432 2.49198L26.8899 2.1656Z" fill="white"/>
<path d="M29.1545 4.06389L28.9547 4.0106C28.9081 3.99728 28.8814 3.95066 28.8947 3.90403L29.2478 2.52525C29.3543 2.09896 29.2478 1.9391 28.9281 1.85251C28.7549 1.80589 28.5417 1.82587 28.3219 1.8725L27.869 3.6376C27.8557 3.67757 27.809 3.71087 27.7624 3.69755L27.5559 3.64426C27.516 3.63094 27.4893 3.58431 27.496 3.54435L28.0422 1.40624C28.0555 1.35962 28.0955 1.33298 28.1421 1.33964L28.3486 1.39292C28.3952 1.40624 28.4218 1.45287 28.4085 1.49283L28.3885 1.57276C28.6483 1.49949 28.8548 1.48617 29.1012 1.55278C29.6008 1.67933 29.7473 2.05234 29.6074 2.61184L29.2544 3.99062C29.2478 4.04391 29.2011 4.07721 29.1545 4.06389Z" fill="white"/>
<path d="M32.8113 2.25223L32.6181 2.1723C32.4316 2.09237 32.3517 2.12567 32.2651 2.34548L32.1452 2.63189L32.5648 2.80507C32.6115 2.82505 32.6248 2.87168 32.6115 2.91164L32.5448 3.06484C32.5249 3.1048 32.4849 3.11813 32.4449 3.1048L32.0253 2.93162L31.2726 4.75001C31.2527 4.78998 31.206 4.81662 31.1661 4.79664L30.9729 4.71671C30.9263 4.69673 30.913 4.64344 30.9263 4.60348L31.6789 2.78509L31.3126 2.5786C31.2726 2.55862 31.2527 2.51866 31.266 2.47869L31.3126 2.37212C31.3326 2.33216 31.3726 2.31217 31.4192 2.33216L31.8055 2.49201L31.9254 2.2056C32.1052 1.77931 32.365 1.73269 32.7114 1.87922C32.8179 1.92585 32.8779 1.95915 32.9245 1.99246C32.9645 2.02576 32.9911 2.0524 32.9778 2.08571L32.9245 2.21892C32.8912 2.26555 32.8579 2.26555 32.8113 2.25223Z" fill="white"/>
<path d="M32.7047 5.55588C32.1452 5.2628 32.0519 4.74326 32.345 4.1771L32.4982 3.88402C32.7913 3.32452 33.2708 3.10471 33.837 3.39779C34.3965 3.69086 34.4964 4.2104 34.1967 4.77657L34.0435 5.06964C33.7504 5.63581 33.2642 5.84895 32.7047 5.55588ZM33.8637 4.60339C34.0701 4.21706 34.0435 3.88402 33.6838 3.69752C33.3308 3.51102 33.0444 3.67088 32.8379 4.06387L32.6847 4.35694C32.4782 4.74326 32.5049 5.0763 32.8645 5.2628C33.2176 5.44931 33.504 5.28945 33.7171 4.89646L33.8637 4.60339Z" fill="white"/>
<path d="M35.8552 4.98964C35.6887 4.88307 35.5089 4.82978 35.2558 4.82312L34.2766 6.34178C34.25 6.37508 34.1967 6.39506 34.1567 6.36842L33.9769 6.25519C33.9436 6.22854 33.9303 6.17526 33.9569 6.13529L35.1425 4.29026C35.1692 4.2503 35.2158 4.23697 35.2558 4.26362L35.429 4.37019C35.4689 4.39683 35.4756 4.45012 35.4489 4.48342L35.4023 4.55669C35.6687 4.54337 35.8619 4.60998 36.0218 4.70989C36.075 4.74319 36.0817 4.78316 36.0551 4.82312L35.9618 4.96966C35.9418 5.01628 35.9019 5.02295 35.8552 4.98964Z" fill="white"/>
<path d="M36.4414 8.08689C36.2149 7.88707 36.0617 7.72055 35.9418 7.57401C35.8952 7.51407 35.9019 7.50075 35.9285 7.46078L36.0417 7.33423C36.075 7.30092 36.115 7.30092 36.1416 7.32757C36.1483 7.33423 36.1483 7.33423 36.155 7.33423C36.2948 7.48076 36.528 7.68725 36.6745 7.82046C37.0675 8.16016 37.3073 8.09356 37.5071 7.86043C37.647 7.70057 37.6337 7.52739 37.4938 7.08778L37.3406 6.62153C37.2007 6.17525 37.194 5.88218 37.4205 5.62241C37.7602 5.22943 38.1998 5.28937 38.6994 5.71566C38.8925 5.88218 39.1257 6.11531 39.2322 6.24186C39.2589 6.27516 39.2655 6.31513 39.2389 6.34843L39.119 6.48831C39.0924 6.52161 39.0524 6.52161 39.0191 6.49497C39.0124 6.48831 39.0124 6.48831 39.0124 6.48831C38.8726 6.35509 38.6594 6.14861 38.4662 5.98209C38.1265 5.68902 37.9267 5.64239 37.7202 5.87552C37.587 6.02872 37.6137 6.21522 37.7336 6.58156L37.8801 7.02117C38.0666 7.57402 38.0466 7.86709 37.8202 8.12686C37.5404 8.43992 37.0875 8.63974 36.4414 8.08689Z" fill="white"/>
<path d="M38.2598 9.79214C38.1932 9.73885 38.1066 9.66558 38.0466 9.60563C37.7669 9.31922 37.7136 9.11274 38.0533 8.7797L39.1257 7.7273L38.8659 7.39426C38.8326 7.36095 38.8326 7.31433 38.8659 7.28102L38.9525 7.20109C38.9858 7.16779 39.0324 7.17445 39.0657 7.20776L39.3588 7.50749L39.6585 7.21442C39.6918 7.18111 39.7384 7.18111 39.7718 7.20776L39.9516 7.34097L39.9583 7.34763C39.9849 7.37428 39.9849 7.41424 39.9516 7.44754L39.6119 7.77392L39.9383 8.10696C39.9716 8.14026 39.9716 8.19355 39.9383 8.22685L39.8317 8.32677C39.7984 8.36007 39.7451 8.36007 39.7118 8.32677L39.3854 7.99373L38.313 9.04613C38.1465 9.21265 38.1598 9.27925 38.2797 9.39915L38.4463 9.57233C38.4862 9.61895 38.4995 9.65226 38.4662 9.6789L38.3597 9.78547C38.3397 9.82544 38.3064 9.82544 38.2598 9.79214Z" fill="white"/>
<path d="M39.512 11.2775L39.3854 11.1243C39.3521 11.0843 39.3588 11.031 39.3988 11.0044L39.472 10.9444C39.2456 10.8578 39.0391 10.7512 38.8859 10.5647C38.6528 10.2783 38.5662 9.91865 38.9791 9.57895L39.0191 9.54565C39.3788 9.25258 39.7318 9.31252 40.218 9.91199L40.4179 10.1584L40.5511 10.0519C40.8308 9.8254 40.8508 9.64556 40.6377 9.38579C40.4578 9.16599 40.3179 9.01945 40.1914 8.8929C40.1847 8.88624 40.1847 8.87957 40.1781 8.87291C40.1514 8.83961 40.1381 8.8063 40.1847 8.773L40.298 8.67975C40.3379 8.64645 40.3712 8.65311 40.4179 8.69973C40.5511 8.81963 40.6976 8.95284 40.8841 9.17931C41.2638 9.64556 41.1838 10.0252 40.7842 10.3449L39.6186 11.2974C39.5919 11.3174 39.5386 11.3108 39.512 11.2775ZM40.218 10.325L40.0182 10.0785C39.6918 9.67221 39.512 9.6389 39.2722 9.83206L39.2322 9.86537C38.9925 10.0585 39.0191 10.225 39.179 10.4249C39.3055 10.5781 39.4654 10.678 39.6785 10.7646L40.218 10.325Z" fill="white"/>
<path d="M40.7709 13.1559L40.6577 12.9827C40.631 12.9428 40.6443 12.8895 40.6843 12.8628L41.8766 12.0902C42.2429 11.8504 42.2762 11.6572 42.0964 11.3841C41.9965 11.2309 41.8299 11.0977 41.6368 10.9845L40.1048 11.977C40.0715 12.0036 40.0116 11.9903 39.9849 11.9503L39.8717 11.7705C39.845 11.7305 39.8584 11.6772 39.8983 11.6572L41.7434 10.465C41.7833 10.4383 41.8366 10.445 41.8633 10.4849L41.9765 10.6648C42.0031 10.7047 41.9898 10.758 41.9498 10.778L41.8832 10.8246C42.123 10.9512 42.2829 11.0778 42.4228 11.2909C42.7025 11.7238 42.556 12.0968 42.0764 12.4099L40.8841 13.1826C40.8508 13.2092 40.7975 13.1959 40.7709 13.1559Z" fill="white"/>
<path d="M41.8299 15.1075C41.6634 14.8944 41.5302 14.6679 41.4103 14.4281C41.1239 13.8553 41.3637 13.4024 41.9432 13.1093L42.2229 12.9694C42.8291 12.6697 43.3086 12.7762 43.5884 13.3424C43.6483 13.4623 43.7283 13.6488 43.7749 13.8153L44.4943 13.4556C44.5342 13.4357 44.5808 13.449 44.6008 13.4956L44.7007 13.6954C44.7207 13.7354 44.7007 13.782 44.6608 13.802L41.9632 15.1475C41.9099 15.1675 41.8766 15.1741 41.8299 15.1075ZM43.4885 13.9619C43.4485 13.822 43.3553 13.6222 43.2887 13.4956C43.1022 13.1159 42.8024 13.1093 42.3895 13.3158L42.1097 13.4556C41.6901 13.6621 41.5102 13.9019 41.7034 14.2816C41.77 14.4148 41.8766 14.5946 41.9498 14.7212L43.4885 13.9619Z" fill="white"/>
<path d="M42.5693 17.1191L42.5027 16.9326C42.4827 16.8859 42.5093 16.8393 42.556 16.8193L42.6426 16.786C42.4561 16.6328 42.2962 16.4663 42.2096 16.2398C42.0831 15.8935 42.1164 15.5271 42.6226 15.334L42.6692 15.314C43.1088 15.1475 43.4152 15.3273 43.6883 16.0467L43.8015 16.3464L43.9614 16.2865C44.3011 16.1599 44.3744 16 44.2545 15.687C44.1546 15.4206 44.068 15.2341 43.9947 15.0809C43.9947 15.0742 43.988 15.0675 43.988 15.0609C43.9747 15.0276 43.9747 14.9809 44.028 14.9676L44.1679 14.9143C44.2145 14.8944 44.2478 14.9143 44.2744 14.9676C44.361 15.1208 44.461 15.3007 44.5609 15.5738C44.7673 16.1399 44.5675 16.4663 44.0946 16.6461L42.6825 17.1723C42.6359 17.1857 42.5826 17.1657 42.5693 17.1191ZM43.5418 16.4463L43.4285 16.1466C43.2487 15.6603 43.0888 15.5671 42.8024 15.6737L42.7558 15.6936C42.4627 15.8002 42.4361 15.9667 42.5227 16.1999C42.5893 16.3864 42.7092 16.5329 42.889 16.6861L43.5418 16.4463Z" fill="white"/>
<path d="M44.9805 18.0382C44.9272 17.8451 44.8273 17.6852 44.6474 17.512L42.9023 17.9916C42.8624 18.0049 42.8091 17.9783 42.7958 17.9317L42.7358 17.7252C42.7225 17.6852 42.7558 17.6386 42.7958 17.6253L44.9205 17.0391C44.9672 17.0258 45.0138 17.0524 45.0271 17.0924L45.0804 17.2856C45.0937 17.3322 45.0671 17.3721 45.0204 17.3855L44.9339 17.4121C45.1337 17.5786 45.2469 17.7585 45.2935 17.945C45.3135 18.0049 45.2935 18.0382 45.2403 18.0515L45.0671 18.0982C45.0338 18.1182 45.0005 18.0982 44.9805 18.0382Z" fill="white"/>
<path d="M43.4019 20.4892C43.302 20.2361 43.2354 19.983 43.1821 19.7232C43.0622 19.0905 43.4219 18.7241 44.0546 18.6042L44.361 18.5443C45.0271 18.4244 45.4601 18.6575 45.5733 19.277C45.5999 19.4102 45.6199 19.61 45.6266 19.7832L46.4126 19.6367C46.4525 19.63 46.4991 19.6566 46.5058 19.7033L46.5458 19.9164C46.5524 19.9564 46.5258 19.9963 46.4792 20.0097L43.5085 20.5625C43.4618 20.5692 43.4285 20.5625 43.4019 20.4892ZM45.3135 19.8431C45.3135 19.6966 45.2736 19.4768 45.2469 19.3436C45.167 18.924 44.8872 18.8374 44.4343 18.924L44.1279 18.9772C43.6617 19.0638 43.4352 19.2437 43.5085 19.6633C43.5351 19.8098 43.5884 20.0163 43.6284 20.1562L45.3135 19.8431Z" fill="white"/>
<path d="M43.4552 21.4019L43.4352 21.1954C43.4285 21.1488 43.4618 21.1088 43.5084 21.1021L45.6998 20.8757C45.7465 20.869 45.7864 20.9023 45.7931 20.9489L45.8131 21.1554C45.8197 21.202 45.7798 21.242 45.7331 21.2487L43.5484 21.4751C43.5018 21.4818 43.4618 21.4485 43.4552 21.4019ZM46.1927 21.1221L46.1661 20.9023C46.1594 20.8557 46.1994 20.8157 46.246 20.8091L46.5924 20.7758C46.639 20.7691 46.679 20.8024 46.6856 20.849L46.7056 21.0688C46.7123 21.1154 46.679 21.1621 46.6323 21.1621L46.286 21.1954C46.246 21.202 46.1994 21.1687 46.1927 21.1221Z" fill="white"/>
<path d="M43.5684 23.5133L43.5284 22.2078C43.5218 22.0213 43.635 21.9414 43.7549 21.9347H43.8348C43.9547 21.928 44.0213 21.9547 44.1213 22.0213L45.54 23.0937C45.5533 23.1003 45.5666 23.1137 45.58 23.1137C45.5999 23.1137 45.6133 23.1003 45.6066 23.067L45.5733 22.0146C45.5733 21.968 45.6133 21.928 45.6599 21.928L45.8064 21.9214C45.8531 21.9214 45.893 21.9547 45.893 22.0013L45.933 23.2735C45.9396 23.4534 45.8597 23.52 45.7265 23.52L45.6199 23.5266C45.5267 23.5333 45.4601 23.5 45.3801 23.4334L43.9214 22.341C43.9015 22.321 43.8881 22.321 43.8748 22.321C43.8548 22.321 43.8415 22.3277 43.8415 22.3543L43.8748 23.4933C43.8748 23.54 43.8415 23.5799 43.7882 23.5799H43.6417C43.6084 23.5999 43.5684 23.5666 43.5684 23.5133Z" fill="white"/>
<path d="M43.4552 25.5715L43.4685 25.3716C43.4751 25.325 43.5151 25.2917 43.5617 25.2917L43.655 25.2984C43.5484 25.0852 43.4751 24.8588 43.4885 24.619C43.5151 24.2526 43.695 23.9263 44.2345 23.9662H44.2878C44.754 23.9995 44.9672 24.2859 44.9139 25.0519L44.8939 25.3716L45.0671 25.385C45.4268 25.4116 45.56 25.2984 45.5866 24.9587C45.6066 24.6789 45.6066 24.4724 45.5999 24.2993C45.5999 24.2926 45.5999 24.2859 45.5999 24.2793C45.5999 24.2393 45.6199 24.206 45.6732 24.206L45.8264 24.2193C45.873 24.2193 45.8997 24.2526 45.8997 24.3192C45.9196 24.4991 45.933 24.6989 45.913 24.992C45.873 25.5914 45.5533 25.8112 45.0404 25.7779L43.5351 25.6714C43.4885 25.6647 43.4485 25.6181 43.4552 25.5715ZM44.6208 25.3583L44.6408 25.0386C44.6807 24.5191 44.5742 24.3725 44.2678 24.3525L44.2145 24.3459C43.9014 24.3259 43.8082 24.4658 43.7949 24.7122C43.7815 24.912 43.8282 25.0919 43.9281 25.305L44.6208 25.3583Z" fill="white"/>
<path d="M43.2021 27.2034C43.2021 27.1168 43.2154 27.0036 43.2287 26.9236C43.2886 26.5307 43.4219 26.3575 43.8881 26.4307L45.3735 26.6639L45.4867 26.2576C45.5 26.2109 45.5267 26.1843 45.5733 26.191L45.6865 26.2109C45.7332 26.2176 45.7598 26.2576 45.7531 26.3042L45.6865 26.7172L46.1062 26.7838C46.1461 26.7904 46.1794 26.8237 46.1794 26.8703V27.0968C46.1794 27.1035 46.1794 27.1035 46.1794 27.1101C46.1728 27.1434 46.1395 27.1701 46.0995 27.1634L45.6332 27.0902L45.56 27.5497C45.5533 27.5964 45.5067 27.6297 45.4601 27.623L45.3135 27.5964C45.2669 27.5897 45.2336 27.5431 45.2403 27.4965L45.3135 27.0369L43.8215 26.8037C43.5884 26.7638 43.5418 26.8237 43.5151 26.9902L43.4752 27.23C43.4618 27.29 43.4418 27.3166 43.4019 27.31L43.2487 27.2833C43.2287 27.2833 43.2021 27.2567 43.2021 27.2034Z" fill="white"/>
<path d="M43.0489 27.9293L43.0955 27.7295C43.1088 27.6829 43.1554 27.6562 43.1954 27.6629L45.3468 28.1425C45.3935 28.1558 45.4201 28.1957 45.4134 28.2424L45.3668 28.4422C45.3535 28.4888 45.3069 28.5155 45.2669 28.5088L43.1155 28.0292C43.0688 28.0226 43.0422 27.9759 43.0489 27.9293ZM45.7398 28.5354L45.7864 28.3223C45.7931 28.2757 45.8397 28.249 45.8864 28.2557L46.2261 28.329C46.2727 28.3356 46.2993 28.3822 46.2927 28.4289L46.246 28.642C46.2327 28.6886 46.1861 28.7153 46.1461 28.7086L45.8064 28.6353C45.7598 28.6287 45.7265 28.5821 45.7398 28.5354Z" fill="white"/>
<path d="M42.6426 29.3614C42.8291 28.7553 43.322 28.5688 43.9281 28.7553L44.2411 28.8485C44.8473 29.035 45.1537 29.468 44.9672 30.0741C44.7807 30.6802 44.2878 30.8734 43.6816 30.6869L43.3686 30.5936C42.7558 30.4005 42.4561 29.9609 42.6426 29.3614ZM43.7882 30.3205C44.2078 30.4471 44.5276 30.3605 44.6474 29.9742C44.7607 29.5879 44.5542 29.3414 44.1279 29.2082L43.8148 29.1149C43.3952 28.9884 43.0755 29.0683 42.9556 29.4546C42.8357 29.841 43.0489 30.0941 43.4752 30.2206L43.7882 30.3205Z" fill="white"/>
<path d="M41.5569 32.2323L41.6368 32.0458C41.6568 31.9992 41.71 31.9792 41.75 31.9992L43.0489 32.5654C43.4485 32.7386 43.6283 32.6586 43.7616 32.3589C43.8348 32.1924 43.8482 31.9792 43.8415 31.7594L42.1696 31.0334C42.1297 31.0201 42.1097 30.9668 42.123 30.9202L42.2096 30.727C42.2296 30.687 42.2762 30.6671 42.3228 30.687L44.3344 31.5663C44.381 31.5862 44.401 31.6329 44.381 31.6728L44.2944 31.8727C44.2744 31.9193 44.2278 31.9326 44.1812 31.9126L44.1079 31.8793C44.1346 32.1524 44.1212 32.3522 44.0147 32.5854C43.8082 33.0583 43.4152 33.1449 42.8957 32.9117L41.5968 32.3456C41.5568 32.3256 41.5369 32.2723 41.5569 32.2323Z" fill="white"/>
<path d="M13.1264 46V45.352C13.5477 44.9573 13.9184 44.6 14.2384 44.28C14.5584 43.9547 14.8091 43.656 14.9904 43.384C15.1717 43.112 15.2624 42.8613 15.2624 42.632C15.2624 42.392 15.2011 42.208 15.0784 42.08C14.9557 41.952 14.7851 41.888 14.5664 41.888C14.3904 41.888 14.2304 41.9413 14.0864 42.048C13.9477 42.1493 13.8171 42.264 13.6944 42.392L13.0784 41.776C13.3184 41.52 13.5637 41.328 13.8144 41.2C14.0651 41.0667 14.3664 41 14.7184 41C15.0437 41 15.3264 41.064 15.5664 41.192C15.8117 41.32 16.0037 41.5013 16.1424 41.736C16.2811 41.9707 16.3504 42.248 16.3504 42.568C16.3504 42.84 16.2731 43.12 16.1184 43.408C15.9691 43.6907 15.7744 43.976 15.5344 44.264C15.2944 44.5467 15.0411 44.8267 14.7744 45.104C14.8971 45.0933 15.0357 45.0827 15.1904 45.072C15.3451 45.056 15.4811 45.048 15.5984 45.048H16.5824V46H13.1264ZM18.1485 46C18.1805 45.456 18.2392 44.968 18.3245 44.536C18.4152 44.0987 18.5485 43.6827 18.7245 43.288C18.9059 42.888 19.1512 42.4747 19.4605 42.048H17.2605V41.096H20.6765V41.792C20.3939 42.1333 20.1645 42.456 19.9885 42.76C19.8179 43.064 19.6845 43.376 19.5885 43.696C19.4979 44.0107 19.4312 44.3547 19.3885 44.728C19.3459 45.096 19.3139 45.52 19.2925 46H18.1485ZM23.0427 46.088C22.5147 46.088 22.088 45.872 21.7627 45.44C21.4427 45.0027 21.2827 44.3653 21.2827 43.528C21.2827 42.6907 21.4427 42.0613 21.7627 41.64C22.088 41.2133 22.5147 41 23.0427 41C23.5707 41 23.9947 41.2133 24.3147 41.64C24.6347 42.0667 24.7947 42.696 24.7947 43.528C24.7947 44.3653 24.6347 45.0027 24.3147 45.44C23.9947 45.872 23.5707 46.088 23.0427 46.088ZM23.0427 45.216C23.1707 45.216 23.2853 45.168 23.3867 45.072C23.4933 44.976 23.576 44.8053 23.6347 44.56C23.6933 44.3147 23.7227 43.9707 23.7227 43.528C23.7227 43.08 23.6933 42.7387 23.6347 42.504C23.576 42.264 23.4933 42.1013 23.3867 42.016C23.2853 41.9253 23.1707 41.88 23.0427 41.88C22.9147 41.88 22.8 41.9253 22.6987 42.016C22.5973 42.1013 22.5147 42.264 22.4507 42.504C22.392 42.7387 22.3627 43.08 22.3627 43.528C22.3627 43.9707 22.392 44.3147 22.4507 44.56C22.5147 44.8053 22.5973 44.976 22.6987 45.072C22.8 45.168 22.9147 45.216 23.0427 45.216ZM27.1208 46.088C26.5928 46.088 26.1661 45.872 25.8408 45.44C25.5208 45.0027 25.3608 44.3653 25.3608 43.528C25.3608 42.6907 25.5208 42.0613 25.8408 41.64C26.1661 41.2133 26.5928 41 27.1208 41C27.6488 41 28.0728 41.2133 28.3928 41.64C28.7128 42.0667 28.8728 42.696 28.8728 43.528C28.8728 44.3653 28.7128 45.0027 28.3928 45.44C28.0728 45.872 27.6488 46.088 27.1208 46.088ZM27.1208 45.216C27.2488 45.216 27.3634 45.168 27.4648 45.072C27.5714 44.976 27.6541 44.8053 27.7128 44.56C27.7714 44.3147 27.8008 43.9707 27.8008 43.528C27.8008 43.08 27.7714 42.7387 27.7128 42.504C27.6541 42.264 27.5714 42.1013 27.4648 42.016C27.3634 41.9253 27.2488 41.88 27.1208 41.88C26.9928 41.88 26.8781 41.9253 26.7768 42.016C26.6754 42.1013 26.5928 42.264 26.5288 42.504C26.4701 42.7387 26.4408 43.08 26.4408 43.528C26.4408 43.9707 26.4701 44.3147 26.5288 44.56C26.5928 44.8053 26.6754 44.976 26.7768 45.072C26.8781 45.168 26.9928 45.216 27.1208 45.216ZM29.6949 46V45.088H30.7669V42.248H29.8469V41.536C30.1136 41.488 30.3402 41.4293 30.5269 41.36C30.7136 41.2853 30.8922 41.1973 31.0629 41.096H31.9029V45.088H32.8229V46H29.6949Z" fill="white"/>
</svg>
