<?xml version="1.0" encoding="iso-8859-1"?>
<!-- Uploaded to: SVG Repo, www.svgrepo.com, Generator: SVG Repo Mixer Tools -->
<svg height="800px" width="800px" version="1.1" id="Layer_1" xmlns="http://www.w3.org/2000/svg" xmlns:xlink="http://www.w3.org/1999/xlink" 
	 viewBox="0 0 512.001 512.001" xml:space="preserve">
<g>
	<path style="fill:#EFBBAB;" d="M480.278,447.966c3.718-3.705,3.527-9.782-0.415-13.247l-23.725-20.855l-74.5-65.489l-29.052-25.538
		c-16.356-14.377-24.635-35.852-22.164-57.488l6.935-60.718c3.032-26.541-1.081-53.41-11.911-77.829L271.349,4.822
		c-3.545-7.992-15.489-5.463-15.489,3.281v283.325c0,24.23,8.49,47.695,23.996,66.314l37.729,45.307l63.38,76.11l24.33,29.517
		c3.404,4.129,9.623,4.433,13.413,0.655L480.278,447.966z"/>
	<path style="fill:#EFBBAB;" d="M31.711,447.982c-3.706-3.707-3.51-9.775,0.427-13.235l23.738-20.868l74.5-65.489l29.052-25.538
		c16.356-14.377,24.635-35.852,22.164-57.488l-6.935-60.718c-3.032-26.541,1.081-53.41,11.911-77.829L240.52,4.838
		c3.545-7.992,15.34-5.463,15.34,3.281v283.325c0,24.23-8.343,47.695-23.848,66.314l-37.656,45.307l-63.307,76.11l-24.614,29.557
		c-3.417,4.103-9.621,4.385-13.396,0.608L31.711,447.982z"/>
</g>
<path style="fill:#EDA08E;" d="M308.3,351.298c-15.505-18.619-23.848-42.084-23.848-66.314L271.195,4.837
	c-3.534-7.969-15.269-5.476-15.338,3.206c-0.067-8.682-11.803-11.176-15.338-3.206l-13.257,280.147
	c0,24.23-8.343,47.695-23.848,66.314L81.537,497.831l11.503,11.509c3.776,3.777,9.978,3.495,13.396-0.608l125.576-150.974
	c15.43-18.528,23.76-41.853,23.841-65.957h0.009c0.081,24.104,8.411,47.43,23.841,65.957l125.576,150.974
	c3.417,4.103,9.621,4.385,13.396,0.608l11.503-11.509L308.3,351.298z"/>
<path style="fill:#FFDB6C;" d="M161.518,450.781l-73.804-73.804c-9.349-9.349-9.349-24.509,0-33.858l0,0
	c9.349-9.349,24.509-9.349,33.858,0l73.804,73.804c9.349,9.349,9.349,24.509,0,33.858l0,0
	C186.027,460.131,170.869,460.131,161.518,450.781z"/>
<path style="fill:#FFB04C;" d="M195.378,416.923l-31.663-31.663c9.349,9.349,9.349,24.509,0,33.858l0,0
	c-9.349,9.349-24.509,9.349-33.858,0l31.663,31.663c9.349,9.349,24.509,9.349,33.858,0l0,0
	C204.727,441.432,204.727,426.273,195.378,416.923z"/>
<path style="fill:#FFDB6C;" d="M127.66,484.639l-73.804-73.804c-9.349-9.349-9.349-24.509,0-33.858l0,0
	c9.349-9.349,24.509-9.349,33.858,0l73.804,73.804c9.349,9.349,9.349,24.509,0,33.858l0,0
	C152.169,493.99,137.01,493.99,127.66,484.639z"/>
<path style="fill:#FFB04C;" d="M161.518,450.781l-31.663-31.663c9.349,9.349,9.349,24.509,0,33.858l0,0
	c-9.349,9.349-24.509,9.349-33.858,0l31.663,31.663c9.349,9.349,24.509,9.349,33.858,0l0,0
	C170.869,475.29,170.869,460.131,161.518,450.781z"/>
<path style="fill:#FFDB6C;" d="M344.737,450.781l73.804-73.804c9.349-9.349,9.349-24.509,0-33.858l0,0
	c-9.349-9.349-24.509-9.349-33.858,0l-73.804,73.804c-9.349,9.349-9.349,24.509,0,33.858l0,0
	C320.228,460.131,335.386,460.131,344.737,450.781z"/>
<path style="fill:#FFB04C;" d="M310.878,416.923l31.663-31.663c-9.349,9.349-9.349,24.509,0,33.858l0,0
	c9.349,9.349,24.509,9.349,33.858,0l-31.663,31.663c-9.349,9.349-24.509,9.349-33.858,0l0,0
	C301.528,441.432,301.528,426.273,310.878,416.923z"/>
<path style="fill:#FFDB6C;" d="M378.595,484.639l73.804-73.804c9.349-9.349,9.349-24.509,0-33.858l0,0
	c-9.349-9.349-24.509-9.349-33.858,0l-73.804,73.804c-9.349,9.349-9.349,24.509,0,33.858l0,0
	C354.086,493.99,369.244,493.99,378.595,484.639z"/>
<path style="fill:#FFB04C;" d="M344.737,450.781l31.663-31.663c-9.349,9.349-9.349,24.509,0,33.858l0,0
	c9.349,9.349,24.509,9.349,33.858,0l-31.663,31.663c-9.349,9.349-24.509,9.349-33.858,0l0,0
	C335.386,475.29,335.386,460.131,344.737,450.781z"/>
<g>
	<path style="fill:#EDA08E;" d="M295.97,191.924c-0.084,0-0.167-0.001-0.252-0.004c-4.88-0.137-8.724-4.202-8.587-9.082
		c0.144-5.107-0.062-10.253-0.612-15.294c-3.666-33.686-22.27-59.594-37.231-75.397c-3.356-3.545-3.203-9.138,0.342-12.494
		c3.546-3.357,9.139-3.202,12.494,0.342c24.132,25.491,38.644,55.103,41.967,85.637c0.635,5.839,0.874,11.794,0.708,17.702
		C304.665,188.128,300.735,191.924,295.97,191.924z"/>
	<path style="fill:#EDA08E;" d="M215.739,191.924c-4.767,0-8.695-3.796-8.83-8.59c-0.166-5.908,0.073-11.863,0.708-17.702
		c3.323-30.534,17.835-60.147,41.967-85.637c3.355-3.545,8.949-3.698,12.494-0.342c3.545,3.356,3.698,8.95,0.342,12.494
		c-14.961,15.803-33.565,41.711-37.231,75.397c-0.549,5.041-0.755,10.188-0.612,15.294c0.137,4.88-3.707,8.945-8.587,9.082
		C215.906,191.923,215.822,191.924,215.739,191.924z"/>
</g>
</svg>