<svg width="120" height="40" viewBox="0 0 120 40" fill="none" xmlns="http://www.w3.org/2000/svg">
<g clip-path="url(#clip0_229_535)">
<path d="M34.0388 6.83938C27.5079 6.83938 22.5047 5.12009 18.2738 1.3291C14.0434 5.12009 9.04045 6.83938 2.51014 6.83938C2.51014 16.7109 0.293266 30.8527 18.2738 36.5954C36.2555 30.8527 34.0388 16.7109 34.0388 6.83938Z" fill="url(#paint0_linear_229_535)"/>
<g filter="url(#filter0_f_229_535)">
<path d="M13.9554 36.992C13.9554 36.992 13.9424 36.992 13.9402 36.992C13.3951 36.992 12.9533 36.5914 12.8542 36.0801C12.7573 36.5808 12.4448 36.9451 11.7984 36.9601V36.9622C12.4448 36.9877 12.7982 37.4181 12.8392 38.0573H12.8456C12.8866 37.4181 13.3089 36.9707 13.9532 36.9622C13.9553 36.9601 13.9554 36.992 13.9554 36.992Z" fill="#ACFAFF"/>
</g>
<g filter="url(#filter1_f_229_535)">
<path d="M37.8675 11.5305C37.8675 11.5305 37.8545 11.5305 37.8524 11.5305C37.3073 11.5305 36.8654 11.13 36.7664 10.6187C36.6694 11.1193 36.357 11.4837 35.7105 11.4986V11.5007C36.357 11.5263 36.7103 11.9567 36.7514 12.5958H36.7578C36.7987 11.9567 37.2211 11.5092 37.8654 11.5007C37.8675 11.4986 37.8675 11.5305 37.8675 11.5305Z" fill="#ACFAFF"/>
</g>
<path d="M13.9554 36.992C13.9554 36.992 13.9424 36.992 13.9402 36.992C13.3951 36.992 12.9533 36.5914 12.8542 36.0801C12.7573 36.5808 12.4448 36.9451 11.7984 36.9601V36.9622C12.4448 36.9877 12.7982 37.4181 12.8392 38.0573H12.8456C12.8866 37.4181 13.3089 36.9707 13.9532 36.9622C13.9553 36.9601 13.9554 36.992 13.9554 36.992Z" fill="#FDFF8D"/>
<path d="M37.8667 11.5305C37.8667 11.5305 37.8537 11.5305 37.8516 11.5305C37.3065 11.5305 36.8647 11.13 36.7656 10.6187C36.6686 11.1193 36.3562 11.4837 35.7097 11.4986V11.5007C36.3562 11.5263 36.7095 11.9567 36.7506 12.5958H36.757C36.7979 11.9567 37.2203 11.5092 37.8646 11.5007C37.8667 11.4986 37.8667 11.5305 37.8667 11.5305Z" fill="#FDFF8D"/>
<g opacity="0.78" filter="url(#filter2_f_229_535)">
<path fill-rule="evenodd" clip-rule="evenodd" d="M20.8659 3.78291C19.9683 3.08825 19.1062 2.35627 18.2738 1.61035C14.0434 5.40134 9.04045 7.12063 2.51014 7.12063C2.51014 8.06912 2.48967 9.05703 2.46863 10.0731C2.27747 19.3007 2.03814 30.8529 16.6419 36.3122C5.45458 30.4281 5.67008 20.0259 5.84517 11.5738C5.86623 10.5577 5.88669 9.56981 5.88669 8.62133C12.0179 8.62133 16.8028 7.10574 20.8659 3.78291Z" fill="#6CE88F"/>
</g>
<g opacity="0.21" filter="url(#filter3_f_229_535)">
<path fill-rule="evenodd" clip-rule="evenodd" d="M17.2017 3.34766C17.2017 3.3477 17.2016 3.34775 17.4698 3.67368C17.7379 3.9996 17.7379 3.99967 17.7378 3.99976L17.7375 3.99997L17.7368 4.00057L17.7344 4.00247L17.7264 4.00902C17.7195 4.0146 17.7095 4.02257 17.6967 4.03282C17.6711 4.05331 17.6336 4.08288 17.5849 4.1205C17.4874 4.19572 17.3447 4.30319 17.1611 4.43459C16.794 4.69727 16.2625 5.05619 15.5999 5.44466C14.2775 6.22014 12.4208 7.12083 10.3015 7.60249C8.22314 8.07485 6.55424 8.33512 5.40234 8.47739C4.82636 8.54854 4.37958 8.59019 4.07545 8.61411C4.04478 8.61651 4.01556 8.61875 3.9878 8.62081C3.97834 8.79495 3.96662 9.02632 3.95438 9.30581C3.92522 9.97117 3.89315 10.9088 3.88147 11.9965C3.8581 14.1759 3.91694 16.9423 4.24109 19.3273L3.40466 19.4409C3.07225 16.9955 3.01386 14.1811 3.03738 11.9874C3.04917 10.8886 3.08156 9.94154 3.11104 9.26887C3.12577 8.93248 3.13979 8.66456 3.15014 8.48044C3.15531 8.38836 3.15957 8.31723 3.16255 8.26896C3.16403 8.24481 3.16521 8.22638 3.166 8.21391L3.16726 8.1947C3.16726 8.19463 3.16726 8.19457 3.5884 8.22264L3.16726 8.1947L3.19256 7.81517L3.57239 7.80088L3.57253 7.80087L3.57331 7.80084L3.57772 7.80066C3.58187 7.80048 3.58843 7.8002 3.59735 7.79977C3.61521 7.79891 3.64258 7.79753 3.67926 7.79541C3.75262 7.79118 3.86317 7.78406 4.00927 7.77256C4.30147 7.74958 4.73579 7.70917 5.29885 7.63962C6.42499 7.50053 8.06587 7.24492 10.1144 6.77935C12.122 6.32308 13.8962 5.46514 15.1729 4.71648C15.8101 4.34289 16.3202 3.99836 16.6698 3.74812C16.8446 3.62305 16.9791 3.52167 17.0692 3.45217C17.1141 3.41743 17.1481 3.39068 17.1704 3.37293C17.1814 3.36405 17.1897 3.35743 17.195 3.35319L17.2006 3.34863L17.2017 3.34766Z" fill="url(#paint1_linear_229_535)"/>
</g>
<g filter="url(#filter4_f_229_535)">
<path fill-rule="evenodd" clip-rule="evenodd" d="M6.73865 29.2676C9.06168 31.533 12.3039 33.4745 16.8207 34.8944C33.0747 29.7852 32.8251 17.9213 32.6271 8.51269C32.6181 8.08245 32.6091 7.65736 32.6019 7.23828C33.0879 7.25858 33.5825 7.26865 34.0863 7.26865C34.0863 8.20212 34.1068 9.17438 34.1279 10.1744C34.3259 19.5829 34.5756 31.4469 18.3213 36.5562C12.7348 34.8 9.09799 32.2459 6.73865 29.2676Z" fill="url(#paint2_linear_229_535)"/>
</g>
<g opacity="0.4" filter="url(#filter5_f_229_535)">
<path fill-rule="evenodd" clip-rule="evenodd" d="M4.14215 24.775C6.21909 29.1617 10.2104 33.0144 17.8052 35.3959C34.0595 30.2995 33.8098 18.4653 33.6118 9.08025C33.5985 8.45447 33.5855 7.83957 33.5777 7.23828C33.7282 7.24011 33.8795 7.24103 34.0315 7.24103C34.0315 8.17217 34.0519 9.14199 34.073 10.1395C34.271 19.5246 34.5207 31.3586 18.2666 36.4551C10.0659 33.8837 6.06663 29.597 4.14215 24.775Z" fill="#52BB87"/>
</g>
<g filter="url(#filter6_i_229_535)">
<path d="M31.8795 8.45474C26.2189 8.45474 21.8823 6.96455 18.2152 3.67871C14.5485 6.96455 10.2122 8.45474 4.55211 8.45474C4.55211 17.0109 2.63063 29.2683 18.2152 34.2457C33.8009 29.2682 31.8795 17.0109 31.8795 8.45474Z" fill="url(#paint3_linear_229_535)"/>
</g>
<g opacity="0.21" filter="url(#filter7_f_229_535)">
<path fill-rule="evenodd" clip-rule="evenodd" d="M17.2494 5.38525C17.2494 5.3853 17.2493 5.38535 17.5175 5.71128C17.7857 6.0372 17.7855 6.03727 17.7855 6.03736L17.7852 6.03755L17.7824 6.03981L17.7753 6.04564C17.7693 6.05055 17.7605 6.05756 17.7493 6.06653C17.7269 6.08447 17.694 6.11029 17.6516 6.14309C17.5666 6.20868 17.4424 6.30222 17.2827 6.41652C16.9633 6.64504 16.5011 6.9571 15.9253 7.29479C14.7759 7.96874 13.1612 8.75224 11.3169 9.17142C9.51347 9.58128 8.06508 9.80717 7.06494 9.93071C6.56486 9.99247 6.1768 10.0287 5.91239 10.0495C5.90328 10.0502 5.89433 10.0509 5.88552 10.0516C5.87784 10.1957 5.86871 10.3788 5.85923 10.5954C5.83398 11.1716 5.80619 11.9836 5.7961 12.9257C5.77585 14.8138 5.82687 17.2083 6.10729 19.2714L5.27084 19.385C4.98218 17.2615 4.93159 14.8189 4.95199 12.9166C4.96223 11.9635 4.99032 11.142 5.01589 10.5584C5.02868 10.2666 5.04083 10.0342 5.04982 9.87437C5.05431 9.79447 5.05801 9.73271 5.06059 9.69077C5.06189 9.6698 5.06289 9.65377 5.06359 9.64292L5.06468 9.62614C5.0647 9.62607 5.0647 9.62601 5.48582 9.65409L5.06468 9.62614L5.08998 9.24662L5.46979 9.23232H5.46996L5.47051 9.23229L5.47419 9.23214C5.4777 9.232 5.48327 9.23175 5.49092 9.23138C5.50621 9.23066 5.52975 9.22946 5.56134 9.22764C5.62454 9.224 5.71998 9.21784 5.84621 9.20791C6.09867 9.18805 6.4743 9.1531 6.96147 9.09293C7.93584 8.97258 9.35619 8.75136 11.1298 8.34827C12.8624 7.95449 14.3947 7.21372 15.4983 6.56662C16.0489 6.24379 16.4895 5.94613 16.7914 5.73006C16.9422 5.62208 17.0584 5.53461 17.1359 5.47476C17.1747 5.44485 17.2038 5.42184 17.2229 5.40663C17.2324 5.39904 17.2394 5.39339 17.2439 5.38981L17.2486 5.38598L17.2494 5.38525Z" fill="url(#paint4_linear_229_535)"/>
</g>
<g filter="url(#filter8_f_229_535)">
<path fill-rule="evenodd" clip-rule="evenodd" d="M8.21521 27.8952C10.2287 29.8587 13.0389 31.5415 16.9538 32.7723C31.042 28.3438 30.8257 18.0607 30.6541 9.90586C30.6461 9.53295 30.6384 9.16451 30.6321 8.80127C31.0533 8.81886 31.4821 8.82759 31.9187 8.82759C31.9187 9.63667 31.9365 10.4794 31.9548 11.3461C32.1264 19.5011 32.3427 29.784 18.2545 34.2125C13.4124 32.6903 10.2602 30.4765 8.21521 27.8952Z" fill="url(#paint5_linear_229_535)"/>
</g>
<g opacity="0.49" filter="url(#filter9_f_229_535)">
<path fill-rule="evenodd" clip-rule="evenodd" d="M5.86676 23.7865C7.63792 27.677 11.1026 31.1032 17.8086 33.2058C31.8968 28.7885 31.6804 18.5313 31.5088 10.3968C31.4948 9.7342 31.4811 9.08569 31.4755 8.45557C31.6079 8.45682 31.7411 8.45745 31.875 8.45745C31.875 9.26694 31.893 10.1145 31.9116 10.9898C32.0859 19.1972 32.3118 29.8347 18.2281 34.2506C10.9599 31.9716 7.49502 28.1103 5.86676 23.7865Z" fill="url(#paint6_linear_229_535)"/>
</g>
<g filter="url(#filter10_d_229_535)">
<path d="M16.6371 14.8747L15.8629 17.7286L20.2935 14.8587L17.3961 25.6865L20.3385 25.6891L24.6189 9.69629L16.6371 14.8747Z" fill="white"/>
<path d="M11.8681 21.1386L10.65 25.6904H16.6814C16.6814 25.6904 19.1484 16.433 19.1491 16.4302C19.1467 16.4317 11.8681 21.1386 11.8681 21.1386Z" fill="white"/>
</g>
<g opacity="0.9" filter="url(#filter11_f_229_535)">
<path fill-rule="evenodd" clip-rule="evenodd" d="M3.17615 19.8951L10.5056 5.78326L13.0753 5.02752C13.2554 4.97455 13.4438 4.97455 13.6238 5.02752L13.9545 5.12477L4.04615 24.2019C3.53828 22.8829 3.21107 21.4427 3.17615 19.8951Z" fill="url(#paint7_linear_229_535)"/>
</g>
<g filter="url(#filter12_f_229_535)">
<path d="M3.6125 10.4222C3.80487 10.4222 3.96081 10.2662 3.96081 10.0739C3.96081 9.88153 3.80487 9.72559 3.6125 9.72559C3.42014 9.72559 3.26422 9.88153 3.26422 10.0739C3.26422 10.2662 3.42014 10.4222 3.6125 10.4222Z" fill="white"/>
<path d="M32.3031 25.2195C32.4955 25.2195 32.6515 25.0635 32.6515 24.8712C32.6515 24.6788 32.4955 24.5229 32.3031 24.5229C32.1108 24.5229 31.9548 24.6788 31.9548 24.8712C31.9548 25.0635 32.1108 25.2195 32.3031 25.2195Z" fill="#FDFF8D"/>
<path d="M31.9535 28.0727H31.9309C31.0463 28.0727 30.3375 27.4503 30.1772 26.6118C30.0206 27.4347 29.343 28.071 28.4724 28.0936V28.0971C29.343 28.1372 30.0814 28.9444 30.146 29.8161H30.1564C30.2225 28.77 30.9105 28.1111 31.9554 28.0955V28.0727H31.9535Z" fill="white"/>
<path d="M3.25671 13.6658C3.25671 13.6658 3.24668 13.6658 3.24501 13.6658C2.82247 13.6658 2.48008 13.3553 2.40325 12.959C2.3281 13.3471 2.08594 13.6295 1.5849 13.6411V13.6426C2.08594 13.6624 2.35984 13.996 2.39157 14.4915H2.39659C2.42832 13.996 2.75567 13.6493 3.25503 13.6426C3.25671 13.6411 3.25671 13.6658 3.25671 13.6658Z" fill="#FDFF8D"/>
<path d="M7.01727 10.6004C7.01727 10.6004 7.00724 10.6004 7.00557 10.6004C6.58303 10.6004 6.24064 10.2899 6.16381 9.89355C6.08866 10.2816 5.8465 10.564 5.34546 10.5756V10.5772C5.8465 10.5971 6.1204 10.9306 6.15212 11.426H6.15715C6.18888 10.9306 6.51623 10.5838 7.01559 10.5772C7.01727 10.5756 7.01727 10.6004 7.01727 10.6004Z" fill="white"/>
</g>
<path d="M3.61153 10.2547C3.80389 10.2547 3.95983 10.0988 3.95983 9.9064C3.95983 9.71404 3.80389 9.55811 3.61153 9.55811C3.41916 9.55811 3.26324 9.71404 3.26324 9.9064C3.26324 10.0988 3.41916 10.2547 3.61153 10.2547Z" fill="white"/>
<path d="M32.3029 25.2195C32.4953 25.2195 32.6513 25.0635 32.6513 24.8712C32.6513 24.6788 32.4953 24.5229 32.3029 24.5229C32.1106 24.5229 31.9547 24.6788 31.9547 24.8712C31.9547 25.0635 32.1106 25.2195 32.3029 25.2195Z" fill="#FDFF8D"/>
<path d="M31.9534 28.0727H31.9307C31.0461 28.0727 30.3374 27.4503 30.177 26.6118C30.0204 27.4347 29.3429 28.071 28.4722 28.0936V28.0971C29.3429 28.1372 30.0813 28.9444 30.1458 29.8161H30.1562C30.2223 28.77 30.9103 28.1111 31.9552 28.0953V28.0727H31.9534Z" fill="white"/>
<path d="M3.25653 13.6658C3.25653 13.6658 3.2465 13.6658 3.24483 13.6658C2.82229 13.6658 2.4799 13.3553 2.40307 12.959C2.32792 13.3471 2.08576 13.6295 1.58472 13.6411V13.6426C2.08576 13.6624 2.35966 13.996 2.39138 14.4915H2.39641C2.42813 13.996 2.75548 13.6493 3.25485 13.6426C3.25653 13.6411 3.25653 13.6658 3.25653 13.6658Z" fill="#FDFF8D"/>
<path d="M7.01593 10.6009C7.01593 10.6009 7.0059 10.6009 7.00423 10.6009C6.58169 10.6009 6.2393 10.2904 6.16247 9.89404C6.08732 10.2821 5.84516 10.5645 5.34412 10.5761V10.5777C5.84516 10.5975 6.11906 10.9311 6.15078 11.4265H6.15581C6.18753 10.9311 6.51488 10.5843 7.01425 10.5777C7.01593 10.5761 7.01593 10.6009 7.01593 10.6009Z" fill="white"/>
</g>
<g clip-path="url(#clip1_229_535)">
<path d="M47.2518 9.74884L46.6218 12.0676L50.2278 9.73564L47.8694 18.5348L50.2646 18.5368L53.7486 5.54004" fill="#3395FF"/>
<path d="M43.3704 14.8376L42.3784 18.5368H47.2876L49.2964 11.0116L43.3704 14.8376ZM60.4232 11.5808C60.3032 12.0268 60.072 12.3544 59.7272 12.5636C59.3832 12.7724 58.9004 12.8772 58.2772 12.8772H56.2972L56.9924 10.2852H58.9724C59.5948 10.2852 60.0224 10.3892 60.2544 10.6012C60.4864 10.8132 60.5424 11.1372 60.4232 11.5852M62.4732 11.5292C62.7252 10.5932 62.6212 9.87319 62.1604 9.36919C61.7004 8.86919 60.8932 8.61719 59.7412 8.61719H55.3224L52.6624 18.5412H54.8092L55.8812 14.5412H57.2892C57.6052 14.5412 57.854 14.5932 58.0356 14.6932C58.2176 14.7972 58.3244 14.9772 58.3572 15.2372L58.7404 18.5412H61.0404L60.6676 15.4612C60.5916 14.7732 60.2768 14.3692 59.7236 14.2492C60.4288 14.0452 61.0196 13.7052 61.4956 13.2332C61.9683 12.7646 62.306 12.1774 62.4732 11.5332M67.6916 14.9892C67.5116 15.6612 67.2356 16.1692 66.8624 16.5252C66.4888 16.8812 66.0424 17.0572 65.5216 17.0572C64.9912 17.0572 64.6316 16.8852 64.4416 16.5372C64.2512 16.1892 64.2448 15.6852 64.4216 15.0252C64.5984 14.3652 64.8804 13.8492 65.2684 13.4772C65.6564 13.1052 66.11 12.9192 66.6308 12.9192C67.1508 12.9192 67.5068 13.0992 67.6868 13.4564C67.8708 13.8152 67.8748 14.3284 67.6948 14.9964L67.6916 14.9892ZM68.6324 11.4772L68.3636 12.4812C68.2476 12.1212 68.0224 11.8332 67.6896 11.6172C67.356 11.4052 66.9432 11.2972 66.4508 11.2972C65.8468 11.2972 65.2668 11.4532 64.7108 11.7652C64.1548 12.0772 63.6668 12.5172 63.2508 13.0852C62.8348 13.6532 62.5308 14.2972 62.3348 15.0212C62.1428 15.7492 62.1028 16.3852 62.2188 16.9372C62.3388 17.4932 62.5908 17.9172 62.9788 18.2132C63.3708 18.5132 63.8708 18.6612 64.4828 18.6612C64.9691 18.6637 65.45 18.5585 65.8908 18.3532C66.3267 18.1566 66.7144 17.8672 67.0268 17.5052L66.7468 18.5516H68.8228L70.7184 11.4808H68.6384L68.6324 11.4772ZM78.1784 11.4772H72.1412L71.7192 13.0532H75.232L70.588 17.0652L70.1912 18.5452H76.4232L76.8452 16.9692H73.0812L77.7964 12.8972M83.4924 14.9772C83.3056 15.6732 83.0284 16.1964 82.6624 16.5372C82.2964 16.8812 81.8532 17.0532 81.3328 17.0532C80.2448 17.0532 79.8872 16.3612 80.2584 14.9772C80.4424 14.2892 80.7208 13.772 81.0928 13.4236C81.4648 13.074 81.9156 12.8996 82.4456 12.8996C82.9656 12.8996 83.3168 13.0728 83.4976 13.4216C83.6784 13.7696 83.6768 14.2884 83.4924 14.9764M84.7076 11.7432C84.2296 11.4456 83.6196 11.2968 82.8756 11.2968C82.1224 11.2968 81.4252 11.4448 80.7836 11.7408C80.1447 12.0349 79.5831 12.474 79.1436 13.0232C78.6916 13.5792 78.3664 14.2312 78.1668 14.9752C77.9708 15.7164 77.9468 16.3672 78.0988 16.9244C78.2508 17.4804 78.5708 17.9084 79.0508 18.2044C79.5348 18.5028 80.1508 18.6512 80.9068 18.6512C81.6508 18.6512 82.3428 18.5016 82.9788 18.204C83.6148 17.9048 84.1588 17.48 84.6108 16.92C85.0628 16.3624 85.3868 15.712 85.5868 14.968C85.7868 14.224 85.8108 13.5744 85.6588 13.016C85.5068 12.46 85.1908 12.032 84.7148 11.734M92.1188 13.366L92.6508 11.442C92.4708 11.35 92.2348 11.302 91.9388 11.302C91.4628 11.302 91.0068 11.4196 90.5668 11.658C90.1884 11.8604 89.8668 12.146 89.5948 12.5036L89.8708 11.4676L89.268 11.47H87.788L85.88 18.538H87.9852L88.9752 14.8432C89.1192 14.306 89.3784 13.8832 89.7524 13.5832C90.1244 13.282 90.5884 13.1312 91.1484 13.1312C91.4924 13.1312 91.8124 13.21 92.1164 13.3672M97.9764 15.0112C97.7964 15.6712 97.5244 16.1752 97.1524 16.5232C96.7804 16.8728 96.3324 17.0472 95.8124 17.0472C95.2924 17.0472 94.9364 16.8712 94.7484 16.5192C94.5564 16.1652 94.5524 15.6552 94.7324 14.9848C94.9124 14.3148 95.1884 13.8008 95.5684 13.4448C95.9484 13.086 96.3964 12.9068 96.9164 12.9068C97.4284 12.9068 97.7724 13.0908 97.9564 13.4628C98.1404 13.8348 98.1444 14.3508 97.9676 15.0108M99.4396 11.7548C99.0496 11.4428 98.5516 11.2868 97.9476 11.2868C97.4184 11.2868 96.914 11.4068 96.4356 11.6492C95.9576 11.8912 95.5696 12.2212 95.2716 12.6388L95.2788 12.5908L95.632 11.4668H93.576L93.052 13.4228L93.036 13.4908L90.876 21.5484H92.984L94.072 17.4924C94.18 17.8532 94.4 18.1364 94.736 18.3412C95.072 18.5452 95.4868 18.6464 95.98 18.6464C96.592 18.6464 97.176 18.4984 97.73 18.2024C98.286 17.9056 98.766 17.4784 99.174 16.9264C99.582 16.3744 99.8848 15.7344 100.078 15.0104C100.274 14.2852 100.314 13.6384 100.202 13.0724C100.088 12.5056 99.8356 12.0668 99.446 11.7564M106.432 14.9824C106.252 15.6504 105.976 16.1624 105.604 16.5144C105.232 16.8688 104.784 17.0452 104.264 17.0452C103.732 17.0452 103.372 16.8732 103.184 16.5252C102.992 16.1772 102.988 15.6732 103.164 15.0132C103.34 14.3532 103.621 13.8372 104.009 13.4652C104.397 13.0932 104.851 12.9076 105.372 12.9076C105.892 12.9076 106.244 13.0876 106.428 13.4436C106.612 13.8008 106.613 14.314 106.434 14.9836L106.432 14.9824ZM107.372 11.4684L107.103 12.4724C106.987 12.1104 106.763 11.8224 106.431 11.6084C106.095 11.3948 105.683 11.2884 105.191 11.2884C104.587 11.2884 104.004 11.4444 103.447 11.7564C102.891 12.0684 102.403 12.506 101.987 13.0724C101.571 13.6388 101.267 14.2844 101.071 15.0084C100.877 15.7352 100.839 16.3724 100.955 16.9268C101.072 17.4788 101.324 17.9052 101.715 18.2028C102.104 18.4988 102.607 18.6484 103.219 18.6484C103.711 18.6484 104.181 18.546 104.627 18.3404C105.062 18.1429 105.448 17.8531 105.76 17.4912L105.48 18.5384H107.556L109.451 11.4704H107.375L107.372 11.4684ZM118.167 11.4708L118.168 11.4688H116.892C116.851 11.4688 116.815 11.4708 116.778 11.4716H116.116L115.776 11.9436L115.692 12.0556L115.656 12.1116L112.966 15.8588L112.41 11.4708H110.207L111.323 18.1388L108.859 21.5508H111.055L111.651 20.7056C111.668 20.6808 111.683 20.66 111.703 20.6336L112.399 19.6456L112.419 19.6176L115.536 15.1976L118.164 11.4776L118.168 11.4752H118.167V11.4708Z" fill="white"/>
</g>
<path d="M44.4824 31.5806H43.4456V25.619H41.3912V24.7262H46.5368V25.619H44.4824V31.5806ZM49.548 26.3102C49.6376 26.3102 49.7368 26.3166 49.8456 26.3294C49.9544 26.3358 50.044 26.3454 50.1144 26.3582L50.0088 27.3086C49.9384 27.2894 49.8552 27.2734 49.7592 27.2606C49.6632 27.2478 49.5736 27.2414 49.4904 27.2414C49.2984 27.2414 49.1128 27.2798 48.9336 27.3566C48.7608 27.427 48.604 27.5326 48.4632 27.6734C48.3224 27.8078 48.2104 27.9742 48.1272 28.1726C48.0504 28.371 48.012 28.5982 48.012 28.8542V31.5806H46.9944V26.4062H47.8008L47.9352 27.3278H47.9736C48.0824 27.1422 48.2136 26.9726 48.3672 26.819C48.5208 26.6654 48.6968 26.5438 48.8952 26.4542C49.0936 26.3582 49.3112 26.3102 49.548 26.3102ZM55.5269 26.4062V31.5806H54.7109L54.5669 30.899H54.5189C54.4101 31.0782 54.2693 31.2254 54.0965 31.3406C53.9237 31.4558 53.7349 31.539 53.5301 31.5902C53.3253 31.6478 53.1141 31.6766 52.8965 31.6766C52.4933 31.6766 52.1509 31.6126 51.8693 31.4846C51.5941 31.3502 51.3829 31.1454 51.2357 30.8702C51.0949 30.5886 51.0245 30.2302 51.0245 29.795V26.4062H52.0517V29.6414C52.0517 30.0446 52.1349 30.3454 52.3013 30.5438C52.4741 30.7422 52.7397 30.8414 53.0981 30.8414C53.4565 30.8414 53.7381 30.771 53.9429 30.6302C54.1477 30.4894 54.2917 30.2846 54.3749 30.0158C54.4645 29.7406 54.5093 29.411 54.5093 29.027V26.4062H55.5269ZM60.5562 30.1214C60.5562 30.4606 60.473 30.7454 60.3066 30.9758C60.1402 31.2062 59.9002 31.3822 59.5866 31.5038C59.273 31.619 58.8954 31.6766 58.4538 31.6766C58.089 31.6766 57.7754 31.6478 57.513 31.5902C57.257 31.539 57.0202 31.4622 56.8026 31.3598V30.467C57.033 30.5758 57.2986 30.675 57.5994 30.7646C57.9002 30.8478 58.1946 30.8894 58.4826 30.8894C58.8666 30.8894 59.1418 30.8286 59.3082 30.707C59.481 30.5854 59.5674 30.4222 59.5674 30.2174C59.5674 30.1022 59.5354 29.9998 59.4714 29.9102C59.4074 29.8142 59.2858 29.7182 59.1066 29.6222C58.9338 29.5198 58.6778 29.4046 58.3386 29.2766C58.0122 29.1422 57.7338 29.011 57.5034 28.883C57.273 28.7486 57.097 28.5918 56.9754 28.4126C56.8538 28.227 56.793 27.9902 56.793 27.7022C56.793 27.2542 56.9722 26.9118 57.3306 26.675C57.6954 26.4318 58.1754 26.3102 58.7706 26.3102C59.0842 26.3102 59.3786 26.3422 59.6538 26.4062C59.9354 26.4638 60.2074 26.5534 60.4698 26.675L60.1338 27.4526C59.9866 27.3822 59.833 27.3246 59.673 27.2798C59.5194 27.2286 59.3626 27.187 59.2026 27.155C59.049 27.123 58.889 27.107 58.7226 27.107C58.4154 27.107 58.1818 27.155 58.0218 27.251C57.8618 27.347 57.7818 27.4814 57.7818 27.6542C57.7818 27.7758 57.817 27.8814 57.8874 27.971C57.9642 28.0606 58.0954 28.1502 58.281 28.2398C58.4666 28.3294 58.7194 28.4382 59.0394 28.5662C59.3594 28.6878 59.6314 28.8126 59.8554 28.9406C60.0858 29.0686 60.2586 29.2254 60.3738 29.411C60.4954 29.5966 60.5562 29.8334 60.5562 30.1214ZM63.6318 30.851C63.7662 30.851 63.9038 30.8382 64.0446 30.8126C64.1854 30.787 64.307 30.7582 64.4094 30.7262V31.4942C64.3006 31.5454 64.1534 31.587 63.9678 31.619C63.7822 31.6574 63.5966 31.6766 63.411 31.6766C63.1294 31.6766 62.8702 31.6286 62.6334 31.5326C62.403 31.4366 62.2174 31.2702 62.0766 31.0334C61.9358 30.7966 61.8654 30.467 61.8654 30.0446V27.1838H61.1454V26.723L61.9038 26.339L62.259 25.2446H62.883V26.4062H64.3614V27.1838H62.883V30.0254C62.883 30.307 62.9502 30.515 63.0846 30.6494C63.2254 30.7838 63.4078 30.851 63.6318 30.851ZM67.4796 26.3102C67.934 26.3102 68.3244 26.4062 68.6508 26.5982C68.9772 26.7838 69.2268 27.0526 69.3996 27.4046C69.5788 27.7566 69.6684 28.1726 69.6684 28.6526V29.2094H66.1932C66.206 29.7406 66.3436 30.147 66.606 30.4286C66.8748 30.7102 67.2492 30.851 67.7292 30.851C68.062 30.851 68.3564 30.8222 68.6124 30.7646C68.8748 30.7006 69.1436 30.6078 69.4188 30.4862V31.331C69.1628 31.4462 68.9004 31.5326 68.6316 31.5902C68.3692 31.6478 68.0556 31.6766 67.6908 31.6766C67.1916 31.6766 66.75 31.5774 66.366 31.379C65.982 31.1806 65.6812 30.8862 65.4636 30.4958C65.2524 30.099 65.1468 29.6126 65.1468 29.0366C65.1468 28.4542 65.2428 27.9614 65.4348 27.5582C65.6332 27.155 65.9052 26.8478 66.2508 26.6366C66.6028 26.419 67.0124 26.3102 67.4796 26.3102ZM67.4796 27.0974C67.1148 27.0974 66.8204 27.2158 66.5964 27.4526C66.3788 27.6894 66.2508 28.0254 66.2124 28.4606H68.6508C68.6508 28.1918 68.6092 27.955 68.526 27.7502C68.4428 27.5454 68.3148 27.3854 68.142 27.2702C67.9692 27.155 67.7484 27.0974 67.4796 27.0974ZM72.7142 31.6766C72.0934 31.6766 71.591 31.4526 71.207 31.0046C70.8294 30.5566 70.6406 29.891 70.6406 29.0078C70.6406 28.1182 70.8326 27.4462 71.2166 26.9918C71.6006 26.5374 72.1062 26.3102 72.7334 26.3102C72.9958 26.3102 73.223 26.3454 73.415 26.4158C73.6134 26.4798 73.783 26.5694 73.9238 26.6846C74.071 26.7998 74.1958 26.9278 74.2982 27.0686H74.3558C74.343 26.979 74.327 26.851 74.3078 26.6846C74.2886 26.5118 74.279 26.3582 74.279 26.2238V24.2846H75.2966V31.5806H74.4998L74.327 30.8894H74.279C74.183 31.0366 74.0614 31.171 73.9142 31.2926C73.7734 31.4078 73.6038 31.5006 73.4054 31.571C73.207 31.6414 72.9766 31.6766 72.7142 31.6766ZM72.9542 30.8414C73.4534 30.8414 73.8054 30.7038 74.0102 30.4286C74.215 30.147 74.3174 29.7278 74.3174 29.171V29.0174C74.3174 28.4094 74.2182 27.9454 74.0198 27.6254C73.8278 27.3054 73.4694 27.1454 72.9446 27.1454C72.5286 27.1454 72.215 27.315 72.0038 27.6542C71.7926 27.987 71.687 28.4446 71.687 29.027C71.687 29.6094 71.7926 30.0574 72.0038 30.371C72.215 30.6846 72.5318 30.8414 72.9542 30.8414ZM81.5066 24.7262C82.089 24.7262 82.5754 24.7806 82.9658 24.8894C83.3626 24.9982 83.6602 25.1806 83.8586 25.4366C84.0634 25.6862 84.1658 26.019 84.1658 26.435C84.1658 26.7038 84.1178 26.9438 84.0218 27.155C83.9258 27.3598 83.785 27.5326 83.5994 27.6734C83.4202 27.8078 83.1962 27.8974 82.9274 27.9422V27.9902C83.2026 28.035 83.449 28.1182 83.6666 28.2398C83.8842 28.355 84.057 28.5246 84.185 28.7486C84.313 28.9726 84.377 29.2638 84.377 29.6222C84.377 30.0382 84.2778 30.3934 84.0794 30.6878C83.8874 30.9758 83.609 31.1966 83.2442 31.3502C82.8858 31.5038 82.457 31.5806 81.9578 31.5806H79.5002V24.7262H81.5066ZM81.6794 27.587C82.217 27.587 82.585 27.5006 82.7834 27.3278C82.9882 27.155 83.0906 26.899 83.0906 26.5598C83.0906 26.2142 82.969 25.9678 82.7258 25.8206C82.4826 25.6734 82.0954 25.5998 81.5642 25.5998H80.537V27.587H81.6794ZM80.537 28.4318V30.7166H81.7946C82.3514 30.7166 82.7386 30.6078 82.9562 30.3902C83.1738 30.1726 83.2826 29.8846 83.2826 29.5262C83.2826 29.3086 83.2346 29.1166 83.1386 28.9502C83.0426 28.7838 82.8794 28.6558 82.649 28.5662C82.425 28.4766 82.1178 28.4318 81.7274 28.4318H80.537ZM90.1394 26.4062V31.5806H89.3234L89.1794 30.899H89.1314C89.0226 31.0782 88.8818 31.2254 88.709 31.3406C88.5362 31.4558 88.3474 31.539 88.1426 31.5902C87.9378 31.6478 87.7266 31.6766 87.509 31.6766C87.1058 31.6766 86.7634 31.6126 86.4818 31.4846C86.2066 31.3502 85.9954 31.1454 85.8482 30.8702C85.7074 30.5886 85.637 30.2302 85.637 29.795V26.4062H86.6642V29.6414C86.6642 30.0446 86.7474 30.3454 86.9138 30.5438C87.0866 30.7422 87.3522 30.8414 87.7106 30.8414C88.069 30.8414 88.3506 30.771 88.5554 30.6302C88.7602 30.4894 88.9042 30.2846 88.9874 30.0158C89.077 29.7406 89.1218 29.411 89.1218 29.027V26.4062H90.1394ZM95.1687 30.1214C95.1687 30.4606 95.0855 30.7454 94.9191 30.9758C94.7527 31.2062 94.5127 31.3822 94.1991 31.5038C93.8855 31.619 93.5079 31.6766 93.0663 31.6766C92.7015 31.6766 92.3879 31.6478 92.1255 31.5902C91.8695 31.539 91.6327 31.4622 91.4151 31.3598V30.467C91.6455 30.5758 91.9111 30.675 92.2119 30.7646C92.5127 30.8478 92.8071 30.8894 93.0951 30.8894C93.4791 30.8894 93.7543 30.8286 93.9207 30.707C94.0935 30.5854 94.1799 30.4222 94.1799 30.2174C94.1799 30.1022 94.1479 29.9998 94.0839 29.9102C94.0199 29.8142 93.8983 29.7182 93.7191 29.6222C93.5463 29.5198 93.2903 29.4046 92.9511 29.2766C92.6247 29.1422 92.3463 29.011 92.1159 28.883C91.8855 28.7486 91.7095 28.5918 91.5879 28.4126C91.4663 28.227 91.4055 27.9902 91.4055 27.7022C91.4055 27.2542 91.5847 26.9118 91.9431 26.675C92.3079 26.4318 92.7879 26.3102 93.3831 26.3102C93.6967 26.3102 93.9911 26.3422 94.2663 26.4062C94.5479 26.4638 94.8199 26.5534 95.0823 26.675L94.7463 27.4526C94.5991 27.3822 94.4455 27.3246 94.2855 27.2798C94.1319 27.2286 93.9751 27.187 93.8151 27.155C93.6615 27.123 93.5015 27.107 93.3351 27.107C93.0279 27.107 92.7943 27.155 92.6343 27.251C92.4743 27.347 92.3943 27.4814 92.3943 27.6542C92.3943 27.7758 92.4295 27.8814 92.4999 27.971C92.5767 28.0606 92.7079 28.1502 92.8935 28.2398C93.0791 28.3294 93.3319 28.4382 93.6519 28.5662C93.9719 28.6878 94.2439 28.8126 94.4679 28.9406C94.6983 29.0686 94.8711 29.2254 94.9863 29.411C95.1079 29.5966 95.1687 29.8334 95.1687 30.1214ZM97.3995 26.4062V31.5806H96.3819V26.4062H97.3995ZM96.9003 24.4382C97.0539 24.4382 97.1883 24.483 97.3035 24.5726C97.4187 24.6622 97.4763 24.8126 97.4763 25.0238C97.4763 25.2286 97.4187 25.379 97.3035 25.475C97.1883 25.5646 97.0539 25.6094 96.9003 25.6094C96.7339 25.6094 96.5931 25.5646 96.4779 25.475C96.3691 25.379 96.3147 25.2286 96.3147 25.0238C96.3147 24.8126 96.3691 24.6622 96.4779 24.5726C96.5931 24.483 96.7339 24.4382 96.9003 24.4382ZM101.618 26.3102C102.22 26.3102 102.681 26.4606 103.001 26.7614C103.321 27.0622 103.481 27.5454 103.481 28.211V31.5806H102.473V28.355C102.473 27.9518 102.386 27.651 102.214 27.4526C102.047 27.2478 101.778 27.1454 101.407 27.1454C100.882 27.1454 100.518 27.3022 100.313 27.6158C100.114 27.9294 100.015 28.3806 100.015 28.9694V31.5806H98.9975V26.4062H99.8039L99.9479 27.0974H100.006C100.121 26.9182 100.262 26.771 100.428 26.6558C100.594 26.5406 100.78 26.4542 100.985 26.3966C101.19 26.339 101.401 26.3102 101.618 26.3102ZM107.08 26.3102C107.534 26.3102 107.924 26.4062 108.251 26.5982C108.577 26.7838 108.827 27.0526 109 27.4046C109.179 27.7566 109.268 28.1726 109.268 28.6526V29.2094H105.793C105.806 29.7406 105.944 30.147 106.206 30.4286C106.475 30.7102 106.849 30.851 107.329 30.851C107.662 30.851 107.956 30.8222 108.212 30.7646C108.475 30.7006 108.744 30.6078 109.019 30.4862V31.331C108.763 31.4462 108.5 31.5326 108.232 31.5902C107.969 31.6478 107.656 31.6766 107.291 31.6766C106.792 31.6766 106.35 31.5774 105.966 31.379C105.582 31.1806 105.281 30.8862 105.064 30.4958C104.852 30.099 104.747 29.6126 104.747 29.0366C104.747 28.4542 104.843 27.9614 105.035 27.5582C105.233 27.155 105.505 26.8478 105.851 26.6366C106.203 26.419 106.612 26.3102 107.08 26.3102ZM107.08 27.0974C106.715 27.0974 106.42 27.2158 106.196 27.4526C105.979 27.6894 105.851 28.0254 105.812 28.4606H108.251C108.251 28.1918 108.209 27.955 108.126 27.7502C108.043 27.5454 107.915 27.3854 107.742 27.2702C107.569 27.155 107.348 27.0974 107.08 27.0974ZM113.975 30.1214C113.975 30.4606 113.892 30.7454 113.725 30.9758C113.559 31.2062 113.319 31.3822 113.005 31.5038C112.692 31.619 112.314 31.6766 111.873 31.6766C111.508 31.6766 111.194 31.6478 110.932 31.5902C110.676 31.539 110.439 31.4622 110.221 31.3598V30.467C110.452 30.5758 110.717 30.675 111.018 30.7646C111.319 30.8478 111.613 30.8894 111.901 30.8894C112.285 30.8894 112.561 30.8286 112.727 30.707C112.9 30.5854 112.986 30.4222 112.986 30.2174C112.986 30.1022 112.954 29.9998 112.89 29.9102C112.826 29.8142 112.705 29.7182 112.525 29.6222C112.353 29.5198 112.097 29.4046 111.757 29.2766C111.431 29.1422 111.153 29.011 110.922 28.883C110.692 28.7486 110.516 28.5918 110.394 28.4126C110.273 28.227 110.212 27.9902 110.212 27.7022C110.212 27.2542 110.391 26.9118 110.749 26.675C111.114 26.4318 111.594 26.3102 112.189 26.3102C112.503 26.3102 112.797 26.3422 113.073 26.4062C113.354 26.4638 113.626 26.5534 113.889 26.675L113.553 27.4526C113.405 27.3822 113.252 27.3246 113.092 27.2798C112.938 27.2286 112.781 27.187 112.621 27.155C112.468 27.123 112.308 27.107 112.141 27.107C111.834 27.107 111.601 27.155 111.441 27.251C111.281 27.347 111.201 27.4814 111.201 27.6542C111.201 27.7758 111.236 27.8814 111.306 27.971C111.383 28.0606 111.514 28.1502 111.7 28.2398C111.885 28.3294 112.138 28.4382 112.458 28.5662C112.778 28.6878 113.05 28.8126 113.274 28.9406C113.505 29.0686 113.677 29.2254 113.793 29.411C113.914 29.5966 113.975 29.8334 113.975 30.1214ZM118.625 30.1214C118.625 30.4606 118.542 30.7454 118.375 30.9758C118.209 31.2062 117.969 31.3822 117.655 31.5038C117.342 31.619 116.964 31.6766 116.523 31.6766C116.158 31.6766 115.844 31.6478 115.582 31.5902C115.326 31.539 115.089 31.4622 114.871 31.3598V30.467C115.102 30.5758 115.367 30.675 115.668 30.7646C115.969 30.8478 116.263 30.8894 116.551 30.8894C116.935 30.8894 117.211 30.8286 117.377 30.707C117.55 30.5854 117.636 30.4222 117.636 30.2174C117.636 30.1022 117.604 29.9998 117.54 29.9102C117.476 29.8142 117.355 29.7182 117.175 29.6222C117.003 29.5198 116.747 29.4046 116.407 29.2766C116.081 29.1422 115.803 29.011 115.572 28.883C115.342 28.7486 115.166 28.5918 115.044 28.4126C114.923 28.227 114.862 27.9902 114.862 27.7022C114.862 27.2542 115.041 26.9118 115.399 26.675C115.764 26.4318 116.244 26.3102 116.839 26.3102C117.153 26.3102 117.447 26.3422 117.723 26.4062C118.004 26.4638 118.276 26.5534 118.539 26.675L118.203 27.4526C118.055 27.3822 117.902 27.3246 117.742 27.2798C117.588 27.2286 117.431 27.187 117.271 27.155C117.118 27.123 116.958 27.107 116.791 27.107C116.484 27.107 116.251 27.155 116.091 27.251C115.931 27.347 115.851 27.4814 115.851 27.6542C115.851 27.7758 115.886 27.8814 115.956 27.971C116.033 28.0606 116.164 28.1502 116.35 28.2398C116.535 28.3294 116.788 28.4382 117.108 28.5662C117.428 28.6878 117.7 28.8126 117.924 28.9406C118.155 29.0686 118.327 29.2254 118.443 29.411C118.564 29.5966 118.625 29.8334 118.625 30.1214Z" fill="white" fill-opacity="0.7"/>
<defs>
<filter id="filter0_f_229_535" x="10.8184" y="35.1001" width="4.11692" height="3.93729" filterUnits="userSpaceOnUse" color-interpolation-filters="sRGB">
<feFlood flood-opacity="0" result="BackgroundImageFix"/>
<feBlend mode="normal" in="SourceGraphic" in2="BackgroundImageFix" result="shape"/>
<feGaussianBlur stdDeviation="0.489999" result="effect1_foregroundBlur_229_535"/>
</filter>
<filter id="filter1_f_229_535" x="34.7305" y="9.63865" width="4.11698" height="3.93705" filterUnits="userSpaceOnUse" color-interpolation-filters="sRGB">
<feFlood flood-opacity="0" result="BackgroundImageFix"/>
<feBlend mode="normal" in="SourceGraphic" in2="BackgroundImageFix" result="shape"/>
<feGaussianBlur stdDeviation="0.489999" result="effect1_foregroundBlur_229_535"/>
</filter>
<filter id="filter2_f_229_535" x="0.511444" y="-0.301605" width="22.2664" height="38.5258" filterUnits="userSpaceOnUse" color-interpolation-filters="sRGB">
<feFlood flood-opacity="0" result="BackgroundImageFix"/>
<feBlend mode="normal" in="SourceGraphic" in2="BackgroundImageFix" result="shape"/>
<feGaussianBlur stdDeviation="0.955979" result="effect1_foregroundBlur_229_535"/>
</filter>
<filter id="filter3_f_229_535" x="2.24165" y="2.55653" width="16.2873" height="17.6755" filterUnits="userSpaceOnUse" color-interpolation-filters="sRGB">
<feFlood flood-opacity="0" result="BackgroundImageFix"/>
<feBlend mode="normal" in="SourceGraphic" in2="BackgroundImageFix" result="shape"/>
<feGaussianBlur stdDeviation="0.395563" result="effect1_foregroundBlur_229_535"/>
</filter>
<filter id="filter4_f_229_535" x="2.912" y="3.41163" width="35.0878" height="36.9712" filterUnits="userSpaceOnUse" color-interpolation-filters="sRGB">
<feFlood flood-opacity="0" result="BackgroundImageFix"/>
<feBlend mode="normal" in="SourceGraphic" in2="BackgroundImageFix" result="shape"/>
<feGaussianBlur stdDeviation="1.91333" result="effect1_foregroundBlur_229_535"/>
</filter>
<filter id="filter5_f_229_535" x="3.35102" y="6.44715" width="31.5583" height="30.7991" filterUnits="userSpaceOnUse" color-interpolation-filters="sRGB">
<feFlood flood-opacity="0" result="BackgroundImageFix"/>
<feBlend mode="normal" in="SourceGraphic" in2="BackgroundImageFix" result="shape"/>
<feGaussianBlur stdDeviation="0.395563" result="effect1_foregroundBlur_229_535"/>
</filter>
<filter id="filter6_i_229_535" x="4.47693" y="3.67871" width="27.9561" height="31.683" filterUnits="userSpaceOnUse" color-interpolation-filters="sRGB">
<feFlood flood-opacity="0" result="BackgroundImageFix"/>
<feBlend mode="normal" in="SourceGraphic" in2="BackgroundImageFix" result="shape"/>
<feColorMatrix in="SourceAlpha" type="matrix" values="0 0 0 0 0 0 0 0 0 0 0 0 0 0 0 0 0 0 127 0" result="hardAlpha"/>
<feOffset dx="0.478333" dy="1.11611"/>
<feGaussianBlur stdDeviation="1.51472"/>
<feComposite in2="hardAlpha" operator="arithmetic" k2="-1" k3="1"/>
<feColorMatrix type="matrix" values="0 0 0 0 0.0409375 0 0 0 0 0.545833 0 0 0 0 0.297457 0 0 0 1 0"/>
<feBlend mode="normal" in2="shape" result="effect1_innerShadow_229_535"/>
</filter>
<filter id="filter7_f_229_535" x="4.15687" y="4.59413" width="14.4198" height="15.5823" filterUnits="userSpaceOnUse" color-interpolation-filters="sRGB">
<feFlood flood-opacity="0" result="BackgroundImageFix"/>
<feBlend mode="normal" in="SourceGraphic" in2="BackgroundImageFix" result="shape"/>
<feGaussianBlur stdDeviation="0.395563" result="effect1_foregroundBlur_229_535"/>
</filter>
<filter id="filter8_f_229_535" x="4.38856" y="4.97462" width="31.4321" height="33.0644" filterUnits="userSpaceOnUse" color-interpolation-filters="sRGB">
<feFlood flood-opacity="0" result="BackgroundImageFix"/>
<feBlend mode="normal" in="SourceGraphic" in2="BackgroundImageFix" result="shape"/>
<feGaussianBlur stdDeviation="1.91333" result="effect1_foregroundBlur_229_535"/>
</filter>
<filter id="filter9_f_229_535" x="5.70732" y="8.29612" width="26.4041" height="26.1138" filterUnits="userSpaceOnUse" color-interpolation-filters="sRGB">
<feFlood flood-opacity="0" result="BackgroundImageFix"/>
<feBlend mode="normal" in="SourceGraphic" in2="BackgroundImageFix" result="shape"/>
<feGaussianBlur stdDeviation="0.0797222" result="effect1_foregroundBlur_229_535"/>
</filter>
<filter id="filter10_d_229_535" x="8.09886" y="7.30463" width="21.3034" height="23.3286" filterUnits="userSpaceOnUse" color-interpolation-filters="sRGB">
<feFlood flood-opacity="0" result="BackgroundImageFix"/>
<feColorMatrix in="SourceAlpha" type="matrix" values="0 0 0 0 0 0 0 0 0 0 0 0 0 0 0 0 0 0 127 0" result="hardAlpha"/>
<feOffset dx="1.11611" dy="1.27555"/>
<feGaussianBlur stdDeviation="1.83361"/>
<feColorMatrix type="matrix" values="0 0 0 0 0.126389 0 0 0 0 0.541667 0 0 0 0 0.337377 0 0 0 1 0"/>
<feBlend mode="normal" in2="BackgroundImageFix" result="effect1_dropShadow_229_535"/>
<feBlend mode="normal" in="SourceGraphic" in2="effect1_dropShadow_229_535" result="shape"/>
</filter>
<filter id="filter11_f_229_535" x="2.38502" y="4.19667" width="12.3606" height="20.7966" filterUnits="userSpaceOnUse" color-interpolation-filters="sRGB">
<feFlood flood-opacity="0" result="BackgroundImageFix"/>
<feBlend mode="normal" in="SourceGraphic" in2="BackgroundImageFix" result="shape"/>
<feGaussianBlur stdDeviation="0.395563" result="effect1_foregroundBlur_229_535"/>
</filter>
<filter id="filter12_f_229_535" x="0.947122" y="9.08781" width="32.3421" height="21.3659" filterUnits="userSpaceOnUse" color-interpolation-filters="sRGB">
<feFlood flood-opacity="0" result="BackgroundImageFix"/>
<feBlend mode="normal" in="SourceGraphic" in2="BackgroundImageFix" result="shape"/>
<feGaussianBlur stdDeviation="0.318889" result="effect1_foregroundBlur_229_535"/>
</filter>
<linearGradient id="paint0_linear_229_535" x1="39.9876" y1="29.7485" x2="-0.946054" y2="9.65381" gradientUnits="userSpaceOnUse">
<stop offset="0.10771" stop-color="#30CF66"/>
<stop offset="0.670861" stop-color="#80F399"/>
<stop offset="0.731565" stop-color="white"/>
<stop offset="0.876285" stop-color="#93F9BC"/>
<stop offset="0.953125" stop-color="#A9F19D"/>
</linearGradient>
<linearGradient id="paint1_linear_229_535" x1="19.6251" y1="2.66806" x2="4.83921" y2="18.2941" gradientUnits="userSpaceOnUse">
<stop stop-color="white"/>
<stop offset="0.544957" stop-color="#D7FFEC"/>
<stop offset="1" stop-color="white"/>
</linearGradient>
<linearGradient id="paint2_linear_229_535" x1="31.621" y1="36.5562" x2="4.07079" y2="12.3607" gradientUnits="userSpaceOnUse">
<stop stop-color="#39A771"/>
<stop offset="1" stop-color="#91FFC9" stop-opacity="0.55"/>
</linearGradient>
<linearGradient id="paint3_linear_229_535" x1="29.3985" y1="34.2457" x2="-5.46438" y2="9.07359" gradientUnits="userSpaceOnUse">
<stop stop-color="#2EAE52"/>
<stop offset="1" stop-color="#6CE8AB" stop-opacity="0.3"/>
</linearGradient>
<linearGradient id="paint4_linear_229_535" x1="19.3856" y1="4.83965" x2="6.56997" y2="18.3834" gradientUnits="userSpaceOnUse">
<stop stop-color="white"/>
<stop offset="0.544957" stop-color="#7AF09B"/>
<stop offset="1" stop-color="white"/>
</linearGradient>
<linearGradient id="paint5_linear_229_535" x1="29.7819" y1="34.2125" x2="5.90285" y2="13.2411" gradientUnits="userSpaceOnUse">
<stop stop-color="#0E9553"/>
<stop offset="1" stop-color="#6CE8AB" stop-opacity="0.53"/>
</linearGradient>
<linearGradient id="paint6_linear_229_535" x1="55.0703" y1="-23.6931" x2="4.52207" y2="48.0149" gradientUnits="userSpaceOnUse">
<stop stop-color="#ADF6B0" stop-opacity="0"/>
<stop offset="1" stop-color="#A0F7A4"/>
</linearGradient>
<linearGradient id="paint7_linear_229_535" x1="17.7752" y1="4.93403" x2="6.80362" y2="33.9886" gradientUnits="userSpaceOnUse">
<stop stop-color="#93FFB1" stop-opacity="0.03"/>
<stop offset="0.236842" stop-color="#FEFFFE"/>
<stop offset="0.570496" stop-color="#00E86B" stop-opacity="0.4"/>
<stop offset="0.630208" stop-color="#00E662" stop-opacity="0.34439"/>
<stop offset="1" stop-color="#00DA30" stop-opacity="0"/>
</linearGradient>
<clipPath id="clip0_229_535">
<rect width="36" height="38.4" fill="white" transform="translate(0.46637 0.840332)"/>
</clipPath>
<clipPath id="clip1_229_535">
<rect width="75.84" height="16.08" fill="white" transform="translate(42.3464 5.50049)"/>
</clipPath>
</defs>
</svg>
